<svg width="126" height="20" viewBox="0 0 126 20" fill="none" xmlns="http://www.w3.org/2000/svg">
<path d="M4.84567 2.59116C4.80114 2.43635 4.73858 2.29957 4.65799 2.18081C4.57741 2.05993 4.4788 1.95814 4.36216 1.87544C4.24765 1.79061 4.11617 1.72593 3.96772 1.6814C3.8214 1.63686 3.65917 1.6146 3.48103 1.6146C3.14809 1.6146 2.85544 1.6973 2.60308 1.86271C2.35284 2.02812 2.15774 2.26882 2.01778 2.5848C1.87782 2.89865 1.80783 3.28249 1.80783 3.73631C1.80783 4.19013 1.87675 4.57609 2.0146 4.89419C2.15244 5.21229 2.34754 5.4551 2.5999 5.62263C2.85226 5.78805 3.15021 5.87075 3.49375 5.87075C3.80549 5.87075 4.07163 5.81561 4.29218 5.70534C4.51485 5.59295 4.6845 5.43496 4.80114 5.23137C4.91989 5.02779 4.97927 4.7871 4.97927 4.50929L5.2592 4.55064H3.57964V3.51364H6.30574V4.33434C6.30574 4.90691 6.18487 5.39891 5.94311 5.81031C5.70136 6.2196 5.36841 6.53558 4.94428 6.75825C4.52015 6.97879 4.03452 7.08907 3.48739 7.08907C2.87664 7.08907 2.34012 6.95441 1.87782 6.68508C1.41551 6.41364 1.055 6.02874 0.796281 5.53039C0.539682 5.02991 0.411382 4.43613 0.411382 3.74904C0.411382 3.22099 0.487726 2.75021 0.640413 2.33668C0.795221 1.92103 1.01153 1.569 1.28933 1.28059C1.56714 0.992184 1.89054 0.772696 2.25953 0.622129C2.62853 0.471563 3.02827 0.39628 3.45876 0.39628C3.82776 0.39628 4.1713 0.450356 4.4894 0.55851C4.8075 0.664543 5.08955 0.815109 5.33554 1.01021C5.58366 1.20531 5.78618 1.43752 5.94311 1.70684C6.10004 1.97405 6.20077 2.26882 6.2453 2.59116H4.84567ZM9.5416 7.09543C9.039 7.09543 8.60639 6.99364 8.24376 6.79006C7.88325 6.58435 7.60544 6.29382 7.41034 5.91847C7.21524 5.54099 7.11769 5.09459 7.11769 4.57927C7.11769 4.07668 7.21524 3.63558 7.41034 3.25598C7.60544 2.87639 7.88006 2.58055 8.23421 2.36849C8.59048 2.15642 9.00825 2.05039 9.48752 2.05039C9.80986 2.05039 10.1099 2.10235 10.3877 2.20626C10.6677 2.30805 10.9115 2.4618 11.1194 2.6675C11.3293 2.87321 11.4926 3.13192 11.6092 3.44366C11.7259 3.75328 11.7842 4.11591 11.7842 4.53156V4.90373H7.65846V4.06395H10.5086C10.5086 3.86885 10.4662 3.69602 10.3814 3.54545C10.2966 3.39489 10.1789 3.27719 10.0283 3.19236C9.87984 3.10542 9.70701 3.06194 9.50979 3.06194C9.30408 3.06194 9.12171 3.10966 8.96266 3.20509C8.80573 3.2984 8.68273 3.42458 8.59367 3.58362C8.5046 3.74055 8.459 3.91551 8.45688 4.10849V4.90691C8.45688 5.14867 8.50142 5.35755 8.59048 5.53357C8.68167 5.70958 8.80997 5.8453 8.97538 5.94073C9.14079 6.03616 9.33695 6.08388 9.56387 6.08388C9.71443 6.08388 9.85227 6.06267 9.97739 6.02026C10.1025 5.97784 10.2096 5.91422 10.2987 5.8294C10.3877 5.74457 10.4556 5.64066 10.5023 5.51766L11.7556 5.60037C11.6919 5.9015 11.5615 6.16446 11.3643 6.38925C11.1692 6.61192 10.9168 6.78581 10.6072 6.91093C10.2997 7.03393 9.94452 7.09543 9.5416 7.09543ZM15.2674 2.11401V3.13192H12.325V2.11401H15.2674ZM12.993 0.943409H14.3481V5.49858C14.3481 5.62369 14.3671 5.72124 14.4053 5.79123C14.4435 5.85909 14.4965 5.9068 14.5644 5.93437C14.6344 5.96194 14.7149 5.97572 14.8061 5.97572C14.8697 5.97572 14.9334 5.97042 14.997 5.95982C15.0606 5.94709 15.1094 5.93755 15.1433 5.93119L15.3564 6.93956C15.2886 6.96077 15.1931 6.98516 15.0701 7.01272C14.9471 7.04241 14.7976 7.06044 14.6216 7.0668C14.295 7.07952 14.0088 7.03605 13.7628 6.93638C13.5189 6.83671 13.3291 6.6819 13.1934 6.47196C13.0576 6.26201 12.9908 5.99693 12.993 5.67671V0.943409ZM20.45 7.09543C19.9474 7.09543 19.5148 6.99364 19.1521 6.79006C18.7916 6.58435 18.5138 6.29382 18.3187 5.91847C18.1236 5.54099 18.0261 5.09459 18.0261 4.57927C18.0261 4.07668 18.1236 3.63558 18.3187 3.25598C18.5138 2.87639 18.7884 2.58055 19.1426 2.36849C19.4989 2.15642 19.9166 2.05039 20.3959 2.05039C20.7182 2.05039 21.0183 2.10235 21.2961 2.20626C21.5761 2.30805 21.8199 2.4618 22.0278 2.6675C22.2377 2.87321 22.401 3.13192 22.5176 3.44366C22.6343 3.75328 22.6926 4.11591 22.6926 4.53156V4.90373H18.5668V4.06395H21.417C21.417 3.86885 21.3746 3.69602 21.2898 3.54545C21.2049 3.39489 21.0872 3.27719 20.9367 3.19236C20.7882 3.10542 20.6154 3.06194 20.4182 3.06194C20.2125 3.06194 20.0301 3.10966 19.871 3.20509C19.7141 3.2984 19.5911 3.42458 19.502 3.58362C19.413 3.74055 19.3674 3.91551 19.3653 4.10849V4.90691C19.3653 5.14867 19.4098 5.35755 19.4989 5.53357C19.5901 5.70958 19.7184 5.8453 19.8838 5.94073C20.0492 6.03616 20.2453 6.08388 20.4722 6.08388C20.6228 6.08388 20.7607 6.06267 20.8858 6.02026C21.0109 5.97784 21.118 5.91422 21.2071 5.8294C21.2961 5.74457 21.364 5.64066 21.4106 5.51766L22.6639 5.60037C22.6003 5.9015 22.4699 6.16446 22.2727 6.38925C22.0776 6.61192 21.8252 6.78581 21.5156 6.91093C21.2081 7.03393 20.8529 7.09543 20.45 7.09543ZM28.0008 2.11401L26.2927 7H24.7658L23.0576 2.11401H24.489L25.5038 5.60991H25.5547L26.5662 2.11401H28.0008ZM30.7635 7.09543C30.2609 7.09543 29.8283 6.99364 29.4657 6.79006C29.1052 6.58435 28.8274 6.29382 28.6323 5.91847C28.4372 5.54099 28.3396 5.09459 28.3396 4.57927C28.3396 4.07668 28.4372 3.63558 28.6323 3.25598C28.8274 2.87639 29.102 2.58055 29.4561 2.36849C29.8124 2.15642 30.2302 2.05039 30.7094 2.05039C31.0318 2.05039 31.3319 2.10235 31.6097 2.20626C31.8896 2.30805 32.1335 2.4618 32.3413 2.6675C32.5512 2.87321 32.7145 3.13192 32.8312 3.44366C32.9478 3.75328 33.0061 4.11591 33.0061 4.53156V4.90373H28.8804V4.06395H31.7305C31.7305 3.86885 31.6881 3.69602 31.6033 3.54545C31.5185 3.39489 31.4008 3.27719 31.2502 3.19236C31.1018 3.10542 30.9289 3.06194 30.7317 3.06194C30.526 3.06194 30.3436 3.10966 30.1846 3.20509C30.0277 3.2984 29.9047 3.42458 29.8156 3.58362C29.7265 3.74055 29.6809 3.91551 29.6788 4.10849V4.90691C29.6788 5.14867 29.7233 5.35755 29.8124 5.53357C29.9036 5.70958 30.0319 5.8453 30.1973 5.94073C30.3627 6.03616 30.5589 6.08388 30.7858 6.08388C30.9364 6.08388 31.0742 6.06267 31.1993 6.02026C31.3244 5.97784 31.4315 5.91422 31.5206 5.8294C31.6097 5.74457 31.6775 5.64066 31.7242 5.51766L32.9775 5.60037C32.9139 5.9015 32.7835 6.16446 32.5862 6.38925C32.3911 6.61192 32.1388 6.78581 31.8292 6.91093C31.5217 7.03393 31.1665 7.09543 30.7635 7.09543ZM33.8904 7V2.11401H35.2042V2.96651H35.2551C35.3441 2.66326 35.4936 2.43423 35.7036 2.27942C35.9135 2.12249 36.1553 2.04403 36.4289 2.04403C36.4967 2.04403 36.5699 2.04827 36.6483 2.05675C36.7268 2.06524 36.7957 2.0769 36.8551 2.09174V3.29415C36.7915 3.27507 36.7035 3.2581 36.5911 3.24326C36.4787 3.22841 36.3758 3.22099 36.2825 3.22099C36.0832 3.22099 35.9051 3.26447 35.7481 3.35141C35.5933 3.43624 35.4703 3.555 35.3791 3.70768C35.2901 3.86037 35.2455 4.03638 35.2455 4.23573V7H33.8904ZM38.541 8.83225C38.3693 8.83225 38.2081 8.81846 38.0575 8.79089C37.9091 8.76545 37.7861 8.73258 37.6885 8.69228L37.9939 7.68073C38.1529 7.72951 38.2961 7.75601 38.4233 7.76025C38.5527 7.7645 38.664 7.73481 38.7573 7.67119C38.8528 7.60757 38.9302 7.49941 38.9895 7.34673L39.0691 7.13996L37.3163 2.11401H38.7414L39.753 5.70216H39.8039L40.825 2.11401H42.2596L40.3605 7.52804C40.2694 7.791 40.1453 8.02004 39.9884 8.21514C39.8336 8.41236 39.6374 8.56398 39.3999 8.67002C39.1624 8.77817 38.8761 8.83225 38.541 8.83225ZM45.0032 7.09543C44.5091 7.09543 44.0818 6.99046 43.7213 6.78051C43.3629 6.56845 43.0861 6.27368 42.891 5.8962C42.6959 5.5166 42.5984 5.07657 42.5984 4.57609C42.5984 4.07138 42.6959 3.63028 42.891 3.2528C43.0861 2.8732 43.3629 2.57843 43.7213 2.36849C44.0818 2.15642 44.5091 2.05039 45.0032 2.05039C45.4973 2.05039 45.9236 2.15642 46.2819 2.36849C46.6425 2.57843 46.9203 2.8732 47.1154 3.2528C47.3105 3.63028 47.408 4.07138 47.408 4.57609C47.408 5.07657 47.3105 5.5166 47.1154 5.8962C46.9203 6.27368 46.6425 6.56845 46.2819 6.78051C45.9236 6.99046 45.4973 7.09543 45.0032 7.09543ZM45.0096 6.04571C45.2343 6.04571 45.422 5.98209 45.5726 5.85485C45.7232 5.72549 45.8366 5.54947 45.913 5.3268C45.9914 5.10413 46.0306 4.85072 46.0306 4.56655C46.0306 4.28238 45.9914 4.02896 45.913 3.80629C45.8366 3.58362 45.7232 3.40761 45.5726 3.27825C45.422 3.14889 45.2343 3.08421 45.0096 3.08421C44.7826 3.08421 44.5918 3.14889 44.437 3.27825C44.2843 3.40761 44.1687 3.58362 44.0902 3.80629C44.0139 4.02896 43.9757 4.28238 43.9757 4.56655C43.9757 4.85072 44.0139 5.10413 44.0902 5.3268C44.1687 5.54947 44.2843 5.72549 44.437 5.85485C44.5918 5.98209 44.7826 6.04571 45.0096 6.04571ZM49.6442 4.17529V7H48.2891V2.11401H49.5806V2.97606H49.6379C49.746 2.69189 49.9274 2.4671 50.1818 2.30169C50.4363 2.13416 50.7449 2.05039 51.1075 2.05039C51.4468 2.05039 51.7426 2.12461 51.995 2.27306C52.2473 2.42151 52.4435 2.63357 52.5835 2.90926C52.7234 3.18282 52.7934 3.5094 52.7934 3.889V7H51.4383V4.13075C51.4404 3.83174 51.3641 3.59847 51.2093 3.43094C51.0545 3.26128 50.8414 3.17646 50.5699 3.17646C50.3875 3.17646 50.2264 3.21569 50.0864 3.29415C49.9486 3.37262 49.8404 3.48713 49.7619 3.6377C49.6856 3.78615 49.6464 3.96534 49.6442 4.17529ZM56.0881 7.09543C55.5855 7.09543 55.1529 6.99364 54.7903 6.79006C54.4298 6.58435 54.152 6.29382 53.9569 5.91847C53.7618 5.54099 53.6642 5.09459 53.6642 4.57927C53.6642 4.07668 53.7618 3.63558 53.9569 3.25598C54.152 2.87639 54.4266 2.58055 54.7807 2.36849C55.137 2.15642 55.5548 2.05039 56.034 2.05039C56.3564 2.05039 56.6565 2.10235 56.9343 2.20626C57.2142 2.30805 57.4581 2.4618 57.6659 2.6675C57.8758 2.87321 58.0391 3.13192 58.1558 3.44366C58.2724 3.75328 58.3307 4.11591 58.3307 4.53156V4.90373H54.205V4.06395H57.0551C57.0551 3.86885 57.0127 3.69602 56.9279 3.54545C56.8431 3.39489 56.7254 3.27719 56.5748 3.19236C56.4264 3.10542 56.2535 3.06194 56.0563 3.06194C55.8506 3.06194 55.6682 3.10966 55.5092 3.20509C55.3523 3.2984 55.2293 3.42458 55.1402 3.58362C55.0511 3.74055 55.0055 3.91551 55.0034 4.10849V4.90691C55.0034 5.14867 55.0479 5.35755 55.137 5.53357C55.2282 5.70958 55.3565 5.8453 55.5219 5.94073C55.6873 6.03616 55.8835 6.08388 56.1104 6.08388C56.261 6.08388 56.3988 6.06267 56.5239 6.02026C56.649 5.97784 56.7561 5.91422 56.8452 5.8294C56.9343 5.74457 57.0021 5.64066 57.0488 5.51766L58.3021 5.60037C58.2385 5.9015 58.108 6.16446 57.9108 6.38925C57.7157 6.61192 57.4634 6.78581 57.1537 6.91093C56.8463 7.03393 56.491 7.09543 56.0881 7.09543ZM62.1248 8.83225C61.9531 8.83225 61.7919 8.81846 61.6413 8.79089C61.4929 8.76545 61.3699 8.73258 61.2723 8.69228L61.5777 7.68073C61.7368 7.72951 61.8799 7.75601 62.0071 7.76025C62.1365 7.7645 62.2478 7.73481 62.3411 7.67119C62.4366 7.60757 62.514 7.49941 62.5734 7.34673L62.6529 7.13996L60.9002 2.11401H62.3252L63.3368 5.70216H63.3877L64.4088 2.11401H65.8434L63.9444 7.52804C63.8532 7.791 63.7291 8.02004 63.5722 8.21514C63.4174 8.41236 63.2212 8.56398 62.9837 8.67002C62.7462 8.77817 62.4599 8.83225 62.1248 8.83225ZM68.587 7.09543C68.0929 7.09543 67.6656 6.99046 67.3051 6.78051C66.9467 6.56845 66.6699 6.27368 66.4748 5.8962C66.2797 5.5166 66.1822 5.07657 66.1822 4.57609C66.1822 4.07138 66.2797 3.63028 66.4748 3.2528C66.6699 2.8732 66.9467 2.57843 67.3051 2.36849C67.6656 2.15642 68.0929 2.05039 68.587 2.05039C69.0811 2.05039 69.5074 2.15642 69.8657 2.36849C70.2263 2.57843 70.5041 2.8732 70.6992 3.2528C70.8943 3.63028 70.9918 4.07138 70.9918 4.57609C70.9918 5.07657 70.8943 5.5166 70.6992 5.8962C70.5041 6.27368 70.2263 6.56845 69.8657 6.78051C69.5074 6.99046 69.0811 7.09543 68.587 7.09543ZM68.5934 6.04571C68.8181 6.04571 69.0058 5.98209 69.1564 5.85485C69.307 5.72549 69.4204 5.54947 69.4968 5.3268C69.5752 5.10413 69.6144 4.85072 69.6144 4.56655C69.6144 4.28238 69.5752 4.02896 69.4968 3.80629C69.4204 3.58362 69.307 3.40761 69.1564 3.27825C69.0058 3.14889 68.8181 3.08421 68.5934 3.08421C68.3664 3.08421 68.1756 3.14889 68.0208 3.27825C67.8681 3.40761 67.7525 3.58362 67.6741 3.80629C67.5977 4.02896 67.5595 4.28238 67.5595 4.56655C67.5595 4.85072 67.5977 5.10413 67.6741 5.3268C67.7525 5.54947 67.8681 5.72549 68.0208 5.85485C68.1756 5.98209 68.3664 6.04571 68.5934 6.04571ZM75.0062 4.91964V2.11401H76.3613V7H75.0603V6.11251H75.0094C74.8991 6.39879 74.7157 6.62889 74.4591 6.80278C74.2046 6.97667 73.8939 7.06362 73.5271 7.06362C73.2005 7.06362 72.9131 6.9894 72.665 6.84095C72.4169 6.69251 72.2229 6.4815 72.0829 6.20794C71.9451 5.93437 71.8751 5.60673 71.873 5.22501V2.11401H73.228V4.98326C73.2302 5.27167 73.3076 5.49964 73.4603 5.66717C73.6129 5.8347 73.8176 5.91847 74.0742 5.91847C74.2375 5.91847 74.3902 5.88135 74.5323 5.80713C74.6743 5.73079 74.7889 5.61839 74.8758 5.46995C74.9649 5.3215 75.0083 5.13806 75.0062 4.91964ZM82.1173 2.11401V3.13192H79.1749V2.11401H82.1173ZM79.8429 0.943409H81.198V5.49858C81.198 5.62369 81.2171 5.72124 81.2553 5.79123C81.2934 5.85909 81.3464 5.9068 81.4143 5.93437C81.4843 5.96194 81.5649 5.97572 81.6561 5.97572C81.7197 5.97572 81.7833 5.97042 81.8469 5.95982C81.9105 5.94709 81.9593 5.93755 81.9932 5.93119L82.2064 6.93956C82.1385 6.96077 82.0431 6.98516 81.9201 7.01272C81.7971 7.04241 81.6476 7.06044 81.4716 7.0668C81.145 7.07952 80.8587 7.03605 80.6127 6.93638C80.3688 6.83671 80.179 6.6819 80.0433 6.47196C79.9076 6.26201 79.8408 5.99693 79.8429 5.67671V0.943409ZM85.1742 7.09543C84.6716 7.09543 84.239 6.99364 83.8764 6.79006C83.5159 6.58435 83.2381 6.29382 83.043 5.91847C82.8479 5.54099 82.7503 5.09459 82.7503 4.57927C82.7503 4.07668 82.8479 3.63558 83.043 3.25598C83.2381 2.87639 83.5127 2.58055 83.8669 2.36849C84.2231 2.15642 84.6409 2.05039 85.1202 2.05039C85.4425 2.05039 85.7426 2.10235 86.0204 2.20626C86.3003 2.30805 86.5442 2.4618 86.752 2.6675C86.962 2.87321 87.1252 3.13192 87.2419 3.44366C87.3585 3.75328 87.4168 4.11591 87.4168 4.53156V4.90373H83.2911V4.06395H86.1413C86.1413 3.86885 86.0988 3.69602 86.014 3.54545C85.9292 3.39489 85.8115 3.27719 85.6609 3.19236C85.5125 3.10542 85.3397 3.06194 85.1424 3.06194C84.9367 3.06194 84.7543 3.10966 84.5953 3.20509C84.4384 3.2984 84.3154 3.42458 84.2263 3.58362C84.1372 3.74055 84.0916 3.91551 84.0895 4.10849V4.90691C84.0895 5.14867 84.1341 5.35755 84.2231 5.53357C84.3143 5.70958 84.4426 5.8453 84.608 5.94073C84.7734 6.03616 84.9696 6.08388 85.1965 6.08388C85.3471 6.08388 85.4849 6.06267 85.61 6.02026C85.7352 5.97784 85.8422 5.91422 85.9313 5.8294C86.0204 5.74457 86.0882 5.64066 86.1349 5.51766L87.3882 5.60037C87.3246 5.9015 87.1942 6.16446 86.9969 6.38925C86.8018 6.61192 86.5495 6.78581 86.2399 6.91093C85.9324 7.03393 85.5772 7.09543 85.1742 7.09543ZM89.3461 2.11401L90.2431 3.8222L91.1624 2.11401H92.5525L91.137 4.55701L92.5907 7H91.207L90.2431 5.3109L89.2952 7H87.8956L89.3461 4.55701L87.9465 2.11401H89.3461ZM95.9562 2.11401V3.13192H93.0138V2.11401H95.9562ZM93.6818 0.943409H95.0369V5.49858C95.0369 5.62369 95.056 5.72124 95.0941 5.79123C95.1323 5.85909 95.1853 5.9068 95.2532 5.93437C95.3232 5.96194 95.4037 5.97572 95.4949 5.97572C95.5586 5.97572 95.6222 5.97042 95.6858 5.95982C95.7494 5.94709 95.7982 5.93755 95.8321 5.93119L96.0452 6.93956C95.9774 6.96077 95.882 6.98516 95.759 7.01272C95.636 7.04241 95.4864 7.06044 95.3104 7.0668C94.9839 7.07952 94.6976 7.03605 94.4516 6.93638C94.2077 6.83671 94.0179 6.6819 93.8822 6.47196C93.7465 6.26201 93.6797 5.99693 93.6818 5.67671V0.943409ZM101.12 7.09543C100.626 7.09543 100.198 6.99046 99.8378 6.78051C99.4794 6.56845 99.2026 6.27368 99.0075 5.8962C98.8124 5.5166 98.7149 5.07657 98.7149 4.57609C98.7149 4.07138 98.8124 3.63028 99.0075 3.2528C99.2026 2.8732 99.4794 2.57843 99.8378 2.36849C100.198 2.15642 100.626 2.05039 101.12 2.05039C101.614 2.05039 102.04 2.15642 102.398 2.36849C102.759 2.57843 103.037 2.8732 103.232 3.2528C103.427 3.63028 103.525 4.07138 103.525 4.57609C103.525 5.07657 103.427 5.5166 103.232 5.8962C103.037 6.27368 102.759 6.56845 102.398 6.78051C102.04 6.99046 101.614 7.09543 101.12 7.09543ZM101.126 6.04571C101.351 6.04571 101.539 5.98209 101.689 5.85485C101.84 5.72549 101.953 5.54947 102.029 5.3268C102.108 5.10413 102.147 4.85072 102.147 4.56655C102.147 4.28238 102.108 4.02896 102.029 3.80629C101.953 3.58362 101.84 3.40761 101.689 3.27825C101.539 3.14889 101.351 3.08421 101.126 3.08421C100.899 3.08421 100.708 3.14889 100.553 3.27825C100.401 3.40761 100.285 3.58362 100.207 3.80629C100.13 4.02896 100.092 4.28238 100.092 4.56655C100.092 4.85072 100.13 5.10413 100.207 5.3268C100.285 5.54947 100.401 5.72549 100.553 5.85485C100.708 5.98209 100.899 6.04571 101.126 6.04571ZM105.761 4.17529V7H104.406V2.11401H105.697V2.97606H105.754C105.863 2.69189 106.044 2.4671 106.298 2.30169C106.553 2.13416 106.861 2.05039 107.224 2.05039C107.563 2.05039 107.859 2.12461 108.112 2.27306C108.364 2.42151 108.56 2.63357 108.7 2.90926C108.84 3.18282 108.91 3.5094 108.91 3.889V7H107.555V4.13075C107.557 3.83174 107.481 3.59847 107.326 3.43094C107.171 3.26128 106.958 3.17646 106.686 3.17646C106.504 3.17646 106.343 3.21569 106.203 3.29415C106.065 3.37262 105.957 3.48713 105.878 3.6377C105.802 3.78615 105.763 3.96534 105.761 4.17529ZM114.65 2.11401V3.13192H111.708V2.11401H114.65ZM112.376 0.943409H113.731V5.49858C113.731 5.62369 113.75 5.72124 113.788 5.79123C113.826 5.85909 113.879 5.9068 113.947 5.93437C114.017 5.96194 114.098 5.97572 114.189 5.97572C114.252 5.97572 114.316 5.97042 114.38 5.95982C114.443 5.94709 114.492 5.93755 114.526 5.93119L114.739 6.93956C114.671 6.96077 114.576 6.98516 114.453 7.01272C114.33 7.04241 114.18 7.06044 114.004 7.0668C113.678 7.07952 113.391 7.03605 113.145 6.93638C112.902 6.83671 112.712 6.6819 112.576 6.47196C112.44 6.26201 112.373 5.99693 112.376 5.67671V0.943409ZM116.993 4.17529V7H115.638V0.485347H116.955V2.97606H117.012C117.122 2.68765 117.3 2.4618 117.546 2.29851C117.792 2.1331 118.101 2.05039 118.472 2.05039C118.811 2.05039 119.107 2.12461 119.359 2.27306C119.614 2.41938 119.811 2.63039 119.951 2.90608C120.093 3.17964 120.163 3.50728 120.161 3.889V7H118.806V4.13075C118.808 3.82962 118.732 3.59529 118.577 3.42776C118.424 3.26022 118.21 3.17646 117.934 3.17646C117.75 3.17646 117.587 3.21569 117.445 3.29415C117.305 3.37262 117.194 3.48713 117.114 3.6377C117.035 3.78615 116.995 3.96534 116.993 4.17529ZM123.454 7.09543C122.952 7.09543 122.519 6.99364 122.156 6.79006C121.796 6.58435 121.518 6.29382 121.323 5.91847C121.128 5.54099 121.03 5.09459 121.03 4.57927C121.03 4.07668 121.128 3.63558 121.323 3.25598C121.518 2.87639 121.793 2.58055 122.147 2.36849C122.503 2.15642 122.921 2.05039 123.4 2.05039C123.722 2.05039 124.023 2.10235 124.3 2.20626C124.58 2.30805 124.824 2.4618 125.032 2.6675C125.242 2.87321 125.405 3.13192 125.522 3.44366C125.638 3.75328 125.697 4.11591 125.697 4.53156V4.90373H121.571V4.06395H124.421C124.421 3.86885 124.379 3.69602 124.294 3.54545C124.209 3.39489 124.091 3.27719 123.941 3.19236C123.792 3.10542 123.62 3.06194 123.422 3.06194C123.217 3.06194 123.034 3.10966 122.875 3.20509C122.718 3.2984 122.595 3.42458 122.506 3.58362C122.417 3.74055 122.372 3.91551 122.369 4.10849V4.90691C122.369 5.14867 122.414 5.35755 122.503 5.53357C122.594 5.70958 122.723 5.8453 122.888 5.94073C123.053 6.03616 123.25 6.08388 123.476 6.08388C123.627 6.08388 123.765 6.06267 123.89 6.02026C124.015 5.97784 124.122 5.91422 124.211 5.8294C124.3 5.74457 124.368 5.64066 124.415 5.51766L125.668 5.60037C125.605 5.9015 125.474 6.16446 125.277 6.38925C125.082 6.61192 124.829 6.78581 124.52 6.91093C124.212 7.03393 123.857 7.09543 123.454 7.09543ZM42.4171 14.5073L41.1765 14.5836C41.1553 14.4776 41.1097 14.3822 41.0397 14.2973C40.9697 14.2104 40.8775 14.1415 40.7629 14.0906C40.6505 14.0376 40.5159 14.011 40.359 14.011C40.149 14.011 39.9719 14.0556 39.8277 14.1446C39.6835 14.2316 39.6114 14.3482 39.6114 14.4946C39.6114 14.6112 39.6581 14.7098 39.7514 14.7904C39.8447 14.871 40.0048 14.9357 40.2317 14.9844L41.116 15.1626C41.5911 15.2601 41.9452 15.417 42.1785 15.6333C42.4118 15.8497 42.5284 16.1338 42.5284 16.4859C42.5284 16.8061 42.434 17.0871 42.2453 17.3288C42.0587 17.5706 41.8021 17.7593 41.4755 17.895C41.151 18.0286 40.7767 18.0954 40.3526 18.0954C39.7058 18.0954 39.1905 17.9608 38.8066 17.6914C38.4249 17.42 38.2012 17.051 38.1354 16.5845L39.4683 16.5145C39.5086 16.7117 39.6061 16.8623 39.7609 16.9662C39.9157 17.068 40.114 17.1189 40.3558 17.1189C40.5933 17.1189 40.7841 17.0733 40.9284 16.9821C41.0747 16.8888 41.1489 16.769 41.151 16.6226C41.1489 16.4996 41.0969 16.3989 40.9952 16.3204C40.8934 16.2399 40.7364 16.1784 40.5244 16.1359L39.6782 15.9674C39.2011 15.8719 38.8459 15.7065 38.6126 15.4711C38.3814 15.2357 38.2659 14.9357 38.2659 14.5709C38.2659 14.257 38.3507 13.9867 38.5203 13.7597C38.6921 13.5328 38.9328 13.3579 39.2424 13.2349C39.5542 13.1119 39.9189 13.0504 40.3367 13.0504C40.9538 13.0504 41.4394 13.1808 41.7936 13.4417C42.1498 13.7025 42.3577 14.0577 42.4171 14.5073ZM44.775 18.0922C44.4632 18.0922 44.1854 18.0382 43.9415 17.93C43.6977 17.8197 43.5047 17.6575 43.3626 17.4433C43.2226 17.227 43.1527 16.9577 43.1527 16.6354C43.1527 16.3639 43.2025 16.1359 43.3022 15.9514C43.4018 15.767 43.5376 15.6185 43.7093 15.5061C43.8811 15.3937 44.0762 15.3089 44.2946 15.2516C44.5152 15.1944 44.7463 15.1541 44.9881 15.1308C45.2723 15.1011 45.5013 15.0735 45.6752 15.048C45.8491 15.0205 45.9752 14.9802 46.0537 14.9272C46.1322 14.8742 46.1714 14.7957 46.1714 14.6918V14.6727C46.1714 14.4712 46.1078 14.3154 45.9805 14.2051C45.8554 14.0948 45.6773 14.0397 45.4461 14.0397C45.2023 14.0397 45.0082 14.0938 44.864 14.2019C44.7198 14.3079 44.6244 14.4415 44.5777 14.6027L43.3244 14.5009C43.388 14.204 43.5132 13.9474 43.6998 13.7311C43.8864 13.5127 44.1271 13.3452 44.4219 13.2285C44.7188 13.1098 45.0623 13.0504 45.4525 13.0504C45.724 13.0504 45.9837 13.0822 46.2318 13.1458C46.4821 13.2094 46.7037 13.3081 46.8967 13.4417C47.0918 13.5753 47.2455 13.747 47.3579 13.957C47.4703 14.1648 47.5265 14.414 47.5265 14.7045V18H46.2414V17.3225H46.2032C46.1248 17.4751 46.0198 17.6098 45.8883 17.7264C45.7568 17.841 45.5988 17.9311 45.4143 17.9968C45.2298 18.0604 45.0167 18.0922 44.775 18.0922ZM45.163 17.157C45.3624 17.157 45.5384 17.1178 45.6911 17.0393C45.8438 16.9588 45.9636 16.8506 46.0505 16.7149C46.1375 16.5792 46.181 16.4254 46.181 16.2536V15.7351C46.1385 15.7627 46.0802 15.7882 46.006 15.8115C45.9339 15.8327 45.8522 15.8528 45.7611 15.8719C45.6699 15.8889 45.5787 15.9048 45.4875 15.9196C45.3963 15.9324 45.3136 15.944 45.2394 15.9546C45.0803 15.978 44.9414 16.0151 44.8227 16.066C44.7039 16.1169 44.6117 16.1858 44.5459 16.2727C44.4802 16.3576 44.4473 16.4636 44.4473 16.5908C44.4473 16.7753 44.5141 16.9163 44.6477 17.0139C44.7834 17.1093 44.9552 17.157 45.163 17.157ZM48.5778 18V13.114H49.8693V13.9761H49.9266C50.0283 13.6898 50.198 13.4639 50.4355 13.2985C50.673 13.1331 50.9572 13.0504 51.288 13.0504C51.6231 13.0504 51.9083 13.1342 52.1437 13.3017C52.3791 13.4671 52.536 13.6919 52.6145 13.9761H52.6654C52.7651 13.6961 52.9453 13.4724 53.2061 13.3049C53.4691 13.1352 53.7798 13.0504 54.1382 13.0504C54.5941 13.0504 54.9642 13.1957 55.2483 13.4862C55.5346 13.7746 55.6778 14.1839 55.6778 14.714V18H54.3259V14.9812C54.3259 14.7098 54.2538 14.5062 54.1095 14.3705C53.9653 14.2348 53.7851 14.1669 53.5688 14.1669C53.3228 14.1669 53.1309 14.2454 52.993 14.4023C52.8552 14.5571 52.7863 14.7618 52.7863 15.0162V18H51.4725V14.9526C51.4725 14.713 51.4036 14.5221 51.2657 14.38C51.13 14.238 50.9508 14.1669 50.7282 14.1669C50.5776 14.1669 50.4419 14.2051 50.321 14.2814C50.2022 14.3557 50.1079 14.4606 50.0379 14.5963C49.9679 14.7299 49.9329 14.8869 49.9329 15.0671V18H48.5778ZM58.9749 18.0954C58.4723 18.0954 58.0397 17.9936 57.677 17.7901C57.3165 17.5844 57.0387 17.2938 56.8436 16.9185C56.6485 16.541 56.551 16.0946 56.551 15.5793C56.551 15.0767 56.6485 14.6356 56.8436 14.256C57.0387 13.8764 57.3133 13.5806 57.6675 13.3685C58.0237 13.1564 58.4415 13.0504 58.9208 13.0504C59.2431 13.0504 59.5432 13.1023 59.821 13.2063C60.1009 13.3081 60.3448 13.4618 60.5526 13.6675C60.7626 13.8732 60.9259 14.1319 61.0425 14.4437C61.1591 14.7533 61.2175 15.1159 61.2175 15.5316V15.9037H57.0917V15.064H59.9419C59.9419 14.8689 59.8995 14.696 59.8146 14.5455C59.7298 14.3949 59.6121 14.2772 59.4616 14.1924C59.3131 14.1054 59.1403 14.0619 58.9431 14.0619C58.7373 14.0619 58.555 14.1097 58.3959 14.2051C58.239 14.2984 58.116 14.4246 58.0269 14.5836C57.9379 14.7406 57.8923 14.9155 57.8901 15.1085V15.9069C57.8901 16.1487 57.9347 16.3576 58.0237 16.5336C58.1149 16.7096 58.2432 16.8453 58.4086 16.9407C58.5741 17.0362 58.7702 17.0839 58.9971 17.0839C59.1477 17.0839 59.2855 17.0627 59.4107 17.0203C59.5358 16.9778 59.6429 16.9142 59.7319 16.8294C59.821 16.7446 59.8889 16.6407 59.9355 16.5177L61.1888 16.6004C61.1252 16.9015 60.9948 17.1645 60.7976 17.3893C60.6025 17.6119 60.3501 17.7858 60.0405 17.9109C59.733 18.0339 59.3778 18.0954 58.9749 18.0954ZM64.175 19.8322V13.114H65.511V13.9347H65.5714C65.6308 13.8032 65.7167 13.6696 65.8291 13.5339C65.9436 13.3961 66.092 13.2815 66.2744 13.1904C66.4589 13.097 66.688 13.0504 66.9615 13.0504C67.3178 13.0504 67.6465 13.1437 67.9476 13.3303C68.2488 13.5148 68.4894 13.7937 68.6697 14.1669C68.85 14.538 68.9401 15.0035 68.9401 15.5634C68.9401 16.1084 68.8521 16.5686 68.6761 16.9439C68.5022 17.3171 68.2647 17.6003 67.9635 17.7932C67.6645 17.9841 67.3295 18.0795 66.9583 18.0795C66.6954 18.0795 66.4716 18.0361 66.2871 17.9491C66.1048 17.8622 65.9553 17.7529 65.8386 17.6215C65.722 17.4879 65.6329 17.3532 65.5714 17.2175H65.5301V19.8322H64.175ZM65.5014 15.557C65.5014 15.8475 65.5417 16.101 65.6223 16.3173C65.7029 16.5336 65.8195 16.7022 65.9722 16.823C66.1249 16.9418 66.3105 17.0012 66.5289 17.0012C66.7495 17.0012 66.9361 16.9407 67.0888 16.8199C67.2414 16.6969 67.357 16.5272 67.4355 16.3109C67.5161 16.0925 67.5564 15.8412 67.5564 15.557C67.5564 15.275 67.5171 15.0268 67.4387 14.8127C67.3602 14.5985 67.2446 14.4309 67.0919 14.3101C66.9392 14.1892 66.7516 14.1287 66.5289 14.1287C66.3084 14.1287 66.1217 14.1871 65.969 14.3037C65.8185 14.4203 65.7029 14.5857 65.6223 14.7999C65.5417 15.0141 65.5014 15.2665 65.5014 15.557ZM71.2368 18.0922C70.925 18.0922 70.6472 18.0382 70.4033 17.93C70.1595 17.8197 69.9665 17.6575 69.8244 17.4433C69.6844 17.227 69.6145 16.9577 69.6145 16.6354C69.6145 16.3639 69.6643 16.1359 69.764 15.9514C69.8636 15.767 69.9994 15.6185 70.1711 15.5061C70.3429 15.3937 70.538 15.3089 70.7564 15.2516C70.977 15.1944 71.2081 15.1541 71.4499 15.1308C71.7341 15.1011 71.9631 15.0735 72.137 15.048C72.3109 15.0205 72.437 14.9802 72.5155 14.9272C72.594 14.8742 72.6332 14.7957 72.6332 14.6918V14.6727C72.6332 14.4712 72.5696 14.3154 72.4423 14.2051C72.3172 14.0948 72.1391 14.0397 71.9079 14.0397C71.6641 14.0397 71.47 14.0938 71.3258 14.2019C71.1816 14.3079 71.0862 14.4415 71.0395 14.6027L69.7862 14.5009C69.8498 14.204 69.975 13.9474 70.1616 13.7311C70.3482 13.5127 70.5889 13.3452 70.8837 13.2285C71.1806 13.1098 71.5241 13.0504 71.9143 13.0504C72.1857 13.0504 72.4455 13.0822 72.6936 13.1458C72.9439 13.2094 73.1655 13.3081 73.3585 13.4417C73.5536 13.5753 73.7073 13.747 73.8197 13.957C73.9321 14.1648 73.9883 14.414 73.9883 14.7045V18H72.7032V17.3225H72.665C72.5866 17.4751 72.4816 17.6098 72.3501 17.7264C72.2186 17.841 72.0606 17.9311 71.8761 17.9968C71.6916 18.0604 71.4785 18.0922 71.2368 18.0922ZM71.6248 17.157C71.8242 17.157 72.0002 17.1178 72.1529 17.0393C72.3056 16.9588 72.4254 16.8506 72.5123 16.7149C72.5993 16.5792 72.6428 16.4254 72.6428 16.2536V15.7351C72.6003 15.7627 72.542 15.7882 72.4678 15.8115C72.3957 15.8327 72.314 15.8528 72.2229 15.8719C72.1317 15.8889 72.0405 15.9048 71.9493 15.9196C71.8581 15.9324 71.7754 15.944 71.7012 15.9546C71.5421 15.978 71.4032 16.0151 71.2845 16.066C71.1657 16.1169 71.0735 16.1858 71.0077 16.2727C70.942 16.3576 70.9091 16.4636 70.9091 16.5908C70.9091 16.7753 70.9759 16.9163 71.1095 17.0139C71.2452 17.1093 71.417 17.157 71.6248 17.157ZM77.2409 19.934C76.8019 19.934 76.4255 19.8736 76.1116 19.7527C75.7999 19.634 75.5518 19.4717 75.3673 19.266C75.1828 19.0603 75.0629 18.8292 75.0078 18.5726L76.2611 18.404C76.2993 18.5015 76.3597 18.5927 76.4424 18.6775C76.5251 18.7624 76.6344 18.8302 76.7701 18.8811C76.9079 18.9341 77.0755 18.9607 77.2727 18.9607C77.5674 18.9607 77.8103 18.8886 78.0011 18.7443C78.1941 18.6023 78.2906 18.3637 78.2906 18.0286V17.1348H78.2333C78.174 17.2705 78.0849 17.3988 77.9661 17.5197C77.8474 17.6405 77.6947 17.7392 77.5081 17.8155C77.3214 17.8918 77.0988 17.93 76.8401 17.93C76.4732 17.93 76.1392 17.8452 75.838 17.6755C75.539 17.5038 75.3005 17.2419 75.1223 16.8898C74.9463 16.5357 74.8583 16.0882 74.8583 15.5475C74.8583 14.994 74.9484 14.5317 75.1287 14.1606C75.3089 13.7894 75.5486 13.5116 75.8476 13.3271C76.1487 13.1426 76.4785 13.0504 76.8369 13.0504C77.1104 13.0504 77.3395 13.097 77.524 13.1904C77.7085 13.2815 77.8569 13.3961 77.9693 13.5339C78.0838 13.6696 78.1718 13.8032 78.2333 13.9347H78.2842V13.114H79.6298V18.0477C79.6298 18.4634 79.528 18.8112 79.3244 19.0911C79.1208 19.371 78.8388 19.5809 78.4783 19.7209C78.1199 19.863 77.7074 19.934 77.2409 19.934ZM77.2695 16.9121C77.4879 16.9121 77.6724 16.858 77.823 16.7499C77.9757 16.6396 78.0923 16.4827 78.1729 16.2791C78.2556 16.0734 78.2969 15.8274 78.2969 15.5411C78.2969 15.2548 78.2567 15.0067 78.1761 14.7968C78.0955 14.5847 77.9789 14.4203 77.8262 14.3037C77.6735 14.1871 77.4879 14.1287 77.2695 14.1287C77.0468 14.1287 76.8591 14.1892 76.7065 14.3101C76.5538 14.4288 76.4382 14.5942 76.3597 14.8063C76.2813 15.0184 76.242 15.2633 76.242 15.5411C76.242 15.8231 76.2813 16.067 76.3597 16.2727C76.4403 16.4763 76.5559 16.6343 76.7065 16.7467C76.8591 16.857 77.0468 16.9121 77.2695 16.9121ZM82.9348 18.0954C82.4322 18.0954 81.9996 17.9936 81.637 17.7901C81.2765 17.5844 80.9987 17.2938 80.8036 16.9185C80.6085 16.541 80.5109 16.0946 80.5109 15.5793C80.5109 15.0767 80.6085 14.6356 80.8036 14.256C80.9987 13.8764 81.2733 13.5806 81.6274 13.3685C81.9837 13.1564 82.4015 13.0504 82.8807 13.0504C83.2031 13.0504 83.5032 13.1023 83.781 13.2063C84.0609 13.3081 84.3048 13.4618 84.5126 13.6675C84.7225 13.8732 84.8858 14.1319 85.0025 14.4437C85.1191 14.7533 85.1774 15.1159 85.1774 15.5316V15.9037H81.0517V15.064H83.9018C83.9018 14.8689 83.8594 14.696 83.7746 14.5455C83.6898 14.3949 83.5721 14.2772 83.4215 14.1924C83.2731 14.1054 83.1002 14.0619 82.903 14.0619C82.6973 14.0619 82.5149 14.1097 82.3559 14.2051C82.199 14.2984 82.076 14.4246 81.9869 14.5836C81.8978 14.7406 81.8522 14.9155 81.8501 15.1085V15.9069C81.8501 16.1487 81.8946 16.3576 81.9837 16.5336C82.0749 16.7096 82.2032 16.8453 82.3686 16.9407C82.534 17.0362 82.7302 17.0839 82.9571 17.0839C83.1077 17.0839 83.2455 17.0627 83.3706 17.0203C83.4957 16.9778 83.6028 16.9142 83.6919 16.8294C83.781 16.7446 83.8488 16.6407 83.8955 16.5177L85.1488 16.6004C85.0852 16.9015 84.9547 17.1645 84.7575 17.3893C84.5624 17.6119 84.3101 17.7858 84.0005 17.9109C83.693 18.0339 83.3377 18.0954 82.9348 18.0954ZM86.8538 18.0827C86.6438 18.0827 86.4636 18.0085 86.313 17.86C86.1646 17.7095 86.0904 17.5292 86.0904 17.3193C86.0904 17.1114 86.1646 16.9333 86.313 16.7849C86.4636 16.6364 86.6438 16.5622 86.8538 16.5622C87.0574 16.5622 87.2355 16.6364 87.3882 16.7849C87.5409 16.9333 87.6172 17.1114 87.6172 17.3193C87.6172 17.4592 87.5812 17.5875 87.5091 17.7042C87.4391 17.8187 87.3468 17.9109 87.2323 17.9809C87.1178 18.0488 86.9916 18.0827 86.8538 18.0827Z" fill="#272727"/>
</svg>
