<svg width="362" height="441" viewBox="0 0 362 441" fill="none" xmlns="http://www.w3.org/2000/svg">
<path d="M90.6109 164.556H138.389C141.321 164.558 144.131 165.714 146.203 167.768C148.275 169.823 149.439 172.607 149.439 175.511V222.744L138.221 212.522H90.6333C89.1822 212.522 87.7453 212.239 86.4047 211.689C85.064 211.139 83.8459 210.333 82.8198 209.317C81.7937 208.3 80.9798 207.094 80.4245 205.766C79.8692 204.438 79.5834 203.015 79.5834 201.578V175.511C79.5833 172.611 80.7441 169.83 82.8112 167.776C84.8783 165.723 87.6831 164.564 90.6109 164.556Z" fill="white" stroke="black" stroke-miterlimit="10"/>
<path d="M125.432 189.411C125.432 190.352 125.714 191.271 126.241 192.053C126.769 192.835 127.519 193.445 128.396 193.805C129.273 194.165 130.239 194.259 131.17 194.075C132.102 193.892 132.957 193.439 133.629 192.774C134.3 192.109 134.757 191.261 134.943 190.339C135.128 189.416 135.033 188.46 134.669 187.591C134.306 186.722 133.691 185.98 132.901 185.457C132.111 184.934 131.183 184.656 130.234 184.656C128.96 184.656 127.739 185.157 126.838 186.048C125.938 186.94 125.432 188.15 125.432 189.411Z" fill="white" stroke="black" stroke-miterlimit="10"/>
<path d="M113.518 194.167C110.867 194.167 108.717 192.037 108.717 189.411C108.717 186.785 110.867 184.656 113.518 184.656C116.17 184.656 118.32 186.785 118.32 189.411C118.32 192.037 116.17 194.167 113.518 194.167Z" fill="white" stroke="black" stroke-miterlimit="10"/>
<path d="M92.0019 189.411C91.9997 190.355 92.2803 191.278 92.8083 192.064C93.3363 192.849 94.0878 193.462 94.9677 193.824C95.8475 194.186 96.816 194.281 97.7506 194.098C98.6852 193.914 99.5438 193.46 100.218 192.793C100.891 192.125 101.35 191.275 101.535 190.349C101.721 189.424 101.624 188.464 101.259 187.593C100.893 186.722 100.274 185.977 99.4813 185.454C98.6882 184.931 97.7561 184.653 96.8033 184.656C95.5299 184.656 94.3087 185.157 93.4082 186.048C92.5078 186.94 92.0019 188.15 92.0019 189.411Z" fill="white" stroke="black" stroke-miterlimit="10"/>
<path d="M59 291C26.9671 291 1 266.641 1 236.59C1 215.357 13.9495 196.959 32.8898 188" stroke="#C1C0FF" stroke-miterlimit="10" stroke-dasharray="4 4"/>
<path d="M234.4 300.83C237.85 332.41 214.09 360.91 181.33 364.5C148.57 368.09 119.22 345.39 115.79 313.81" stroke="#C1C0FF" stroke-miterlimit="10" stroke-dasharray="4 4"/>
<path d="M302.84 146.92C334.867 146.92 360.83 121.53 360.83 90.21C360.83 58.8899 334.867 33.5 302.84 33.5C270.813 33.5 244.85 58.8899 244.85 90.21C244.85 121.53 270.813 146.92 302.84 146.92Z" stroke="#C1C0FF" stroke-miterlimit="10" stroke-dasharray="4 4"/>
<path d="M79.63 346.25L82.54 349.16C84.089 347.611 86.1897 346.742 88.38 346.742C90.5703 346.742 92.671 347.611 94.22 349.16L97.12 346.25C94.8003 343.931 91.6548 342.629 88.375 342.629C85.0952 342.629 81.9497 343.931 79.63 346.25Z" fill="#672ED6"/>
<path d="M74.79 341.44L77.69 344.34C80.5191 341.517 84.3529 339.931 88.35 339.931C92.3471 339.931 96.1809 341.517 99.01 344.34L101.91 341.44C100.13 339.659 98.0158 338.246 95.6891 337.281C93.3625 336.317 90.8686 335.821 88.35 335.821C85.8314 335.821 83.3376 336.317 81.0109 337.281C78.6842 338.246 76.5703 339.659 74.79 341.44Z" fill="#672ED6"/>
<path d="M88.38 329C84.9647 328.992 81.5818 329.661 78.4268 330.969C75.2719 332.277 72.4077 334.198 70 336.62L72.9 339.52C74.9341 337.482 77.3502 335.865 80.0099 334.762C82.6695 333.659 85.5206 333.091 88.4 333.091C91.2794 333.091 94.1305 333.659 96.7902 334.762C99.4498 335.865 101.866 337.482 103.9 339.52L106.8 336.62C104.388 334.193 101.517 332.27 98.3547 330.962C95.1926 329.654 91.802 328.987 88.38 329Z" fill="#672ED6"/>
<path d="M88.38 349.16C87.6849 349.158 87.0049 349.363 86.4262 349.748C85.8474 350.132 85.396 350.681 85.1291 351.322C84.8622 351.964 84.7918 352.671 84.9269 353.352C85.0621 354.034 85.3966 354.661 85.8881 355.152C86.3795 355.644 87.0059 355.978 87.6877 356.113C88.3695 356.248 89.0761 356.178 89.7178 355.911C90.3596 355.644 90.9077 355.193 91.2926 354.614C91.6775 354.035 91.882 353.355 91.88 352.66C91.8773 351.733 91.5077 350.844 90.8519 350.188C90.1961 349.532 89.3074 349.163 88.38 349.16Z" fill="#672ED6"/>
<path d="M332.1 285.19V294.18" stroke="#672ED6" stroke-width="0.75" stroke-linecap="round" stroke-linejoin="round"/>
<path d="M327.61 289.68H336.6" stroke="#672ED6" stroke-width="0.75" stroke-linecap="round" stroke-linejoin="round"/>
<path d="M84.19 430.68V439.67" stroke="#DB7294" stroke-width="0.75" stroke-linecap="round" stroke-linejoin="round"/>
<path d="M79.69 435.18H88.69" stroke="#DB7294" stroke-width="0.75" stroke-linecap="round" stroke-linejoin="round"/>
<path d="M201.46 159.18V168.18" stroke="#DB7294" stroke-width="0.75" stroke-linecap="round" stroke-linejoin="round"/>
<path d="M196.97 163.68H205.96" stroke="#DB7294" stroke-width="0.75" stroke-linecap="round" stroke-linejoin="round"/>
<path d="M16.5 124.24V133.24" stroke="#672ED6" stroke-width="0.75" stroke-linecap="round" stroke-linejoin="round"/>
<path d="M12 128.74H20.99" stroke="#672ED6" stroke-width="0.75" stroke-linecap="round" stroke-linejoin="round"/>
<path d="M62.8 277.49V286.48" stroke="#EEDA36" stroke-width="0.75" stroke-linecap="round" stroke-linejoin="round"/>
<path d="M58.3 281.99H67.3" stroke="#EEDA36" stroke-width="0.75" stroke-linecap="round" stroke-linejoin="round"/>
<path d="M243.81 392.26V401.25" stroke="#EEDA36" stroke-width="0.75" stroke-linecap="round" stroke-linejoin="round"/>
<path d="M239.31 396.76H248.3" stroke="#EEDA36" stroke-width="0.75" stroke-linecap="round" stroke-linejoin="round"/>
<path d="M160.7 165.19C162.407 165.19 163.79 163.807 163.79 162.1C163.79 160.393 162.407 159.01 160.7 159.01C158.993 159.01 157.61 160.393 157.61 162.1C157.61 163.807 158.993 165.19 160.7 165.19Z" stroke="#EEDA36" stroke-width="0.75" stroke-linecap="round" stroke-linejoin="round"/>
<path d="M269.46 172.92C275.237 172.92 279.92 168.237 279.92 162.46C279.92 156.683 275.237 152 269.46 152C263.683 152 259 156.683 259 162.46C259 168.237 263.683 172.92 269.46 172.92Z" fill="#E4B0C8"/>
<path d="M275.74 158.04H263.48V167.25H275.74V158.04Z" stroke="white" stroke-miterlimit="10"/>
<path d="M263.48 158.04L269.61 163.7L275.74 158.04" stroke="white" stroke-miterlimit="10"/>
<path d="M84.19 245.13L87.01 250.02L89.84 254.91H84.19H78.54L81.37 250.02L84.19 245.13Z" fill="#D96980"/>
<path d="M328.01 388.35L334.45 394L340.9 399.66L332.78 402.42L324.65 405.17L326.33 396.76L328.01 388.35Z" stroke="#D96980" stroke-miterlimit="10"/>
<path d="M148.39 413.66C148.392 414.577 148.122 415.473 147.614 416.236C147.106 416.999 146.383 417.594 145.536 417.946C144.69 418.297 143.758 418.39 142.859 418.212C141.96 418.033 141.134 417.592 140.486 416.944C139.838 416.296 139.397 415.47 139.219 414.571C139.04 413.672 139.133 412.74 139.484 411.894C139.836 411.047 140.431 410.324 141.194 409.816C141.957 409.308 142.853 409.038 143.77 409.04C144.995 409.04 146.17 409.527 147.037 410.393C147.903 411.26 148.39 412.435 148.39 413.66Z" stroke="#D96980" stroke-miterlimit="10"/>
<path d="M314.16 113.52C314.16 114.81 313.778 116.07 313.061 117.142C312.345 118.215 311.326 119.05 310.135 119.544C308.944 120.037 307.633 120.166 306.368 119.915C305.103 119.663 303.941 119.042 303.03 118.13C302.118 117.218 301.497 116.057 301.245 114.792C300.994 113.527 301.123 112.216 301.616 111.025C302.11 109.834 302.945 108.815 304.018 108.099C305.09 107.382 306.35 107 307.64 107C309.369 107 311.028 107.687 312.25 108.91C313.473 110.132 314.16 111.791 314.16 113.52Z" stroke="#D96980" stroke-miterlimit="10"/>
<path d="M184.95 289.19C184.95 290.011 184.706 290.814 184.25 291.497C183.793 292.179 183.145 292.711 182.386 293.025C181.627 293.339 180.792 293.421 179.987 293.26C179.181 293.099 178.442 292.702 177.862 292.121C177.282 291.54 176.888 290.799 176.729 289.994C176.57 289.188 176.653 288.353 176.969 287.595C177.284 286.837 177.818 286.189 178.502 285.735C179.185 285.28 179.989 285.038 180.81 285.04C181.355 285.04 181.894 285.147 182.397 285.356C182.9 285.565 183.356 285.871 183.741 286.256C184.126 286.642 184.43 287.099 184.638 287.603C184.845 288.106 184.951 288.646 184.95 289.19Z" fill="#D96980"/>
<path d="M318.3 434.61C318.302 435.432 318.06 436.235 317.605 436.919C317.15 437.603 316.501 438.137 315.743 438.452C314.984 438.767 314.149 438.85 313.343 438.691C312.537 438.531 311.796 438.135 311.215 437.554C310.634 436.973 310.239 436.233 310.079 435.427C309.919 434.621 310.002 433.786 310.318 433.027C310.633 432.268 311.167 431.62 311.851 431.165C312.535 430.71 313.338 430.468 314.16 430.47C315.258 430.47 316.311 430.906 317.087 431.683C317.864 432.459 318.3 433.512 318.3 434.61Z" fill="#D96980"/>
<path d="M193.75 373.44C193.75 373.931 193.604 374.411 193.331 374.819C193.058 375.227 192.67 375.545 192.217 375.732C191.763 375.92 191.264 375.968 190.782 375.872C190.301 375.775 189.859 375.538 189.513 375.19C189.166 374.842 188.931 374.399 188.836 373.918C188.742 373.436 188.792 372.937 188.982 372.484C189.171 372.031 189.49 371.644 189.899 371.373C190.309 371.102 190.789 370.958 191.28 370.96C191.936 370.963 192.564 371.225 193.027 371.69C193.49 372.155 193.75 372.784 193.75 373.44Z" fill="#E4B0C8"/>
<path d="M290.6 420.09C290.6 421.079 290.307 422.046 289.757 422.868C289.208 423.69 288.427 424.331 287.513 424.709C286.6 425.088 285.594 425.187 284.625 424.994C283.655 424.801 282.764 424.325 282.064 423.626C281.365 422.926 280.889 422.035 280.696 421.065C280.503 420.096 280.602 419.09 280.981 418.177C281.359 417.263 282 416.482 282.822 415.933C283.644 415.383 284.611 415.09 285.6 415.09C286.926 415.09 288.198 415.617 289.136 416.555C290.073 417.492 290.6 418.764 290.6 420.09Z" stroke="#672ED6" stroke-miterlimit="10"/>
<path d="M231.45 116.04C231.45 116.04 239.75 115.22 241.92 120.47C244.09 125.72 244.92 130.78 257.99 124.33" stroke="#EEDA36" stroke-miterlimit="10"/>
<path d="M271.45 234.43C271.45 235.172 271.23 235.897 270.818 236.513C270.406 237.13 269.82 237.611 269.135 237.894C268.45 238.178 267.696 238.253 266.968 238.108C266.241 237.963 265.573 237.606 265.048 237.082C264.524 236.557 264.167 235.889 264.022 235.162C263.877 234.434 263.952 233.68 264.235 232.995C264.519 232.31 265 231.724 265.617 231.312C266.233 230.9 266.958 230.68 267.7 230.68C268.695 230.68 269.648 231.075 270.352 231.778C271.055 232.482 271.45 233.435 271.45 234.43Z" fill="#EEDA36"/>
<path d="M72.5791 119.067C74.6425 117.483 75.0313 114.526 73.4474 112.463C71.8634 110.399 68.9067 110.01 66.8432 111.594C64.7798 113.178 64.391 116.135 65.975 118.198C67.5589 120.262 70.5157 120.651 72.5791 119.067Z" stroke="#D7D4FC" stroke-miterlimit="10"/>
<g clip-path="url(#clip0_17_281)">
<path d="M267.33 15.7H221.18C218.347 15.7 215.631 16.8252 213.628 18.8281C211.625 20.831 210.5 23.5475 210.5 26.38V72.46L221.36 62.46H267.36C270.193 62.46 272.909 61.3348 274.912 59.3319C276.915 57.329 278.04 54.6125 278.04 51.78V26.38C278.04 24.9749 277.763 23.5837 277.224 22.286C276.686 20.9883 275.896 19.8096 274.901 18.8175C273.906 17.8253 272.725 17.0393 271.426 16.5043C270.127 15.9694 268.735 15.696 267.33 15.7Z" fill="white" stroke="black" stroke-miterlimit="10"/>
<path d="M233.69 39.9501C233.69 40.8678 233.418 41.7648 232.908 42.5279C232.398 43.2909 231.673 43.8857 230.826 44.2368C229.978 44.588 229.045 44.6799 228.145 44.5009C227.245 44.3219 226.418 43.8799 225.769 43.231C225.12 42.5821 224.678 41.7553 224.499 40.8553C224.32 39.9552 224.412 39.0223 224.763 38.1744C225.114 37.3266 225.709 36.6019 226.472 36.092C227.235 35.5822 228.132 35.3101 229.05 35.3101C230.281 35.3101 231.461 35.7989 232.331 36.6691C233.201 37.5393 233.69 38.7195 233.69 39.9501Z" fill="white" stroke="black" stroke-miterlimit="10"/>
<path d="M249.84 39.9501C249.84 40.8678 249.568 41.7648 249.058 42.5279C248.548 43.2909 247.823 43.8857 246.976 44.2368C246.128 44.588 245.195 44.6799 244.295 44.5009C243.395 44.3219 242.568 43.8799 241.919 43.231C241.27 42.5821 240.828 41.7553 240.649 40.8553C240.47 39.9552 240.562 39.0223 240.913 38.1744C241.264 37.3266 241.859 36.6019 242.622 36.092C243.385 35.5822 244.282 35.3101 245.2 35.3101C246.431 35.3101 247.611 35.7989 248.481 36.6691C249.351 37.5393 249.84 38.7195 249.84 39.9501Z" fill="white" stroke="black" stroke-miterlimit="10"/>
<path d="M265.99 39.9501C265.99 40.8678 265.718 41.7648 265.208 42.5279C264.698 43.2909 263.973 43.8857 263.126 44.2368C262.278 44.588 261.345 44.6799 260.445 44.5009C259.545 44.3219 258.718 43.8799 258.069 43.231C257.42 42.5821 256.978 41.7553 256.799 40.8553C256.62 39.9552 256.712 39.0223 257.063 38.1744C257.414 37.3266 258.009 36.6019 258.772 36.092C259.535 35.5822 260.432 35.3101 261.35 35.3101C262.581 35.3101 263.761 35.7989 264.631 36.6691C265.501 37.5393 265.99 38.7195 265.99 39.9501Z" fill="white" stroke="black" stroke-miterlimit="10"/>
<path d="M280.63 0.500042H234.48C233.077 0.500042 231.689 0.776295 230.393 1.31302C229.097 1.84974 227.92 2.63643 226.928 3.62815C225.936 4.61988 225.15 5.79723 224.613 7.09298C224.076 8.38874 223.8 9.77753 223.8 11.18V57.2601L234.66 47.2601H280.66C283.493 47.2601 286.209 46.1348 288.212 44.132C290.215 42.1291 291.34 39.4126 291.34 36.58V11.18C291.34 9.775 291.063 8.38377 290.524 7.08606C289.986 5.78834 289.196 4.60964 288.201 3.61752C287.206 2.6254 286.026 1.83935 284.726 1.30439C283.427 0.769441 282.035 0.496095 280.63 0.500042Z" fill="white" stroke="black" stroke-miterlimit="10"/>
<path d="M246.99 24.75C246.99 25.6677 246.718 26.5648 246.208 27.3278C245.698 28.0909 244.973 28.6856 244.126 29.0368C243.278 29.388 242.345 29.4799 241.445 29.3008C240.545 29.1218 239.718 28.6799 239.069 28.031C238.42 27.382 237.978 26.5553 237.799 25.6552C237.62 24.7551 237.712 23.8222 238.063 22.9743C238.414 22.1265 239.009 21.4018 239.772 20.892C240.535 20.3821 241.432 20.11 242.35 20.11C243.581 20.11 244.761 20.5988 245.631 21.469C246.501 22.3392 246.99 23.5194 246.99 24.75Z" fill="white" stroke="black" stroke-miterlimit="10"/>
<path d="M263.14 24.75C263.14 25.6677 262.868 26.5648 262.358 27.3278C261.848 28.0909 261.124 28.6856 260.276 29.0368C259.428 29.388 258.495 29.4799 257.595 29.3008C256.695 29.1218 255.868 28.6799 255.219 28.031C254.57 27.382 254.128 26.5553 253.949 25.6552C253.77 24.7551 253.862 23.8222 254.213 22.9743C254.564 22.1265 255.159 21.4018 255.922 20.892C256.685 20.3821 257.582 20.11 258.5 20.11C259.731 20.11 260.911 20.5988 261.781 21.469C262.651 22.3392 263.14 23.5194 263.14 24.75Z" fill="white" stroke="black" stroke-miterlimit="10"/>
<path d="M279.29 24.75C279.282 25.6651 279.004 26.5574 278.49 27.3148C277.976 28.0721 277.25 28.6606 276.403 29.0063C275.555 29.3519 274.625 29.4393 273.728 29.2574C272.831 29.0754 272.008 28.6324 271.362 27.9839C270.716 27.3354 270.277 26.5105 270.099 25.6128C269.921 24.7152 270.012 23.7849 270.361 22.939C270.711 22.0932 271.302 21.3695 272.062 20.859C272.821 20.3485 273.715 20.074 274.63 20.07C275.244 20.0673 275.853 20.1867 276.421 20.4212C276.989 20.6557 277.505 21.0006 277.938 21.436C278.372 21.8714 278.714 22.3885 278.946 22.9574C279.179 23.5263 279.295 24.1356 279.29 24.75Z" fill="white" stroke="black" stroke-miterlimit="10"/>
</g>
<path d="M124.479 124.607C124.481 125.246 124.285 125.87 123.92 126.394C123.554 126.918 123.036 127.317 122.436 127.536C121.835 127.755 121.182 127.784 120.565 127.619C119.948 127.454 119.396 127.103 118.985 126.613C118.575 126.124 118.325 125.519 118.27 124.883C118.214 124.246 118.357 123.608 118.677 123.055C118.997 122.502 119.48 122.061 120.06 121.792C120.639 121.523 121.288 121.44 121.917 121.552C122.631 121.687 123.277 122.065 123.744 122.621C124.211 123.178 124.471 123.88 124.479 124.607C124.501 124.777 124.584 124.934 124.713 125.047C124.841 125.161 125.007 125.223 125.179 125.223C125.35 125.223 125.516 125.161 125.645 125.047C125.773 124.934 125.856 124.777 125.878 124.607C125.868 123.687 125.581 122.791 125.054 122.036C124.527 121.282 123.785 120.704 122.924 120.377C122.054 120.055 121.105 120.011 120.209 120.252C119.313 120.492 118.514 121.005 117.922 121.72C117.474 122.274 117.165 122.928 117.02 123.626C116.875 124.324 116.9 125.047 117.091 125.734C117.282 126.421 117.634 127.052 118.119 127.575C118.603 128.098 119.206 128.498 119.876 128.741C120.546 128.985 121.265 129.064 121.972 128.973C122.679 128.883 123.355 128.624 123.942 128.22C124.529 127.815 125.011 127.277 125.348 126.648C125.685 126.02 125.866 125.32 125.878 124.607C125.856 124.437 125.773 124.28 125.645 124.167C125.516 124.053 125.35 123.991 125.179 123.991C125.007 123.991 124.841 124.053 124.713 124.167C124.584 124.28 124.501 124.437 124.479 124.607Z" fill="black"/>
<path d="M54.8703 111.079C54.8703 111.079 66.8541 97.025 86.3236 93.4108C105.793 89.7966 144.788 90.1659 165.891 118.027C186.994 145.889 176.275 109.96 129.28 129.541C101.306 126.744 104.517 129.172 101.306 126.744C98.0948 124.316 63.419 129.485 54.8703 111.079Z" fill="#672ED6" stroke="black" stroke-width="0.91" stroke-miterlimit="10"/>
<path d="M127.51 99.6017C127.51 99.6017 157.646 111.291 150.587 122.769C143.529 134.246 105.664 135.307 79.5554 122.769C49.0957 108.151 76.2219 105.531 85.6966 91.4974L127.51 99.6017Z" fill="#672ED6" stroke="black" stroke-width="0.91" stroke-miterlimit="10"/>
<path d="M79.1288 114.492C79.1288 115.922 79.5531 117.32 80.3478 118.509C81.1426 119.698 82.2721 120.624 83.5936 121.171C84.915 121.718 86.369 121.86 87.7714 121.58C89.1739 121.301 90.4618 120.611 91.4723 119.599C92.4827 118.587 93.1703 117.298 93.4479 115.895C93.7256 114.492 93.5808 113.038 93.032 111.718C92.4832 110.397 91.555 109.269 90.3649 108.476C89.1747 107.683 87.7761 107.261 86.346 107.263C85.3973 107.263 84.4578 107.45 83.5815 107.814C82.7051 108.177 81.909 108.71 81.2387 109.381C80.5684 110.053 80.037 110.85 79.675 111.726C79.3129 112.603 79.1274 113.543 79.1288 114.492Z" fill="white"/>
<path fill-rule="evenodd" clip-rule="evenodd" d="M60.23 37.3074H182.127C187.027 37.3074 191 41.28 191 46.1805V124.629C191 129.53 187.027 133.502 182.127 133.502H60.23C55.3295 133.502 51.3568 129.53 51.3568 124.629V46.1805C51.3568 41.28 55.3295 37.3074 60.23 37.3074ZM69.4724 42.9021H172.884C177.785 42.9021 181.758 46.8747 181.758 51.7752V107.364C181.758 112.264 177.785 116.237 172.884 116.237H69.4724C64.5719 116.237 60.5992 112.264 60.5992 107.364V51.7752C60.5992 46.8747 64.5719 42.9021 69.4724 42.9021Z" fill="#B4AAF9"/>
<path d="M132.424 96.5107C133.352 87.4615 122.761 78.9636 108.769 77.53C94.7771 76.0964 82.6829 82.2701 81.7558 91.3193C80.8286 100.368 91.4195 108.866 105.411 110.3C119.403 111.733 131.497 105.56 132.424 96.5107Z" fill="#672ED6" stroke="black" stroke-width="0.97" stroke-miterlimit="10"/>
<path d="M93.675 68.8615C93.655 70.1934 94.0317 71.5012 94.7571 72.6185C95.4826 73.7357 96.524 74.6118 97.7488 75.1354C98.9737 75.6591 100.327 75.8064 101.636 75.5589C102.944 75.3113 104.15 74.68 105.099 73.7452C106.048 72.8104 106.698 71.6145 106.965 70.3095C107.232 69.0045 107.105 67.6495 106.6 66.4168C106.095 65.1842 105.235 64.1297 104.129 63.3874C103.023 62.6452 101.721 62.2488 100.389 62.2486C99.513 62.2398 98.6442 62.404 97.8322 62.732C97.0203 63.0599 96.2811 63.5451 95.6573 64.1596C95.0334 64.7741 94.5371 65.5059 94.1969 66.3128C93.8567 67.1197 93.6794 67.9858 93.675 68.8615V68.8615Z" stroke="black" stroke-width="1.88" stroke-miterlimit="10"/>
<path d="M122.767 48.3401H114.398C108.803 48.3401 104.271 53.5208 104.271 59.8651V72.8448C104.271 73.2141 104.271 73.5721 104.271 73.9637C104.178 74.356 104.129 74.7577 104.126 75.161V91.408C104.132 92.791 104.685 94.1155 105.664 95.0924C106.643 96.0693 107.968 96.6193 109.351 96.6222H112.708C114.091 96.6193 115.417 96.0693 116.396 95.0924C117.375 94.1155 117.928 92.791 117.934 91.408V84.4034H122.767C128.362 84.4034 132.894 79.2115 132.894 72.8672V59.8875C132.838 53.5208 128.284 48.3401 122.767 48.3401Z" fill="white" stroke="black" stroke-width="0.94" stroke-miterlimit="10"/>
<path d="M116.054 64.1059C116.054 64.4799 116.165 64.8456 116.372 65.1565C116.58 65.4675 116.876 65.7099 117.221 65.853C117.567 65.9961 117.947 66.0336 118.314 65.9606C118.68 65.8876 119.017 65.7076 119.282 65.4431C119.546 65.1786 119.726 64.8417 119.799 64.4749C119.872 64.108 119.835 63.7278 119.692 63.3823C119.549 63.0368 119.306 62.7414 118.995 62.5336C118.684 62.3258 118.319 62.215 117.945 62.215C117.443 62.215 116.962 62.4142 116.608 62.7688C116.253 63.1234 116.054 63.6044 116.054 64.1059Z" fill="#0C0C0C"/>
<path d="M128.44 63.8262C128.44 64.1449 128.535 64.4564 128.712 64.7214C128.889 64.9864 129.141 65.1929 129.435 65.3149C129.729 65.4368 130.053 65.4687 130.366 65.4065C130.678 65.3444 130.966 65.1909 131.191 64.9656C131.416 64.7402 131.57 64.4531 131.632 64.1406C131.694 63.828 131.662 63.504 131.54 63.2096C131.418 62.9152 131.212 62.6636 130.947 62.4865C130.682 62.3095 130.37 62.215 130.052 62.215C129.624 62.215 129.214 62.3847 128.912 62.6869C128.61 62.9891 128.44 63.3989 128.44 63.8262Z" fill="#0C0C0C"/>
<path d="M126.639 71.558C126.639 71.558 125.688 74.3218 123.685 74.512C121.682 74.7022 120.104 72.4756 119.992 70.7412L126.639 71.558Z" fill="#FFF7F7"/>
<path d="M126.124 71.4015C126.103 71.4704 126.077 71.5377 126.046 71.6029L125.99 71.7371L125.833 72.0616C125.588 72.5549 125.254 72.9987 124.849 73.3708C124.635 73.5793 124.377 73.737 124.094 73.8319C123.812 73.9269 123.511 73.9566 123.215 73.9191C122.547 73.7811 121.952 73.4078 121.536 72.8673C121.032 72.2642 120.72 71.5236 120.641 70.7413L120.048 71.3343L125.867 72.0393L126.695 72.14C127.008 72.14 127.277 71.849 127.277 71.5581C127.271 71.4044 127.209 71.2584 127.101 71.1486C126.993 71.0388 126.848 70.9734 126.695 70.9651L120.876 70.2601L120.048 70.1594C119.894 70.1594 119.746 70.2207 119.637 70.3299C119.528 70.439 119.466 70.587 119.466 70.7413C119.525 71.6686 119.849 72.5596 120.398 73.3091C120.947 74.0586 121.699 74.6352 122.566 74.9709C123.37 75.157 124.215 75.062 124.958 74.7017C125.701 74.3413 126.298 73.7374 126.65 72.9903C126.898 72.5869 127.104 72.1596 127.265 71.7148C127.456 70.9763 126.314 70.6853 126.124 71.4015Z" fill="#0C0C0C"/>
<path d="M109.519 71.0547C109.519 71.9846 109.795 72.8936 110.312 73.6667C110.829 74.4398 111.563 75.0421 112.423 75.3975C113.282 75.7529 114.228 75.8453 115.14 75.663C116.052 75.4808 116.889 75.0321 117.546 74.3737C118.202 73.7154 118.649 72.877 118.829 71.9646C119.009 71.0523 118.915 70.107 118.557 69.2484C118.2 68.3899 117.596 67.6567 116.821 67.1417C116.047 66.6267 115.137 66.3529 114.207 66.3551C112.963 66.3581 111.771 66.8545 110.892 67.7355C110.013 68.6165 109.519 69.8102 109.519 71.0547Z" fill="#E4B0C8"/>
<path d="M131.585 67.8657C131.863 67.8709 132.141 67.9047 132.413 67.9664V72.8338C132.427 73.5467 132.367 74.2592 132.233 74.9598C132.018 74.99 131.802 75.0087 131.585 75.0157C130.671 74.9646 129.812 74.5657 129.183 73.9008C128.554 73.236 128.204 72.3557 128.204 71.4407C128.204 70.5257 128.554 69.6455 129.183 68.9806C129.812 68.3158 130.671 67.9169 131.585 67.8657Z" fill="#E4B0C8"/>
<path d="M124.524 62.215L124.132 68.6488L127.198 66.7802L124.524 62.215Z" fill="#DB7294"/>
<path d="M106.408 68.6489L107.953 58.4777C107.953 58.4777 136.094 62.0024 145.213 48.3402C154.333 34.678 144.754 29.3183 140.111 30.0344C135.467 30.7505 130.04 37.453 130.04 37.453C130.04 37.453 134.359 31.5785 130.04 30.6498C125.721 29.7211 120.955 34.208 118.471 38.8404C118.471 38.8404 99.9187 37.1173 93.6526 48.3402C87.3866 59.5631 92.4666 67.5188 103.936 79.1221L104.697 72.6323L106.408 68.6489Z" fill="black"/>
<path d="M93.675 68.8615C93.655 70.1934 94.0317 71.5012 94.7571 72.6185C95.4826 73.7357 96.524 74.6118 97.7488 75.1354C98.9737 75.6591 100.327 75.8064 101.636 75.5589C102.944 75.3113 104.15 74.68 105.099 73.7452C106.048 72.8104 106.698 71.6145 106.965 70.3095C107.232 69.0045 107.105 67.6495 106.6 66.4168C106.095 65.1842 105.235 64.1297 104.129 63.3874C103.023 62.6452 101.721 62.2488 100.389 62.2486C99.513 62.2398 98.6442 62.404 97.8322 62.732C97.0203 63.0599 96.2811 63.5451 95.6573 64.1596C95.0334 64.7741 94.5371 65.5059 94.1969 66.3128C93.8567 67.1197 93.6794 67.9858 93.675 68.8615Z" fill="white"/>
<path d="M104.663 69.7343C104.688 69.1521 104.616 68.5698 104.45 68.0111C104.311 67.4512 104.051 66.9282 103.69 66.4781C103.329 66.0281 102.874 65.6616 102.358 65.404C101.495 65.0345 100.549 64.8994 99.6165 65.0124C99.4263 65.0206 99.246 65.0998 99.1113 65.2345C98.9767 65.3691 98.8974 65.5494 98.8892 65.7397C98.8892 66.0977 99.2137 66.5117 99.6165 66.467C100.014 66.4222 100.416 66.4222 100.814 66.467H100.937C100.937 66.467 100.78 66.467 100.937 66.467H101.161C101.317 66.467 101.463 66.5565 101.619 66.6012C101.776 66.646 101.496 66.5453 101.619 66.6012L101.798 66.6908C101.908 66.7746 102.024 66.8494 102.145 66.9145C102.145 66.9145 102 66.7914 102.089 66.9145L102.168 66.9705L102.291 67.0936C102.369 67.1719 102.447 67.3061 102.548 67.3621C102.425 67.295 102.459 67.2502 102.548 67.3621V67.4181L102.638 67.5523C102.705 67.653 102.761 67.7537 102.817 67.8544L102.884 68.0111C102.884 68.0894 102.806 67.8321 102.884 67.944V68.0111C102.884 68.123 102.962 68.2349 102.996 68.3356C103.047 68.5234 103.089 68.7139 103.119 68.9062C103.125 68.947 103.125 68.9885 103.119 69.0293C103.119 69.186 103.119 68.8167 103.119 68.9734C103.113 69.0516 103.113 69.1301 103.119 69.2084C103.13 69.3835 103.13 69.5591 103.119 69.7343C103.119 69.9252 103.194 70.1086 103.328 70.2446C103.462 70.3807 103.644 70.4586 103.835 70.4616C104.026 70.4559 104.208 70.3775 104.343 70.2423C104.478 70.1071 104.557 69.9254 104.562 69.7343H104.663Z" fill="#020202"/>
<path d="M118.482 38.8406C118.482 38.8406 99.941 57.9967 92.2539 63.8264C92.2539 63.8264 82.2618 41.7051 87.9348 35.5285C92.4777 30.5828 114.677 33.4809 118.482 38.8406Z" fill="#EEDA36" stroke="black" stroke-width="0.94" stroke-miterlimit="10"/>
<path d="M112.361 35.2374L89.7475 57.5154" stroke="black" stroke-width="0.94" stroke-miterlimit="10"/>
<path d="M123.64 86.4625L126.661 97.6519L103.745 104.936L102.626 100.248L94.1673 95.2238L97.6696 85.7576L107.684 93.5901L108.344 94.1384C108.344 94.1384 108.713 94.765 110.582 93.7356L123.64 86.4625Z" fill="#672ED6"/>
<path d="M124.524 85.9812L102.705 97.9874L102.571 100.841" stroke="black" stroke-width="0.94" stroke-miterlimit="10"/>
<path d="M97.0989 85.7239L109.004 94.5299" stroke="black" stroke-width="0.94" stroke-miterlimit="10"/>
<path d="M97.0989 98.8043C97.0989 98.8043 81.6576 109.043 71.1172 104.936" stroke="black" stroke-width="0.94" stroke-miterlimit="10"/>
<path d="M96.7185 100.427C97.6702 100.427 98.4417 99.6553 98.4417 98.7036C98.4417 97.752 97.6702 96.9805 96.7185 96.9805C95.7668 96.9805 94.9953 97.752 94.9953 98.7036C94.9953 99.6553 95.7668 100.427 96.7185 100.427Z" stroke="black" stroke-width="0.94" stroke-miterlimit="10"/>
<path d="M116.445 102.62C116.443 102.972 116.546 103.317 116.74 103.611C116.934 103.905 117.211 104.135 117.536 104.271C117.861 104.408 118.219 104.445 118.565 104.377C118.91 104.31 119.229 104.141 119.478 103.893C119.728 103.645 119.899 103.328 119.969 102.982C120.038 102.637 120.004 102.279 119.869 101.953C119.735 101.627 119.507 101.349 119.214 101.153C118.921 100.957 118.577 100.852 118.224 100.852C117.755 100.852 117.304 101.038 116.97 101.369C116.637 101.7 116.448 102.15 116.445 102.62V102.62Z" stroke="black" stroke-width="0.94" stroke-miterlimit="10"/>
<path d="M118.224 102.62C118.224 102.62 124.524 120.802 135.523 126.117" stroke="black" stroke-width="0.94" stroke-miterlimit="10"/>
<path d="M176.328 210.189H304.355C309.507 210.189 313.683 214.365 313.683 219.517V301.912C313.683 307.063 309.507 311.24 304.355 311.24H176.328C171.176 311.24 167 307.063 167 301.912V219.517C167 214.365 171.176 210.189 176.328 210.189Z" fill="#B4AAF9"/>
<path d="M236.755 301.902C236.757 302.593 236.973 303.267 237.371 303.833C237.77 304.398 238.332 304.827 238.983 305.062C239.633 305.296 240.341 305.325 241.008 305.145C241.676 304.964 242.272 304.582 242.715 304.051C243.158 303.521 243.428 302.866 243.487 302.177C243.546 301.488 243.391 300.798 243.045 300.199C242.698 299.601 242.176 299.123 241.548 298.832C240.921 298.54 240.22 298.449 239.539 298.569C238.759 298.714 238.054 299.125 237.546 299.734C237.038 300.342 236.758 301.109 236.755 301.902C236.736 302.053 236.662 302.193 236.547 302.294C236.432 302.395 236.285 302.451 236.132 302.451C235.979 302.451 235.831 302.395 235.716 302.294C235.601 302.193 235.527 302.053 235.508 301.902C235.516 300.962 235.805 300.046 236.339 299.272C236.872 298.499 237.625 297.903 238.501 297.562C239.422 297.215 240.429 297.172 241.376 297.438C242.323 297.704 243.161 298.266 243.766 299.041C244.372 299.816 244.715 300.764 244.744 301.747C244.773 302.731 244.488 303.698 243.93 304.508C243.371 305.317 242.569 305.928 241.639 306.25C240.709 306.572 239.701 306.589 238.762 306.298C237.822 306.007 236.999 305.424 236.414 304.633C235.829 303.842 235.511 302.885 235.508 301.902C235.527 301.75 235.601 301.61 235.716 301.509C235.831 301.408 235.979 301.352 236.132 301.352C236.285 301.352 236.432 301.408 236.547 301.509C236.662 301.61 236.736 301.75 236.755 301.902Z" fill="black"/>
<path d="M186.035 216.075H294.648C299.8 216.075 303.976 220.251 303.976 225.403V283.775C303.976 288.926 299.8 293.103 294.648 293.103H186.035C180.883 293.103 176.707 288.926 176.707 283.775V225.403C176.707 220.251 180.883 216.075 186.035 216.075Z" fill="white"/>
<path d="M243.05 260.11C243.05 260.11 223.915 269.269 216.752 255.861C209.589 242.452 221.012 225.931 230.3 223.587C239.588 221.242 246.911 247.49 243.05 260.11Z" fill="black"/>
<path d="M251.301 261.168C251.301 261.168 259.641 267.413 272.391 262.635C285.141 257.856 277.309 234.471 272.391 227.308C267.472 220.145 256.429 215.746 251.54 218.01C246.652 220.275 242.581 246.523 251.301 261.168Z" fill="black"/>
<path d="M269.11 221.251C266.104 217.183 266.965 211.448 271.033 208.442C275.101 205.437 280.836 206.298 283.841 210.366C286.847 214.434 285.986 220.168 281.918 223.174C277.85 226.18 272.116 225.319 269.11 221.251Z" fill="black"/>
<path d="M222.818 241.863C222.818 241.863 225.891 234.88 228.485 235.279C231.079 235.678 230.34 240.267 229.991 242.751C229.642 245.236 228.425 248.378 231.158 251.271C233.892 254.164 220.424 249.835 222.818 241.863Z" fill="white" stroke="black" stroke-miterlimit="10"/>
<path d="M236.845 222.28H244.676C249.884 222.28 254.144 227.129 254.144 233.055V245.196C254.144 245.535 254.144 245.874 254.094 246.193C254.187 246.559 254.233 246.934 254.234 247.311V262.495C254.231 263.788 253.716 265.027 252.802 265.942C251.888 266.856 250.648 267.371 249.355 267.373H246.253C244.96 267.371 243.72 266.856 242.806 265.942C241.892 265.027 241.377 263.788 241.374 262.495V255.96H236.845C231.637 255.96 227.377 251.112 227.377 245.186V233.055C227.377 227.129 231.637 222.28 236.845 222.28Z" fill="white" stroke="black" stroke-miterlimit="10"/>
<path d="M249.186 243.51C249.186 244.378 248.928 245.227 248.446 245.949C247.964 246.67 247.278 247.233 246.476 247.565C245.674 247.898 244.791 247.985 243.94 247.815C243.088 247.646 242.306 247.228 241.692 246.614C241.078 246 240.66 245.218 240.491 244.366C240.321 243.515 240.408 242.632 240.741 241.83C241.073 241.028 241.635 240.342 242.357 239.86C243.079 239.378 243.928 239.12 244.796 239.12C245.96 239.12 247.077 239.583 247.9 240.406C248.723 241.229 249.186 242.346 249.186 243.51Z" fill="#E4B0C8"/>
<path d="M228.535 240.537C228.276 240.536 228.018 240.566 227.766 240.627V245.186C227.747 245.855 227.8 246.524 227.926 247.181C228.127 247.216 228.33 247.236 228.535 247.241C228.973 247.241 229.408 247.155 229.813 246.987C230.219 246.819 230.587 246.572 230.898 246.262C231.208 245.952 231.454 245.583 231.622 245.178C231.79 244.772 231.877 244.338 231.877 243.899C231.877 243.46 231.79 243.025 231.622 242.62C231.454 242.214 231.208 241.846 230.898 241.536C230.587 241.225 230.219 240.979 229.813 240.811C229.408 240.643 228.973 240.557 228.535 240.557V240.537Z" fill="#E4B0C8"/>
<path d="M243.05 237.015C243.05 237.364 242.947 237.706 242.753 237.996C242.559 238.287 242.283 238.513 241.96 238.647C241.637 238.78 241.282 238.815 240.94 238.747C240.597 238.679 240.283 238.511 240.036 238.264C239.789 238.017 239.621 237.702 239.552 237.36C239.484 237.017 239.519 236.662 239.653 236.339C239.787 236.017 240.013 235.741 240.303 235.547C240.594 235.353 240.935 235.249 241.284 235.249C241.753 235.249 242.202 235.435 242.533 235.766C242.864 236.098 243.05 236.547 243.05 237.015Z" fill="#0C0C0C"/>
<path d="M231.527 236.756C231.527 237.054 231.439 237.345 231.274 237.593C231.108 237.84 230.873 238.033 230.598 238.147C230.322 238.261 230.019 238.291 229.727 238.233C229.435 238.175 229.166 238.032 228.956 237.821C228.745 237.61 228.602 237.342 228.544 237.05C228.485 236.757 228.515 236.454 228.629 236.179C228.743 235.904 228.936 235.669 229.184 235.503C229.432 235.338 229.723 235.249 230.021 235.249C230.42 235.252 230.801 235.411 231.083 235.693C231.365 235.975 231.525 236.357 231.527 236.756Z" fill="#0C0C0C"/>
<path d="M232.914 244.877C232.914 244.877 233.802 247.461 235.678 247.64C237.553 247.82 239.02 245.735 239.129 244.118L232.914 244.877Z" fill="#FFF7F7"/>
<path d="M233.453 247.014C233.473 246.949 233.5 246.885 233.533 246.825V246.705L233.682 246.406C233.906 245.944 234.214 245.528 234.59 245.179C234.791 244.985 235.032 244.839 235.295 244.749C235.559 244.659 235.84 244.629 236.117 244.66C236.74 244.792 237.293 245.147 237.673 245.658C238.154 246.219 238.451 246.916 238.521 247.653L239.08 247.104L233.642 246.436L232.864 246.336C232.717 246.339 232.576 246.398 232.472 246.502C232.368 246.607 232.308 246.747 232.306 246.895C232.311 247.041 232.371 247.181 232.475 247.284C232.578 247.388 232.718 247.448 232.864 247.453L238.301 248.122L239.08 248.212C239.153 248.213 239.226 248.199 239.294 248.172C239.361 248.144 239.423 248.103 239.474 248.05C239.526 247.998 239.566 247.936 239.592 247.868C239.619 247.799 239.631 247.726 239.628 247.653C239.582 246.778 239.283 245.936 238.768 245.228C238.253 244.519 237.543 243.976 236.725 243.662C235.109 243.154 233.732 244.181 232.904 245.518C232.672 245.893 232.478 246.291 232.326 246.705C232.146 247.394 233.223 247.693 233.453 247.014Z" fill="#0C0C0C"/>
<path d="M235.159 235.249L235.528 241.265L232.655 239.519L235.159 235.249Z" fill="#DB7294"/>
<path d="M256.419 220.664C256.119 216.154 253.535 211.964 250.223 211.904C242.92 211.775 243.06 217.222 243.06 217.222C230.59 201.818 214.498 210.977 219.675 222.29C224.853 233.603 244.876 231.827 244.876 231.827C245.819 231.707 246.769 231.657 247.719 231.678C250.094 232.147 251.71 235.07 252.468 238.791C254.234 248.019 261.167 227.837 256.419 220.664Z" fill="black"/>
<path d="M257.775 234.461C256.646 234.461 255.533 234.735 254.533 235.259V237.175C255.33 236.575 256.279 236.21 257.272 236.119C258.265 236.029 259.264 236.217 260.156 236.662C261.048 237.108 261.799 237.793 262.324 238.641C262.848 239.49 263.126 240.467 263.126 241.465C263.126 242.462 262.848 243.44 262.324 244.288C261.799 245.136 261.048 245.821 260.156 246.267C259.264 246.712 258.265 246.9 257.272 246.81C256.279 246.719 255.33 246.354 254.533 245.754V247.67C255.533 248.194 256.646 248.468 257.775 248.468C259.627 248.468 261.404 247.732 262.713 246.423C264.023 245.113 264.759 243.337 264.759 241.485C264.759 239.632 264.023 237.856 262.713 236.547C261.404 235.237 259.627 234.501 257.775 234.501V234.461Z" fill="black"/>
<path d="M264.011 241.465C264.021 242.7 263.663 243.91 262.984 244.942C262.305 245.974 261.335 246.781 260.196 247.261C259.058 247.74 257.803 247.871 256.59 247.636C255.377 247.401 254.261 246.811 253.384 245.941C252.507 245.071 251.908 243.96 251.664 242.749C251.419 241.539 251.54 240.282 252.01 239.14C252.481 237.998 253.28 237.021 254.306 236.334C255.333 235.646 256.54 235.279 257.775 235.279C259.422 235.274 261.004 235.922 262.173 237.082C263.342 238.242 264.003 239.818 264.011 241.465Z" fill="white"/>
<path d="M253.715 242.283C253.691 241.737 253.758 241.19 253.915 240.666C254.051 240.139 254.3 239.648 254.644 239.226C254.989 238.804 255.42 238.461 255.91 238.222C256.721 237.877 257.609 237.753 258.484 237.863C258.664 237.868 258.835 237.943 258.961 238.071C259.088 238.199 259.16 238.371 259.162 238.551C259.162 238.731 259.091 238.904 258.963 239.031C258.836 239.158 258.664 239.23 258.484 239.23C258.109 239.19 257.731 239.19 257.356 239.23C257.356 239.23 257.257 239.23 257.247 239.23C257.237 239.23 257.406 239.23 257.247 239.23H257.037C256.895 239.264 256.755 239.307 256.618 239.36C256.439 239.419 256.738 239.29 256.568 239.36L256.409 239.439L256.259 239.529C256.206 239.573 256.149 239.613 256.089 239.649C256.089 239.649 256.219 239.539 256.089 239.649L256.03 239.709L255.91 239.818C255.83 239.888 255.76 240.018 255.67 240.078C255.79 239.998 255.75 239.968 255.67 240.078V240.128L255.581 240.257C255.521 240.351 255.468 240.447 255.421 240.547C255.421 240.547 255.421 240.637 255.351 240.686C255.281 240.736 255.421 240.507 255.351 240.617C255.347 240.64 255.347 240.663 255.351 240.686C255.351 240.786 255.271 240.886 255.241 240.986C255.192 241.16 255.152 241.336 255.122 241.514C255.122 241.514 255.122 241.594 255.122 241.624C255.122 241.654 255.122 241.435 255.122 241.574C255.117 241.651 255.117 241.727 255.122 241.804C255.107 241.966 255.107 242.13 255.122 242.293C255.122 242.475 255.049 242.65 254.92 242.779C254.791 242.908 254.616 242.981 254.433 242.981C254.251 242.981 254.076 242.908 253.947 242.779C253.817 242.65 253.745 242.475 253.745 242.293L253.715 242.283Z" fill="#020202"/>
<path d="M299.187 325.047C294.379 287.506 261.656 259.881 239.568 267.872C221.99 274.237 214.288 309.474 211.704 325.047H299.187Z" fill="#E4B0C8" stroke="#020106" stroke-miterlimit="10"/>
<path d="M254.333 270.745H242.152C239.535 270.745 237.414 268.624 237.414 266.007V264.75C237.414 262.132 239.535 260.011 242.152 260.011H254.333C256.951 260.011 259.072 262.132 259.072 264.75V266.007C259.072 268.624 256.951 270.745 254.333 270.745Z" fill="#DB7294" stroke="#020106" stroke-miterlimit="10"/>
<path d="M239.568 260.549V270.197" stroke="#020106" stroke-miterlimit="10"/>
<path d="M242.003 260.001V270.735" stroke="#020106" stroke-miterlimit="10"/>
<path d="M244.567 260.001V270.735" stroke="#020106" stroke-miterlimit="10"/>
<path d="M247.131 260.001V270.735" stroke="#020106" stroke-miterlimit="10"/>
<path d="M249.685 260.001V270.735" stroke="#020106" stroke-miterlimit="10"/>
<path d="M252.248 260.001V270.735" stroke="#020106" stroke-miterlimit="10"/>
<path d="M254.812 260.001V270.735" stroke="#020106" stroke-miterlimit="10"/>
<path d="M257.376 260.849V269.897" stroke="#020106" stroke-miterlimit="10"/>
<path d="M283.325 237.624C282.178 236.855 281.01 241.614 280.432 244.787C280.641 242.183 280.861 237.953 279.883 237.644C278.905 237.334 277.778 241.914 277.269 244.727C277.479 242.123 277.738 237.743 276.81 237.654C275.613 237.554 274.725 241.644 274.226 244.727C274.516 241.983 274.675 238.651 273.738 238.462C272.111 238.132 271.633 240.078 270.825 244.607C270.016 249.136 268.72 252.209 262.574 254.803C257.187 257.068 250.822 260.32 244.866 280.063L262.245 280.891C262.245 280.393 262.245 279.894 262.325 279.395C263.522 260.949 273.897 261.597 278.806 257.876C283.714 254.155 285.54 239.1 283.325 237.624Z" fill="white" stroke="#020106" stroke-miterlimit="10"/>
<path d="M274.426 325.047C266.644 314.991 261.457 296.744 262.225 280.422L245.045 279.355C244.118 282.348 243.21 285.73 242.302 289.571C238.471 305.952 240.965 317.884 243.749 325.047H274.426Z" fill="#E4B0C8" stroke="#020106" stroke-miterlimit="10"/>
<path d="M243.639 284.393H262.185C262.185 282.707 262.185 281.031 262.325 279.405C262.404 278.168 262.524 277.03 262.684 275.963L246.472 275.185C245.494 277.849 244.577 280.891 243.639 284.393Z" fill="#DB7294" stroke="#020106" stroke-miterlimit="10"/>
<path d="M249.066 275.294L246.931 284.393" stroke="#020106" stroke-miterlimit="10"/>
<path d="M252.458 275.454L251.301 284.393" stroke="#020106" stroke-miterlimit="10"/>
<path d="M255.91 275.454L255.371 284.393" stroke="#020106" stroke-miterlimit="10"/>
<path d="M259.072 275.773L258.763 284.154" stroke="#020106" stroke-miterlimit="10"/>
<path d="M225.043 244.827C224.334 240.716 228.325 236.297 227.038 235.249C225.751 234.202 218.359 240.896 220.444 247.65C222.529 254.404 230.111 255.631 227.427 265.687C225.978 270.427 224.115 275.031 221.86 279.445L239.149 279.884C240.277 267.772 239.08 258.883 237.693 255.94C236.027 252.588 225.741 248.947 225.043 244.827Z" fill="white" stroke="black" stroke-miterlimit="10"/>
<path d="M227.287 325.047C230.6 315.629 236.575 297.722 238.261 286.668C238.661 284.061 238.96 281.57 239.159 279.195L222.658 277.679C217.804 287.719 212.354 297.46 206.337 306.85C202.863 312.308 200.885 318.583 200.601 325.047H227.287Z" fill="#E4B0C8" stroke="#020106" stroke-miterlimit="10"/>
<path d="M238.641 284.124C239.05 280.991 239.309 278.038 239.449 275.295H223.776C222.579 277.948 221.192 280.782 219.715 283.665L238.641 284.124Z" fill="#DB7294" stroke="black" stroke-miterlimit="10"/>
<path d="M225.991 275.454L223.676 284.124" stroke="black" stroke-miterlimit="10"/>
<path d="M229.313 275.454L228.195 283.874" stroke="black" stroke-miterlimit="10"/>
<path d="M232.336 275.294L231.907 283.964" stroke="black" stroke-miterlimit="10"/>
<path d="M235.957 275.294L235.289 284.044" stroke="black" stroke-miterlimit="10"/>
<defs>
<clipPath id="clip0_17_281">
<rect width="81.81" height="73.6" fill="white" transform="translate(210)"/>
</clipPath>
</defs>
</svg>
