<svg width="180" height="220" viewBox="0 0 180 220" fill="none" xmlns="http://www.w3.org/2000/svg">
<g clip-path="url(#clip0_17_281)">
<path d="M45.0783 82.5048H68.855C70.3139 82.5062 71.7126 83.0813 72.7437 84.1036C73.7748 85.1259 74.354 86.5118 74.354 87.9568V111.462L68.7713 106.375H45.0894C44.3673 106.375 43.6523 106.234 42.9851 105.961C42.3179 105.687 41.7117 105.286 41.2011 104.78C40.6905 104.274 40.2854 103.674 40.0091 103.013C39.7327 102.352 39.5905 101.644 39.5905 100.929V87.9568C39.5905 86.5137 40.1681 85.1294 41.1968 84.1075C42.2255 83.0855 43.6213 82.5092 45.0783 82.5048Z" fill="white" stroke="black" stroke-width="0.497647" stroke-miterlimit="10"/>
<path d="M62.4069 94.874C62.4069 95.3421 62.547 95.7997 62.8096 96.1889C63.0721 96.578 63.4453 96.8814 63.8819 97.0605C64.3185 97.2396 64.7989 97.2865 65.2624 97.1952C65.7259 97.1038 66.1516 96.8784 66.4858 96.5475C66.82 96.2165 67.0476 95.7948 67.1398 95.3357C67.232 94.8767 67.1846 94.4008 67.0038 93.9684C66.8229 93.5359 66.5167 93.1663 66.1237 92.9063C65.7308 92.6462 65.2689 92.5074 64.7963 92.5074C64.1626 92.5074 63.5548 92.7568 63.1067 93.2006C62.6586 93.6444 62.4069 94.2464 62.4069 94.874Z" fill="white" stroke="black" stroke-width="0.497647" stroke-miterlimit="10"/>
<path d="M56.4782 97.2406C55.1585 97.2406 54.0888 96.1811 54.0888 94.874C54.0888 93.567 55.1585 92.5074 56.4782 92.5074C57.7978 92.5074 58.8676 93.567 58.8676 94.874C58.8676 96.1811 57.7978 97.2406 56.4782 97.2406Z" fill="white" stroke="black" stroke-width="0.497647" stroke-miterlimit="10"/>
<path d="M45.7705 94.874C45.7694 95.3437 45.909 95.8031 46.1718 96.194C46.4345 96.5849 46.8085 96.8898 47.2464 97.0701C47.6842 97.2503 48.1662 97.2977 48.6313 97.2064C49.0964 97.115 49.5237 96.889 49.859 96.5569C50.1942 96.2248 50.4224 95.8017 50.5147 95.341C50.6069 94.8803 50.559 94.4029 50.3771 93.9693C50.1951 93.5356 49.8873 93.1652 49.4926 92.9049C49.0978 92.6447 48.634 92.5064 48.1598 92.5075C47.5261 92.5075 46.9184 92.7568 46.4703 93.2006C46.0222 93.6444 45.7705 94.2464 45.7705 94.874Z" fill="white" stroke="black" stroke-width="0.497647" stroke-miterlimit="10"/>
</g>
<path d="M29.3471 145.429C13.406 145.429 0.483521 133.307 0.483521 118.352C0.483521 107.786 6.92779 98.6304 16.3534 94.1718" stroke="#C1C0FF" stroke-width="0.497647" stroke-miterlimit="10" stroke-dasharray="1.99 1.99"/>
<path d="M116.634 150.321C118.351 166.037 106.527 180.22 90.2242 182.006C73.9213 183.793 59.3153 172.496 57.6084 156.781" stroke="#C1C0FF" stroke-width="0.497647" stroke-miterlimit="10" stroke-dasharray="1.99 1.99"/>
<path d="M150.693 73.7284C166.632 73.7284 179.552 61.0932 179.552 45.5068C179.552 29.9205 166.632 17.2853 150.693 17.2853C134.755 17.2853 121.835 29.9205 121.835 45.5068C121.835 61.0932 134.755 73.7284 150.693 73.7284Z" stroke="#C1C0FF" stroke-width="0.497647" stroke-miterlimit="10" stroke-dasharray="1.99 1.99"/>
<path d="M39.6134 172.924L41.0616 174.373C41.8324 173.602 42.8778 173.169 43.9678 173.169C45.0578 173.169 46.1032 173.602 46.8741 174.373L48.3172 172.924C47.1629 171.771 45.5975 171.122 43.9653 171.122C42.3331 171.122 40.7678 171.771 39.6134 172.924Z" fill="#672ED6"/>
<path d="M37.205 170.531L38.6481 171.974C40.056 170.569 41.9639 169.78 43.953 169.78C45.9422 169.78 47.8501 170.569 49.258 171.974L50.7011 170.531C49.8152 169.644 48.7632 168.941 47.6054 168.461C46.4475 167.981 45.2064 167.734 43.953 167.734C42.6997 167.734 41.4586 167.981 40.3007 168.461C39.1429 168.941 38.0909 169.644 37.205 170.531Z" fill="#672ED6"/>
<path d="M43.9679 164.34C42.2683 164.336 40.5848 164.669 39.0148 165.32C37.4447 165.971 36.0194 166.927 34.8212 168.132L36.2643 169.575C37.2766 168.561 38.479 167.757 39.8025 167.208C41.1261 166.659 42.545 166.376 43.9779 166.376C45.4108 166.376 46.8296 166.659 48.1532 167.208C49.4768 167.757 50.6791 168.561 51.6914 169.575L53.1346 168.132C51.934 166.924 50.5054 165.967 48.9318 165.316C47.3582 164.665 45.6709 164.333 43.9679 164.34Z" fill="#672ED6"/>
<path d="M43.9679 174.373C43.622 174.372 43.2836 174.473 42.9956 174.665C42.7076 174.856 42.4829 175.129 42.3501 175.449C42.2173 175.768 42.1823 176.12 42.2495 176.459C42.3167 176.798 42.4832 177.11 42.7278 177.354C42.9724 177.599 43.2841 177.765 43.6234 177.833C43.9627 177.9 44.3143 177.865 44.6337 177.732C44.9531 177.599 45.2258 177.375 45.4174 177.087C45.6089 176.799 45.7106 176.46 45.7097 176.114C45.7084 175.653 45.5244 175.211 45.1981 174.884C44.8717 174.558 44.4294 174.374 43.9679 174.373Z" fill="#672ED6"/>
<path d="M165.255 142.538V147.012" stroke="#672ED6" stroke-width="0.373235" stroke-linecap="round" stroke-linejoin="round"/>
<path d="M163.02 144.772H167.494" stroke="#672ED6" stroke-width="0.373235" stroke-linecap="round" stroke-linejoin="round"/>
<path d="M41.8828 214.941V219.415" stroke="#DB7294" stroke-width="0.373235" stroke-linecap="round" stroke-linejoin="round"/>
<path d="M39.6433 217.18H44.1221" stroke="#DB7294" stroke-width="0.373235" stroke-linecap="round" stroke-linejoin="round"/>
<path d="M100.242 79.8296V84.3084" stroke="#DB7294" stroke-width="0.373235" stroke-linecap="round" stroke-linejoin="round"/>
<path d="M98.0074 82.069H102.481" stroke="#DB7294" stroke-width="0.373235" stroke-linecap="round" stroke-linejoin="round"/>
<path d="M8.19702 62.4418V66.9206" stroke="#672ED6" stroke-width="0.373235" stroke-linecap="round" stroke-linejoin="round"/>
<path d="M5.95764 64.6812H10.4315" stroke="#672ED6" stroke-width="0.373235" stroke-linecap="round" stroke-linejoin="round"/>
<path d="M31.2382 138.706V143.18" stroke="#EEDA36" stroke-width="0.373235" stroke-linecap="round" stroke-linejoin="round"/>
<path d="M28.9987 140.946H33.4775" stroke="#EEDA36" stroke-width="0.373235" stroke-linecap="round" stroke-linejoin="round"/>
<path d="M121.317 195.821V200.295" stroke="#EEDA36" stroke-width="0.373235" stroke-linecap="round" stroke-linejoin="round"/>
<path d="M119.078 198.061H123.552" stroke="#EEDA36" stroke-width="0.373235" stroke-linecap="round" stroke-linejoin="round"/>
<path d="M79.9578 82.8205C80.807 82.8205 81.4955 82.132 81.4955 81.2827C81.4955 80.4335 80.807 79.745 79.9578 79.745C79.1085 79.745 78.42 80.4335 78.42 81.2827C78.42 82.132 79.1085 82.8205 79.9578 82.8205Z" stroke="#EEDA36" stroke-width="0.373235" stroke-linecap="round" stroke-linejoin="round"/>
<path d="M134.082 86.6672C136.957 86.6672 139.287 84.3367 139.287 81.4619C139.287 78.587 136.957 76.2565 134.082 76.2565C131.207 76.2565 128.876 78.587 128.876 81.4619C128.876 84.3367 131.207 86.6672 134.082 86.6672Z" fill="#E4B0C8"/>
<path d="M137.207 79.2623H131.106V83.8457H137.207V79.2623Z" stroke="white" stroke-width="0.497647" stroke-miterlimit="10"/>
<path d="M131.106 79.2623L134.157 82.079L137.207 79.2623" stroke="white" stroke-width="0.497647" stroke-miterlimit="10"/>
<path d="M41.8828 122.602L43.2861 125.036L44.6945 127.469H41.8828H39.071L40.4794 125.036L41.8828 122.602Z" fill="#D96980"/>
<path d="M163.219 193.875L166.424 196.687L169.634 199.504L165.593 200.877L161.547 202.246L162.383 198.061L163.219 193.875Z" stroke="#D96980" stroke-width="0.497647" stroke-miterlimit="10"/>
<path d="M73.8317 206.471C73.8327 206.927 73.6983 207.373 73.4455 207.753C73.1927 208.132 72.8329 208.428 72.4117 208.604C71.9904 208.779 71.5267 208.825 71.0793 208.736C70.6319 208.647 70.2209 208.428 69.8984 208.105C69.5758 207.782 69.3563 207.371 69.2675 206.924C69.1788 206.477 69.2248 206.013 69.3999 205.592C69.5749 205.17 69.871 204.811 70.2506 204.558C70.6303 204.305 71.0765 204.171 71.5326 204.172C72.1424 204.172 72.7271 204.414 73.1583 204.845C73.5895 205.276 73.8317 205.861 73.8317 206.471Z" stroke="#D96980" stroke-width="0.497647" stroke-miterlimit="10"/>
<path d="M156.327 57.107C156.327 57.7487 156.136 58.376 155.78 58.9096C155.423 59.4432 154.917 59.8591 154.324 60.1046C153.731 60.3502 153.078 60.4145 152.449 60.2893C151.82 60.1641 151.242 59.855 150.788 59.4013C150.334 58.9475 150.025 58.3694 149.9 57.74C149.775 57.1106 149.839 56.4582 150.084 55.8653C150.33 55.2724 150.746 54.7657 151.279 54.4091C151.813 54.0526 152.44 53.8623 153.082 53.8623C153.943 53.8623 154.768 54.2042 155.376 54.8126C155.985 55.4211 156.327 56.2464 156.327 57.107Z" stroke="#D96980" stroke-width="0.497647" stroke-miterlimit="10"/>
<path d="M92.0256 144.529C92.0256 144.937 91.9044 145.337 91.6772 145.677C91.4501 146.016 91.1272 146.281 90.7496 146.437C90.3719 146.593 89.9564 146.634 89.5556 146.554C89.1549 146.474 88.7869 146.277 88.4983 145.987C88.2096 145.698 88.0133 145.329 87.9342 144.928C87.8551 144.528 87.8967 144.112 88.0538 143.735C88.2109 143.358 88.4763 143.035 88.8166 142.809C89.1569 142.583 89.5567 142.462 89.9653 142.463C90.2363 142.463 90.5046 142.517 90.7549 142.621C91.0052 142.725 91.2326 142.877 91.4239 143.069C91.6153 143.26 91.767 143.488 91.8702 143.739C91.9735 143.989 92.0263 144.258 92.0256 144.529Z" fill="#D96980"/>
<path d="M158.387 216.896C158.388 217.305 158.268 217.705 158.041 218.046C157.814 218.386 157.492 218.652 157.114 218.808C156.737 218.965 156.321 219.007 155.92 218.927C155.519 218.848 155.15 218.651 154.861 218.362C154.572 218.073 154.375 217.704 154.296 217.303C154.216 216.902 154.258 216.486 154.415 216.109C154.572 215.731 154.837 215.409 155.177 215.182C155.518 214.956 155.918 214.835 156.327 214.836C156.873 214.836 157.397 215.053 157.784 215.44C158.17 215.826 158.387 216.35 158.387 216.896Z" fill="#D96980"/>
<path d="M96.405 186.455C96.405 186.7 96.3325 186.938 96.1966 187.142C96.0608 187.345 95.8677 187.503 95.6419 187.596C95.4161 187.689 95.1677 187.713 94.9282 187.665C94.6887 187.617 94.4688 187.499 94.2964 187.326C94.124 187.153 94.0068 186.933 93.9598 186.693C93.9127 186.453 93.9378 186.205 94.032 185.98C94.1262 185.754 94.2852 185.562 94.4888 185.427C94.6924 185.292 94.9315 185.22 95.1758 185.221C95.5022 185.223 95.8149 185.353 96.0453 185.584C96.2756 185.816 96.405 186.129 96.405 186.455Z" fill="#E4B0C8"/>
<path d="M144.602 209.671C144.602 210.163 144.456 210.644 144.183 211.053C143.909 211.462 143.521 211.781 143.066 211.97C142.612 212.158 142.111 212.207 141.629 212.111C141.146 212.015 140.702 211.778 140.355 211.43C140.007 211.082 139.77 210.639 139.674 210.156C139.578 209.673 139.627 209.173 139.815 208.719C140.003 208.264 140.322 207.875 140.732 207.602C141.141 207.328 141.622 207.182 142.114 207.182C142.774 207.182 143.407 207.445 143.873 207.911C144.34 208.378 144.602 209.011 144.602 209.671Z" stroke="#672ED6" stroke-width="0.497647" stroke-miterlimit="10"/>
<path d="M115.166 58.3611C115.166 58.3611 119.297 57.9531 120.377 60.5657C121.457 63.1784 121.87 65.6965 128.374 62.4866" stroke="#EEDA36" stroke-width="0.497647" stroke-miterlimit="10"/>
<path d="M135.072 117.278C135.072 117.647 134.963 118.007 134.758 118.314C134.553 118.621 134.261 118.86 133.92 119.002C133.579 119.143 133.204 119.18 132.842 119.108C132.48 119.036 132.147 118.858 131.886 118.597C131.625 118.336 131.448 118.004 131.376 117.642C131.304 117.28 131.341 116.904 131.482 116.563C131.623 116.222 131.862 115.931 132.169 115.726C132.476 115.521 132.837 115.411 133.206 115.411C133.701 115.411 134.176 115.608 134.526 115.958C134.876 116.308 135.072 116.783 135.072 117.278Z" fill="#EEDA36"/>
<path d="M36.1046 59.8673C37.1315 59.0791 37.3249 57.6077 36.5367 56.5808C35.7485 55.5539 34.277 55.3605 33.2502 56.1487C32.2233 56.9369 32.0299 58.4084 32.8181 59.4352C33.6063 60.4621 35.0778 60.6556 36.1046 59.8673Z" stroke="#D7D4FC" stroke-width="0.497647" stroke-miterlimit="10"/>
<g clip-path="url(#clip1_17_281)">
<path d="M133.022 8.42714H110.055C108.646 8.42714 107.294 8.9871 106.297 9.98383C105.301 10.9806 104.741 12.3324 104.741 13.742V36.6736L110.145 31.6971H133.037C134.446 31.6971 135.798 31.1372 136.795 30.1404C137.792 29.1437 138.352 27.7918 138.352 26.3823V13.742C138.352 13.0428 138.214 12.3505 137.946 11.7046C137.678 11.0588 137.285 10.4723 136.79 9.97854C136.295 9.48481 135.707 9.09364 135.06 8.82742C134.414 8.5612 133.721 8.42518 133.022 8.42714Z" fill="white" stroke="black" stroke-width="0.497647" stroke-miterlimit="10"/>
<path d="M116.281 20.4951C116.281 20.9518 116.146 21.3982 115.892 21.778C115.638 22.1577 115.277 22.4537 114.856 22.6284C114.434 22.8032 113.969 22.8489 113.521 22.7598C113.074 22.6707 112.662 22.4508 112.339 22.1279C112.016 21.805 111.796 21.3935 111.707 20.9456C111.618 20.4977 111.664 20.0334 111.839 19.6115C112.013 19.1895 112.309 18.8289 112.689 18.5752C113.069 18.3215 113.515 18.186 113.972 18.186C114.584 18.186 115.172 18.4293 115.605 18.8623C116.038 19.2954 116.281 19.8827 116.281 20.4951Z" fill="white" stroke="black" stroke-width="0.497647" stroke-miterlimit="10"/>
<path d="M124.318 20.4951C124.318 20.9518 124.183 21.3982 123.929 21.778C123.675 22.1577 123.315 22.4537 122.893 22.6284C122.471 22.8032 122.006 22.8489 121.559 22.7598C121.111 22.6707 120.699 22.4508 120.376 22.1279C120.053 21.805 119.833 21.3935 119.744 20.9456C119.655 20.4977 119.701 20.0334 119.876 19.6115C120.05 19.1895 120.346 18.8289 120.726 18.5752C121.106 18.3215 121.552 18.186 122.009 18.186C122.621 18.186 123.209 18.4293 123.642 18.8623C124.075 19.2954 124.318 19.8827 124.318 20.4951Z" fill="white" stroke="black" stroke-width="0.497647" stroke-miterlimit="10"/>
<path d="M132.355 20.4951C132.355 20.9518 132.22 21.3982 131.966 21.778C131.712 22.1577 131.352 22.4537 130.93 22.6284C130.508 22.8032 130.043 22.8489 129.596 22.7598C129.148 22.6707 128.736 22.4508 128.413 22.1279C128.09 21.805 127.87 21.3935 127.781 20.9456C127.692 20.4977 127.738 20.0334 127.913 19.6115C128.087 19.1895 128.383 18.8289 128.763 18.5752C129.143 18.3215 129.589 18.186 130.046 18.186C130.658 18.186 131.246 18.4293 131.679 18.8623C132.112 19.2954 132.355 19.8827 132.355 20.4951Z" fill="white" stroke="black" stroke-width="0.497647" stroke-miterlimit="10"/>
<path d="M139.641 0.862936H116.674C115.976 0.862936 115.285 1.00041 114.64 1.26751C113.995 1.53461 113.41 1.9261 112.916 2.41963C112.423 2.91316 112.031 3.49906 111.764 4.14389C111.497 4.78872 111.359 5.47985 111.359 6.17781V29.1094L116.764 24.1329H139.656C141.065 24.1329 142.417 23.573 143.414 22.5762C144.41 21.5795 144.97 20.2276 144.97 18.818V6.17781C144.97 5.47859 144.832 4.78625 144.564 4.14045C144.296 3.49464 143.904 2.90807 143.408 2.41434C142.913 1.92061 142.326 1.52944 141.679 1.26322C141.033 0.997002 140.34 0.860972 139.641 0.862936Z" fill="white" stroke="black" stroke-width="0.497647" stroke-miterlimit="10"/>
<path d="M122.9 12.9309C122.9 13.3876 122.764 13.834 122.511 14.2138C122.257 14.5935 121.896 14.8895 121.474 15.0642C121.052 15.239 120.588 15.2847 120.14 15.1956C119.692 15.1065 119.281 14.8866 118.958 14.5637C118.635 14.2407 118.415 13.8293 118.326 13.3814C118.237 12.9335 118.283 12.4692 118.457 12.0473C118.632 11.6253 118.928 11.2647 119.308 11.011C119.688 10.7573 120.134 10.6218 120.591 10.6218C121.203 10.6218 121.79 10.8651 122.223 11.2981C122.657 11.7312 122.9 12.3185 122.9 12.9309Z" fill="white" stroke="black" stroke-width="0.497647" stroke-miterlimit="10"/>
<path d="M130.937 12.9309C130.937 13.3876 130.801 13.834 130.548 14.2138C130.294 14.5935 129.933 14.8895 129.511 15.0642C129.089 15.239 128.625 15.2847 128.177 15.1956C127.729 15.1065 127.318 14.8866 126.995 14.5637C126.672 14.2407 126.452 13.8293 126.363 13.3814C126.274 12.9335 126.32 12.4692 126.494 12.0473C126.669 11.6253 126.965 11.2647 127.345 11.011C127.725 10.7573 128.171 10.6218 128.628 10.6218C129.24 10.6218 129.827 10.8651 130.26 11.2981C130.693 11.7312 130.937 12.3185 130.937 12.9309Z" fill="white" stroke="black" stroke-width="0.497647" stroke-miterlimit="10"/>
<path d="M138.974 12.9309C138.97 13.3863 138.831 13.8304 138.576 14.2073C138.32 14.5842 137.959 14.877 137.537 15.0491C137.115 15.2211 136.652 15.2645 136.206 15.174C135.76 15.0835 135.35 14.863 135.029 14.5403C134.707 14.2176 134.489 13.807 134.4 13.3603C134.311 12.9136 134.357 12.4507 134.531 12.0297C134.704 11.6088 134.999 11.2486 135.377 10.9946C135.755 10.7405 136.199 10.6039 136.655 10.602C136.961 10.6006 137.264 10.66 137.546 10.7767C137.829 10.8934 138.085 11.0651 138.301 11.2817C138.517 11.4984 138.687 11.7558 138.803 12.0389C138.918 12.322 138.977 12.6252 138.974 12.9309Z" fill="white" stroke="black" stroke-width="0.497647" stroke-miterlimit="10"/>
</g>
<path d="M61.9328 62.6243C61.9335 62.9423 61.8363 63.2528 61.6543 63.5137C61.4724 63.7745 61.2145 63.9729 60.9158 64.082C60.6171 64.1911 60.292 64.2055 59.9848 64.1234C59.6776 64.0412 59.4032 63.8664 59.1988 63.6228C58.9944 63.3791 58.87 63.0785 58.8426 62.7616C58.8151 62.4448 58.8859 62.1272 59.0453 61.852C59.2047 61.5769 59.4449 61.3574 59.7334 61.2236C60.0219 61.0898 60.3446 61.0481 60.6576 61.1042C61.0131 61.1711 61.3345 61.3591 61.567 61.6363C61.7995 61.9134 61.9287 62.2626 61.9328 62.6243C61.9435 62.709 61.9848 62.7869 62.0489 62.8434C62.1129 62.8999 62.1954 62.931 62.2808 62.931C62.3662 62.931 62.4487 62.8999 62.5127 62.8434C62.5768 62.7869 62.6181 62.709 62.6288 62.6243C62.6238 62.1663 62.4809 61.7205 62.2187 61.345C61.9564 60.9695 61.5871 60.6818 61.1588 60.5195C60.7258 60.3591 60.2537 60.3373 59.8078 60.457C59.3619 60.5767 58.9642 60.8321 58.6697 61.1877C58.4467 61.4636 58.2927 61.7888 58.2207 62.1363C58.1488 62.4837 58.1608 62.8433 58.256 63.1852C58.3511 63.527 58.5265 63.8412 58.7676 64.1015C59.0087 64.3618 59.3085 64.5608 59.642 64.6818C59.9756 64.8028 60.3332 64.8424 60.6851 64.7973C61.0371 64.7522 61.3731 64.6236 61.6653 64.4223C61.9575 64.221 62.1974 63.9528 62.365 63.6401C62.5326 63.3274 62.623 62.9791 62.6288 62.6243C62.6181 62.5396 62.5768 62.4617 62.5127 62.4052C62.4487 62.3488 62.3662 62.3176 62.2808 62.3176C62.1954 62.3176 62.1129 62.3488 62.0489 62.4052C61.9848 62.4617 61.9435 62.5396 61.9328 62.6243Z" fill="black"/>
<path d="M27.292 55.8922C27.292 55.8922 33.2557 48.8984 42.9446 47.0998C52.6335 45.3012 72.0393 45.485 82.5412 59.3501C93.0431 73.2153 87.7086 55.3353 64.3215 65.08C50.4006 63.6879 51.9988 64.8962 50.4006 63.6879C48.8025 62.4795 31.5462 65.0521 27.292 55.8922Z" fill="#672ED6" stroke="black" stroke-width="0.452859" stroke-miterlimit="10"/>
<path d="M63.441 50.1805C63.441 50.1805 78.4378 55.9978 74.9252 61.7096C71.4126 67.4213 52.5692 67.9492 39.5765 61.7096C24.4183 54.4353 37.9176 53.1314 42.6326 46.1475L63.441 50.1805Z" fill="#672ED6" stroke="black" stroke-width="0.452859" stroke-miterlimit="10"/>
<path d="M39.3641 57.5906C39.3641 58.3023 39.5753 58.9979 39.9708 59.5896C40.3663 60.1813 40.9284 60.6423 41.586 60.9144C42.2436 61.1865 42.9672 61.2574 43.6651 61.1182C44.363 60.9789 45.004 60.6358 45.5068 60.1322C46.0097 59.6285 46.3518 58.9871 46.49 58.2889C46.6282 57.5908 46.5561 56.8673 46.283 56.2101C46.0099 55.5529 45.548 54.9915 44.9557 54.5969C44.3634 54.2024 43.6674 53.9923 42.9557 53.9934C42.4836 53.9934 42.0161 54.0865 41.58 54.2673C41.1439 54.4482 40.7477 54.7132 40.4141 55.0473C40.0805 55.3814 39.8161 55.778 39.6359 56.2144C39.4558 56.6508 39.3634 57.1185 39.3641 57.5906Z" fill="white"/>
<path fill-rule="evenodd" clip-rule="evenodd" d="M29.9593 19.1801H90.6209C93.0596 19.1801 95.0366 21.157 95.0366 23.5958V62.6355C95.0366 65.0742 93.0596 67.0512 90.6209 67.0512H29.9593C27.5206 67.0512 25.5436 65.0742 25.5436 62.6355V23.5958C25.5436 21.157 27.5206 19.1801 29.9593 19.1801ZM34.5587 21.9642H86.0214C88.4601 21.9642 90.4371 23.9412 90.4371 26.3799V54.0435C90.4371 56.4822 88.4601 58.4592 86.0214 58.4592H34.5587C32.1199 58.4592 30.143 56.4822 30.143 54.0435V26.3799C30.143 23.9412 32.1199 21.9642 34.5587 21.9642Z" fill="#B4AAF9"/>
<path d="M65.8866 48.6423C66.348 44.139 61.0775 39.9101 54.1145 39.1967C47.1515 38.4832 41.1329 41.5556 40.6715 46.0588C40.2101 50.5621 45.4806 54.7911 52.4436 55.5045C59.4066 56.2179 65.4252 53.1456 65.8866 48.6423Z" fill="#672ED6" stroke="black" stroke-width="0.482718" stroke-miterlimit="10"/>
<path d="M46.603 34.8828C46.5931 35.5457 46.7806 36.1965 47.1416 36.7525C47.5026 37.3085 48.0208 37.7445 48.6304 38.0051C49.2399 38.2656 49.9132 38.339 50.5646 38.2158C51.216 38.0926 51.8159 37.7784 52.2882 37.3132C52.7605 36.848 53.0837 36.2529 53.2167 35.6034C53.3498 34.954 53.2866 34.2797 53.0352 33.6663C52.7839 33.0529 52.3558 32.5281 51.8053 32.1587C51.2549 31.7893 50.607 31.592 49.944 31.592C49.5083 31.5876 49.076 31.6693 48.6719 31.8325C48.2678 31.9957 47.9 32.2372 47.5895 32.543C47.279 32.8488 47.0321 33.2129 46.8628 33.6145C46.6935 34.016 46.6052 34.4471 46.603 34.8828V34.8828Z" stroke="black" stroke-width="0.935576" stroke-miterlimit="10"/>
<path d="M61.0808 24.6704H56.9157C54.1315 24.6704 51.8763 27.2486 51.8763 30.4058V36.8651C51.8763 37.0489 51.8763 37.2271 51.8763 37.4219C51.8297 37.6172 51.8054 37.817 51.804 38.0177V46.103C51.8069 46.7913 52.082 47.4504 52.5692 47.9366C53.0564 48.4227 53.7161 48.6964 54.4044 48.6979H56.0749C56.7631 48.6964 57.4229 48.4227 57.9101 47.9366C58.3973 47.4504 58.6724 46.7913 58.6753 46.103V42.6172H61.0808C63.865 42.6172 66.1202 40.0335 66.1202 36.8762V30.417C66.0923 27.2486 63.826 24.6704 61.0808 24.6704Z" fill="white" stroke="black" stroke-width="0.467788" stroke-miterlimit="10"/>
<path d="M57.7397 32.5162C57.7397 32.7024 57.7949 32.8843 57.8983 33.0391C58.0017 33.1938 58.1487 33.3144 58.3207 33.3857C58.4926 33.4569 58.6818 33.4755 58.8644 33.4392C59.0469 33.4029 59.2146 33.3133 59.3462 33.1817C59.4778 33.0501 59.5675 32.8824 59.6038 32.6998C59.6401 32.5173 59.6214 32.3281 59.5502 32.1561C59.479 31.9842 59.3584 31.8372 59.2036 31.7338C59.0489 31.6304 58.8669 31.5752 58.6808 31.5752C58.4312 31.5752 58.1919 31.6743 58.0154 31.8508C57.8389 32.0273 57.7397 32.2666 57.7397 32.5162Z" fill="#0C0C0C"/>
<path d="M63.9038 32.377C63.9038 32.5356 63.9508 32.6907 64.0389 32.8225C64.127 32.9544 64.2523 33.0572 64.3988 33.1178C64.5453 33.1785 64.7065 33.1944 64.8621 33.1635C65.0176 33.1325 65.1605 33.0562 65.2726 32.944C65.3848 32.8319 65.4611 32.689 65.4921 32.5335C65.523 32.3779 65.5071 32.2167 65.4465 32.0702C65.3858 31.9237 65.283 31.7984 65.1511 31.7103C65.0193 31.6222 64.8642 31.5752 64.7057 31.5752C64.493 31.5752 64.289 31.6597 64.1387 31.81C63.9883 31.9604 63.9038 32.1644 63.9038 32.377Z" fill="#0C0C0C"/>
<path d="M63.0073 36.2247C63.0073 36.2247 62.534 37.6001 61.5373 37.6948C60.5405 37.7894 59.7554 36.6813 59.6997 35.8182L63.0073 36.2247Z" fill="#FFF7F7"/>
<path d="M62.7512 36.1468C62.7406 36.1811 62.7276 36.2146 62.7122 36.247L62.6843 36.3138L62.6064 36.4753C62.4845 36.7208 62.3184 36.9416 62.1164 37.1268C62.0102 37.2306 61.8819 37.309 61.7411 37.3563C61.6003 37.4035 61.4507 37.4184 61.3034 37.3997C60.9712 37.331 60.6748 37.1452 60.4681 36.8762C60.2171 36.5761 60.0619 36.2076 60.0227 35.8183L59.7276 36.1134L62.6231 36.4642L63.0352 36.5143C63.1911 36.5143 63.3247 36.3695 63.3247 36.2247C63.322 36.1483 63.2908 36.0756 63.2372 36.0209C63.1837 35.9663 63.1116 35.9337 63.0352 35.9296L60.1396 35.5788L59.7276 35.5287C59.6508 35.5287 59.5771 35.5592 59.5228 35.6135C59.4685 35.6678 59.438 35.7415 59.438 35.8183C59.4674 36.2797 59.6282 36.7231 59.9015 37.0961C60.1749 37.4691 60.5492 37.7561 60.9804 37.9231C61.3808 38.0157 61.8009 37.9685 62.1707 37.7891C62.5405 37.6098 62.8377 37.3092 63.0129 36.9375C63.136 36.7367 63.2386 36.5241 63.3191 36.3027C63.4138 35.9352 62.8458 35.7904 62.7512 36.1468Z" fill="#0C0C0C"/>
<path d="M54.4879 35.9742C54.4879 36.437 54.6252 36.8894 54.8824 37.2741C55.1397 37.6588 55.5053 37.9586 55.9329 38.1354C56.3606 38.3123 56.8311 38.3583 57.2849 38.2676C57.7388 38.1769 58.1554 37.9536 58.4823 37.6259C58.8092 37.2983 59.0314 36.8811 59.1211 36.4271C59.2107 35.973 59.1636 35.5026 58.9857 35.0754C58.8078 34.6481 58.5072 34.2833 58.1219 34.0269C57.7366 33.7706 57.2838 33.6344 56.8211 33.6355C56.2018 33.637 55.6083 33.884 55.1709 34.3225C54.7336 34.7609 54.4879 35.3549 54.4879 35.9742Z" fill="#E4B0C8"/>
<path d="M65.4686 34.3873C65.6073 34.3899 65.7453 34.4067 65.8806 34.4374V36.8597C65.8876 37.2145 65.8578 37.569 65.7915 37.9177C65.6844 37.9327 65.5766 37.942 65.4686 37.9455C65.0139 37.9201 64.5863 37.7215 64.2734 37.3907C63.9606 37.0598 63.7863 36.6218 63.7863 36.1664C63.7863 35.7111 63.9606 35.273 64.2734 34.9422C64.5863 34.6113 65.0139 34.4128 65.4686 34.3873Z" fill="#E4B0C8"/>
<path d="M61.955 31.5752L61.7601 34.777L63.2859 33.8471L61.955 31.5752Z" fill="#DB7294"/>
<path d="M52.9397 34.777L53.7082 29.7153C53.7082 29.7153 67.7126 31.4693 72.2508 24.6704C76.789 17.8714 72.0225 15.2042 69.7116 15.5606C67.4007 15.917 64.7001 19.2524 64.7001 19.2524C64.7001 19.2524 66.8495 16.329 64.7001 15.8668C62.5507 15.4047 60.1786 17.6376 58.9424 19.9429C58.9424 19.9429 49.7101 19.0853 46.5918 24.6704C43.4735 30.2554 46.0016 34.2146 51.7091 39.9889L52.0878 36.7593L52.9397 34.777Z" fill="black"/>
<path d="M46.603 34.8828C46.5931 35.5457 46.7806 36.1965 47.1416 36.7525C47.5026 37.3085 48.0208 37.7445 48.6304 38.0051C49.2399 38.2656 49.9132 38.339 50.5646 38.2158C51.216 38.0926 51.8159 37.7784 52.2882 37.3132C52.7605 36.848 53.0837 36.2529 53.2167 35.6034C53.3498 34.954 53.2866 34.2797 53.0352 33.6663C52.7839 33.0529 52.3558 32.5281 51.8053 32.1587C51.2549 31.7893 50.607 31.592 49.944 31.592C49.5083 31.5876 49.076 31.6693 48.6719 31.8325C48.2678 31.9957 47.9 32.2372 47.5895 32.543C47.279 32.8488 47.0321 33.2129 46.8628 33.6145C46.6935 34.016 46.6052 34.4471 46.603 34.8828Z" fill="white"/>
<path d="M52.0711 35.3171C52.0834 35.0274 52.0477 34.7376 51.9653 34.4596C51.8958 34.1809 51.7667 33.9207 51.587 33.6967C51.4072 33.4727 51.181 33.2904 50.9241 33.1621C50.4944 32.9783 50.0238 32.9111 49.5598 32.9673C49.4651 32.9714 49.3754 33.0108 49.3084 33.0778C49.2414 33.1448 49.202 33.2345 49.1979 33.3292C49.1979 33.5074 49.3594 33.7134 49.5598 33.6911C49.7578 33.6689 49.9577 33.6689 50.1556 33.6911H50.2169C50.2169 33.6911 50.1389 33.6911 50.2169 33.6911H50.3283C50.4062 33.6911 50.4786 33.7357 50.5566 33.758C50.6345 33.7802 50.4953 33.7301 50.5566 33.758L50.6457 33.8025C50.7001 33.8442 50.7578 33.8815 50.8183 33.9139C50.8183 33.9139 50.7459 33.8526 50.7904 33.9139L50.8294 33.9417L50.8907 34.003C50.9296 34.042 50.9686 34.1088 51.0187 34.1366C50.9575 34.1032 50.9742 34.0809 51.0187 34.1366V34.1645L51.0633 34.2313C51.0967 34.2814 51.1245 34.3315 51.1524 34.3816L51.1858 34.4596C51.1858 34.4986 51.1468 34.3705 51.1858 34.4262V34.4596C51.1858 34.5153 51.2247 34.571 51.2415 34.6211C51.2672 34.7145 51.2876 34.8093 51.3027 34.905C51.3059 34.9253 51.3059 34.946 51.3027 34.9663C51.3027 35.0443 51.3027 34.8605 51.3027 34.9385C51.3 34.9774 51.3 35.0165 51.3027 35.0554C51.3083 35.1425 51.3083 35.23 51.3027 35.3171C51.3027 35.4122 51.3401 35.5034 51.4067 35.5711C51.4734 35.6388 51.5641 35.6776 51.6591 35.6791C51.7542 35.6763 51.8446 35.6372 51.9119 35.5699C51.9792 35.5027 52.0182 35.4122 52.021 35.3171H52.0711Z" fill="#020202"/>
<path d="M58.9481 19.9431C58.9481 19.9431 49.7213 29.4761 45.8959 32.3772C45.8959 32.3772 40.9233 21.3686 43.7465 18.2948C46.0072 15.8336 57.0548 17.2758 58.9481 19.9431Z" fill="#EEDA36" stroke="black" stroke-width="0.467788" stroke-miterlimit="10"/>
<path d="M55.9021 18.1499L44.6484 29.2365" stroke="black" stroke-width="0.467788" stroke-miterlimit="10"/>
<path d="M61.5152 43.6418L63.0186 49.2102L51.6147 52.8352L51.0578 50.502L46.8481 48.0019L48.591 43.291L53.5747 47.1889L53.9032 47.4617C53.9032 47.4617 54.087 47.7735 55.0169 47.2613L61.5152 43.6418Z" fill="#672ED6"/>
<path d="M61.9549 43.4025L51.0966 49.3773L51.0298 50.7972" stroke="black" stroke-width="0.467788" stroke-miterlimit="10"/>
<path d="M48.3069 43.2744L54.2316 47.6567" stroke="black" stroke-width="0.467788" stroke-miterlimit="10"/>
<path d="M48.307 49.7838C48.307 49.7838 40.6227 54.8789 35.3773 52.8353" stroke="black" stroke-width="0.467788" stroke-miterlimit="10"/>
<path d="M48.1175 50.5911C48.5911 50.5911 48.9751 50.2072 48.9751 49.7336C48.9751 49.26 48.5911 48.8761 48.1175 48.8761C47.6439 48.8761 47.26 49.26 47.26 49.7336C47.26 50.2072 47.6439 50.5911 48.1175 50.5911Z" stroke="black" stroke-width="0.467788" stroke-miterlimit="10"/>
<path d="M57.9346 51.6826C57.9335 51.858 57.9845 52.0297 58.0811 52.176C58.1777 52.3224 58.3156 52.4367 58.4773 52.5046C58.6389 52.5724 58.8171 52.5908 58.9892 52.5572C59.1614 52.5237 59.3196 52.4398 59.444 52.3162C59.5684 52.1926 59.6533 52.0349 59.6879 51.863C59.7225 51.6911 59.7053 51.5128 59.6385 51.3507C59.5716 51.1886 59.4581 51.05 59.3124 50.9524C59.1667 50.8549 58.9953 50.8029 58.82 50.8029C58.5861 50.8029 58.3617 50.8954 58.1959 51.0602C58.03 51.225 57.9361 51.4488 57.9346 51.6826V51.6826Z" stroke="black" stroke-width="0.467788" stroke-miterlimit="10"/>
<path d="M58.8201 51.6825C58.8201 51.6825 61.955 60.7311 67.4287 63.376" stroke="black" stroke-width="0.467788" stroke-miterlimit="10"/>
<path d="M87.7349 105.214H151.447C154.011 105.214 156.089 107.292 156.089 109.856V150.86C156.089 153.423 154.011 155.502 151.447 155.502H87.7349C85.1712 155.502 83.0929 153.423 83.0929 150.86V109.856C83.0929 107.292 85.1712 105.214 87.7349 105.214Z" fill="#B4AAF9"/>
<path d="M117.806 150.855C117.808 151.199 117.915 151.534 118.113 151.816C118.311 152.097 118.591 152.31 118.915 152.427C119.239 152.544 119.591 152.558 119.923 152.468C120.255 152.379 120.552 152.189 120.772 151.924C120.993 151.66 121.127 151.335 121.156 150.992C121.186 150.649 121.109 150.305 120.936 150.007C120.764 149.71 120.504 149.472 120.192 149.327C119.88 149.182 119.53 149.136 119.192 149.196C118.804 149.268 118.453 149.473 118.2 149.776C117.947 150.078 117.808 150.46 117.806 150.855C117.797 150.93 117.76 151 117.703 151.05C117.646 151.1 117.572 151.128 117.496 151.128C117.42 151.128 117.346 151.1 117.289 151.05C117.232 151 117.195 150.93 117.186 150.855C117.19 150.387 117.334 149.931 117.599 149.546C117.865 149.161 118.239 148.865 118.675 148.695C119.133 148.523 119.635 148.501 120.106 148.633C120.577 148.766 120.994 149.045 121.296 149.431C121.597 149.817 121.767 150.289 121.782 150.778C121.797 151.267 121.655 151.748 121.377 152.151C121.099 152.554 120.699 152.858 120.237 153.018C119.774 153.179 119.273 153.187 118.805 153.042C118.337 152.898 117.928 152.607 117.637 152.214C117.345 151.82 117.187 151.344 117.186 150.855C117.195 150.779 117.232 150.71 117.289 150.659C117.346 150.609 117.42 150.581 117.496 150.581C117.572 150.581 117.646 150.609 117.703 150.659C117.76 150.71 117.797 150.779 117.806 150.855Z" fill="black"/>
<path d="M92.5656 108.143H146.617C149.18 108.143 151.259 110.221 151.259 112.785V141.834C151.259 144.397 149.18 146.476 146.617 146.476H92.5656C90.0019 146.476 87.9236 144.397 87.9236 141.834V112.785C87.9236 110.221 90.0019 108.143 92.5656 108.143Z" fill="white"/>
<path d="M120.939 130.057C120.939 130.057 111.417 134.615 107.852 127.942C104.287 121.27 109.972 113.048 114.594 111.881C119.216 110.715 122.86 123.777 120.939 130.057Z" fill="black"/>
<path d="M125.045 130.584C125.045 130.584 129.195 133.692 135.54 131.314C141.885 128.935 137.988 117.298 135.54 113.733C133.093 110.169 127.597 107.979 125.164 109.106C122.731 110.233 120.706 123.295 125.045 130.584Z" fill="black"/>
<path d="M133.908 110.719C132.412 108.694 132.84 105.841 134.865 104.345C136.889 102.849 139.743 103.278 141.239 105.302C142.735 107.326 142.306 110.18 140.282 111.676C138.257 113.172 135.404 112.743 133.908 110.719Z" fill="black"/>
<path d="M110.871 120.977C110.871 120.977 112.4 117.501 113.691 117.7C114.981 117.899 114.614 120.182 114.44 121.419C114.267 122.655 113.661 124.219 115.021 125.658C116.382 127.098 109.679 124.944 110.871 120.977Z" fill="white" stroke="black" stroke-width="0.497647" stroke-miterlimit="10"/>
<path d="M117.851 111.231H121.748C124.34 111.231 126.46 113.644 126.46 116.593V122.635C126.46 122.804 126.46 122.973 126.435 123.132C126.481 123.313 126.504 123.5 126.505 123.688V131.244C126.503 131.887 126.247 132.504 125.792 132.959C125.337 133.414 124.72 133.67 124.077 133.672H122.533C121.889 133.67 121.273 133.414 120.818 132.959C120.363 132.504 120.106 131.887 120.105 131.244V127.992H117.851C115.26 127.992 113.14 125.579 113.14 122.63V116.593C113.14 113.644 115.26 111.231 117.851 111.231Z" fill="white" stroke="black" stroke-width="0.497647" stroke-miterlimit="10"/>
<path d="M123.993 121.796C123.993 122.228 123.864 122.65 123.624 123.01C123.384 123.369 123.043 123.649 122.644 123.814C122.245 123.98 121.806 124.023 121.382 123.939C120.958 123.854 120.569 123.646 120.263 123.341C119.958 123.035 119.75 122.646 119.666 122.222C119.581 121.798 119.625 121.359 119.79 120.96C119.955 120.561 120.235 120.22 120.594 119.98C120.954 119.74 121.376 119.612 121.808 119.612C122.387 119.612 122.943 119.842 123.353 120.251C123.762 120.661 123.993 121.217 123.993 121.796Z" fill="#E4B0C8"/>
<path d="M113.715 120.317C113.587 120.316 113.458 120.331 113.333 120.361V122.63C113.323 122.963 113.35 123.296 113.413 123.623C113.513 123.641 113.614 123.651 113.715 123.653C113.934 123.653 114.15 123.61 114.352 123.526C114.554 123.443 114.737 123.32 114.891 123.166C115.046 123.011 115.168 122.828 115.252 122.626C115.336 122.424 115.379 122.208 115.379 121.99C115.379 121.771 115.336 121.555 115.252 121.353C115.168 121.151 115.046 120.968 114.891 120.814C114.737 120.659 114.554 120.537 114.352 120.453C114.15 120.369 113.934 120.326 113.715 120.326V120.317Z" fill="#E4B0C8"/>
<path d="M120.939 118.564C120.939 118.738 120.888 118.908 120.791 119.052C120.694 119.197 120.557 119.309 120.397 119.376C120.236 119.442 120.059 119.46 119.889 119.426C119.718 119.392 119.562 119.308 119.439 119.185C119.316 119.063 119.232 118.906 119.198 118.736C119.165 118.565 119.182 118.388 119.248 118.228C119.315 118.067 119.428 117.93 119.572 117.833C119.717 117.737 119.887 117.685 120.06 117.685C120.293 117.685 120.517 117.778 120.682 117.943C120.846 118.107 120.939 118.331 120.939 118.564Z" fill="#0C0C0C"/>
<path d="M115.205 118.435C115.205 118.583 115.161 118.728 115.079 118.851C114.996 118.975 114.879 119.071 114.742 119.128C114.605 119.184 114.454 119.199 114.309 119.17C114.163 119.141 114.03 119.07 113.925 118.965C113.82 118.86 113.749 118.727 113.72 118.581C113.691 118.436 113.706 118.285 113.763 118.148C113.819 118.011 113.915 117.894 114.039 117.812C114.162 117.729 114.307 117.685 114.455 117.685C114.654 117.687 114.843 117.766 114.984 117.906C115.124 118.047 115.204 118.237 115.205 118.435Z" fill="#0C0C0C"/>
<path d="M115.895 122.476C115.895 122.476 116.337 123.762 117.27 123.851C118.203 123.941 118.933 122.903 118.988 122.099L115.895 122.476Z" fill="#FFF7F7"/>
<path d="M116.163 123.54C116.173 123.508 116.186 123.476 116.203 123.446V123.386L116.277 123.237C116.389 123.008 116.542 122.8 116.729 122.627C116.829 122.53 116.949 122.457 117.08 122.413C117.211 122.368 117.351 122.353 117.489 122.368C117.799 122.434 118.074 122.611 118.263 122.865C118.503 123.145 118.65 123.491 118.685 123.858L118.963 123.585L116.257 123.252L115.87 123.203C115.797 123.204 115.727 123.234 115.675 123.285C115.623 123.337 115.593 123.407 115.592 123.481C115.595 123.554 115.625 123.623 115.676 123.674C115.728 123.726 115.797 123.756 115.87 123.759L118.576 124.091L118.963 124.136C119 124.137 119.036 124.13 119.07 124.116C119.103 124.102 119.134 124.082 119.16 124.056C119.185 124.03 119.205 123.999 119.218 123.965C119.231 123.931 119.238 123.894 119.236 123.858C119.213 123.423 119.064 123.003 118.808 122.651C118.552 122.298 118.198 122.028 117.791 121.872C116.987 121.619 116.302 122.13 115.89 122.795C115.774 122.982 115.678 123.18 115.602 123.386C115.513 123.729 116.049 123.878 116.163 123.54Z" fill="#0C0C0C"/>
<path d="M117.012 117.685L117.196 120.679L115.766 119.81L117.012 117.685Z" fill="#DB7294"/>
<path d="M127.592 110.427C127.443 108.183 126.157 106.098 124.509 106.068C120.875 106.003 120.944 108.714 120.944 108.714C114.738 101.048 106.73 105.606 109.307 111.236C111.883 116.866 121.848 115.982 121.848 115.982C122.317 115.923 122.79 115.898 123.263 115.908C124.444 116.141 125.248 117.596 125.626 119.448C126.505 124.04 129.955 113.996 127.592 110.427Z" fill="black"/>
<path d="M128.267 117.293C127.705 117.293 127.151 117.429 126.653 117.69V118.643C127.05 118.345 127.522 118.163 128.016 118.118C128.511 118.073 129.008 118.167 129.452 118.389C129.896 118.61 130.269 118.951 130.53 119.373C130.791 119.796 130.93 120.282 130.93 120.778C130.93 121.275 130.791 121.761 130.53 122.183C130.269 122.605 129.896 122.946 129.452 123.168C129.008 123.39 128.511 123.483 128.016 123.438C127.522 123.393 127.05 123.211 126.653 122.913V123.866C127.151 124.127 127.705 124.264 128.267 124.264C129.189 124.264 130.073 123.897 130.724 123.246C131.376 122.594 131.742 121.71 131.742 120.788C131.742 119.867 131.376 118.983 130.724 118.331C130.073 117.679 129.189 117.313 128.267 117.313V117.293Z" fill="black"/>
<path d="M131.37 120.778C131.375 121.393 131.197 121.995 130.859 122.509C130.521 123.022 130.038 123.424 129.472 123.663C128.905 123.901 128.28 123.966 127.677 123.849C127.073 123.732 126.518 123.439 126.082 123.006C125.645 122.573 125.347 122.02 125.226 121.418C125.104 120.815 125.164 120.19 125.398 119.621C125.632 119.053 126.03 118.567 126.54 118.225C127.051 117.883 127.652 117.7 128.267 117.7C129.086 117.697 129.873 118.02 130.455 118.597C131.037 119.174 131.366 119.959 131.37 120.778Z" fill="white"/>
<path d="M126.246 121.185C126.234 120.914 126.268 120.642 126.346 120.381C126.414 120.119 126.537 119.874 126.709 119.664C126.88 119.454 127.095 119.284 127.339 119.165C127.742 118.993 128.184 118.931 128.62 118.986C128.709 118.989 128.794 119.026 128.857 119.089C128.92 119.153 128.956 119.239 128.957 119.329C128.957 119.418 128.922 119.504 128.858 119.567C128.795 119.631 128.709 119.666 128.62 119.666C128.433 119.646 128.245 119.646 128.059 119.666C128.059 119.666 128.009 119.666 128.004 119.666C127.999 119.666 128.083 119.666 128.004 119.666H127.9C127.829 119.683 127.759 119.705 127.691 119.731C127.602 119.761 127.751 119.696 127.666 119.731L127.587 119.77L127.512 119.815C127.486 119.837 127.458 119.857 127.428 119.875C127.428 119.875 127.493 119.82 127.428 119.875L127.398 119.904L127.339 119.959C127.299 119.994 127.264 120.058 127.219 120.088C127.279 120.048 127.259 120.034 127.219 120.088V120.113L127.175 120.178C127.145 120.224 127.119 120.272 127.095 120.322C127.095 120.322 127.095 120.366 127.061 120.391C127.026 120.416 127.095 120.302 127.061 120.356C127.058 120.368 127.058 120.38 127.061 120.391C127.061 120.441 127.021 120.49 127.006 120.54C126.981 120.627 126.962 120.714 126.946 120.803C126.946 120.803 126.946 120.843 126.946 120.858C126.946 120.873 126.946 120.763 126.946 120.833C126.944 120.871 126.944 120.909 126.946 120.947C126.939 121.028 126.939 121.109 126.946 121.19C126.946 121.281 126.91 121.368 126.846 121.433C126.782 121.497 126.695 121.533 126.604 121.533C126.513 121.533 126.426 121.497 126.362 121.433C126.297 121.368 126.261 121.281 126.261 121.19L126.246 121.185Z" fill="#020202"/>
<path d="M148.876 162.373C146.483 143.69 130.198 129.943 119.206 133.92C110.459 137.087 106.626 154.623 105.34 162.373H148.876Z" fill="#E4B0C8" stroke="#020106" stroke-width="0.497647" stroke-miterlimit="10"/>
<path d="M126.554 135.35H120.492C119.19 135.35 118.134 134.294 118.134 132.991V132.366C118.134 131.063 119.19 130.008 120.492 130.008H126.554C127.857 130.008 128.913 131.063 128.913 132.366V132.991C128.913 134.294 127.857 135.35 126.554 135.35Z" fill="#DB7294" stroke="#020106" stroke-width="0.497647" stroke-miterlimit="10"/>
<path d="M119.206 130.276V135.077" stroke="#020106" stroke-width="0.497647" stroke-miterlimit="10"/>
<path d="M120.418 130.003V135.345" stroke="#020106" stroke-width="0.497647" stroke-miterlimit="10"/>
<path d="M121.694 130.003V135.345" stroke="#020106" stroke-width="0.497647" stroke-miterlimit="10"/>
<path d="M122.97 130.003V135.345" stroke="#020106" stroke-width="0.497647" stroke-miterlimit="10"/>
<path d="M124.241 130.003V135.345" stroke="#020106" stroke-width="0.497647" stroke-miterlimit="10"/>
<path d="M125.517 130.003V135.345" stroke="#020106" stroke-width="0.497647" stroke-miterlimit="10"/>
<path d="M126.793 130.003V135.345" stroke="#020106" stroke-width="0.497647" stroke-miterlimit="10"/>
<path d="M128.069 130.425V134.928" stroke="#020106" stroke-width="0.497647" stroke-miterlimit="10"/>
<path d="M140.982 118.867C140.411 118.485 139.83 120.853 139.542 122.431C139.646 121.136 139.756 119.031 139.269 118.877C138.782 118.723 138.221 121.002 137.968 122.402C138.073 121.106 138.202 118.926 137.74 118.882C137.144 118.832 136.702 120.868 136.454 122.402C136.598 121.036 136.677 119.378 136.211 119.284C135.402 119.12 135.163 120.088 134.761 122.342C134.359 124.596 133.713 126.125 130.655 127.416C127.974 128.543 124.807 130.162 121.843 139.987L130.491 140.399C130.491 140.151 130.491 139.902 130.531 139.654C131.127 130.474 136.29 130.797 138.733 128.945C141.175 127.093 142.084 119.602 140.982 118.867Z" fill="white" stroke="#020106" stroke-width="0.497647" stroke-miterlimit="10"/>
<path d="M136.553 162.373C132.681 157.368 130.099 148.288 130.481 140.166L121.932 139.634C121.47 141.124 121.019 142.807 120.567 144.718C118.66 152.87 119.902 158.808 121.287 162.373H136.553Z" fill="#E4B0C8" stroke="#020106" stroke-width="0.497647" stroke-miterlimit="10"/>
<path d="M121.232 142.141H130.462C130.462 141.302 130.462 140.468 130.531 139.659C130.571 139.043 130.63 138.477 130.71 137.946L122.642 137.559C122.156 138.885 121.699 140.399 121.232 142.141Z" fill="#DB7294" stroke="#020106" stroke-width="0.497647" stroke-miterlimit="10"/>
<path d="M123.933 137.614L122.87 142.141" stroke="#020106" stroke-width="0.497647" stroke-miterlimit="10"/>
<path d="M125.621 137.693L125.045 142.141" stroke="#020106" stroke-width="0.497647" stroke-miterlimit="10"/>
<path d="M127.339 137.693L127.071 142.141" stroke="#020106" stroke-width="0.497647" stroke-miterlimit="10"/>
<path d="M128.913 137.852L128.759 142.022" stroke="#020106" stroke-width="0.497647" stroke-miterlimit="10"/>
<path d="M111.978 122.451C111.625 120.406 113.611 118.206 112.971 117.685C112.33 117.164 108.652 120.495 109.689 123.856C110.727 127.217 114.5 127.828 113.165 132.833C112.443 135.191 111.516 137.482 110.394 139.679L118.998 139.897C119.559 133.87 118.963 129.447 118.273 127.982C117.444 126.314 112.325 124.502 111.978 122.451Z" fill="white" stroke="black" stroke-width="0.497647" stroke-miterlimit="10"/>
<path d="M113.095 162.373C114.743 157.686 117.717 148.774 118.556 143.273C118.755 141.976 118.904 140.736 119.003 139.555L110.791 138.8C108.376 143.797 105.663 148.644 102.669 153.317C100.94 156.033 99.9559 159.156 99.8143 162.373H113.095Z" fill="#E4B0C8" stroke="#020106" stroke-width="0.497647" stroke-miterlimit="10"/>
<path d="M118.745 142.007C118.948 140.448 119.077 138.979 119.147 137.614H111.347C110.752 138.934 110.061 140.344 109.327 141.779L118.745 142.007Z" fill="#DB7294" stroke="black" stroke-width="0.497647" stroke-miterlimit="10"/>
<path d="M112.45 137.693L111.298 142.007" stroke="black" stroke-width="0.497647" stroke-miterlimit="10"/>
<path d="M114.103 137.693L113.547 141.883" stroke="black" stroke-width="0.497647" stroke-miterlimit="10"/>
<path d="M115.607 137.614L115.394 141.928" stroke="black" stroke-width="0.497647" stroke-miterlimit="10"/>
<path d="M117.409 137.614L117.077 141.968" stroke="black" stroke-width="0.497647" stroke-miterlimit="10"/>
<defs>
<clipPath id="clip0_17_281">
<rect width="35.3329" height="29.8588" fill="white" transform="matrix(-1 0 0 1 74.6329 82.2283)"/>
</clipPath>
<clipPath id="clip1_17_281">
<rect width="40.7125" height="36.6268" fill="white" transform="translate(104.492 0.614136)"/>
</clipPath>
</defs>
</svg>
