<svg width="187" height="405" viewBox="0 0 187 405" fill="none" xmlns="http://www.w3.org/2000/svg">
<g clip-path="url(#clip0_14_281)">
<rect width="186.618" height="404.089" fill="white"/>
<path opacity="0.35" d="M168.919 8.8748H177.213C177.808 8.8748 178.291 9.35754 178.291 9.95304V12.9389C178.291 13.5344 177.808 14.0172 177.213 14.0172H168.919C168.323 14.0172 167.84 13.5344 167.84 12.9389V9.95304C167.84 9.35754 168.323 8.8748 168.919 8.8748Z" stroke="black" stroke-width="0.497647"/>
<path opacity="0.4" d="M179.038 10.4507V12.4413C179.438 12.2727 179.698 11.8805 179.698 11.446C179.698 11.0115 179.438 10.6193 179.038 10.4507" fill="black"/>
<path d="M168.587 10.2847C168.587 9.91829 168.884 9.62122 169.25 9.62122H176.881C177.247 9.62122 177.545 9.91829 177.545 10.2847V12.6071C177.545 12.9736 177.247 13.2706 176.881 13.2706H169.25C168.884 13.2706 168.587 12.9736 168.587 12.6071V10.2847Z" fill="black"/>
<path fill-rule="evenodd" clip-rule="evenodd" d="M161.287 9.75794C162.39 9.75799 163.45 10.1817 164.249 10.9415C164.309 11.0002 164.406 10.9994 164.465 10.9399L165.04 10.3593C165.07 10.329 165.087 10.2881 165.087 10.2455C165.086 10.2029 165.069 10.1622 165.039 10.1323C162.941 8.12207 159.632 8.12207 157.534 10.1323C157.504 10.1622 157.487 10.2029 157.486 10.2455C157.486 10.2881 157.503 10.329 157.533 10.3593L158.108 10.9399C158.168 10.9995 158.264 11.0003 158.324 10.9415C159.123 10.1817 160.184 9.75794 161.287 9.75794ZM161.287 11.6469C161.893 11.6468 162.477 11.872 162.926 12.2787C162.987 12.3364 163.082 12.3352 163.142 12.2759L163.716 11.6953C163.747 11.6648 163.763 11.6235 163.763 11.5806C163.762 11.5377 163.745 11.4967 163.714 11.4669C162.346 10.1947 160.228 10.1947 158.861 11.4669C158.83 11.4967 158.812 11.5377 158.812 11.5806C158.811 11.6236 158.828 11.6649 158.859 11.6953L159.433 12.2759C159.492 12.3352 159.588 12.3364 159.649 12.2787C160.097 11.8723 160.681 11.6471 161.287 11.6469ZM162.438 12.9178C162.439 12.9608 162.422 13.0023 162.391 13.0325L161.397 14.0356C161.368 14.065 161.328 14.0816 161.287 14.0816C161.245 14.0816 161.206 14.065 161.176 14.0356L160.182 13.0325C160.152 13.0023 160.135 12.9608 160.136 12.9177C160.137 12.8747 160.155 12.8339 160.187 12.805C160.822 12.2681 161.752 12.2681 162.386 12.805C162.418 12.8339 162.437 12.8747 162.438 12.9178Z" fill="black"/>
<path fill-rule="evenodd" clip-rule="evenodd" d="M154.487 8.79175H153.989C153.715 8.79175 153.492 9.01455 153.492 9.2894V13.6023C153.492 13.8772 153.715 14.1 153.989 14.1H154.487C154.762 14.1 154.985 13.8772 154.985 13.6023V9.2894C154.985 9.01455 154.762 8.79175 154.487 8.79175ZM151.667 9.95294H152.165C152.44 9.95294 152.662 10.1757 152.662 10.4506V13.6024C152.662 13.8772 152.44 14.1 152.165 14.1H151.667C151.392 14.1 151.169 13.8772 151.169 13.6024V10.4506C151.169 10.1757 151.392 9.95294 151.667 9.95294ZM149.842 11.1141H149.345C149.07 11.1141 148.847 11.3369 148.847 11.6117V13.6023C148.847 13.8772 149.07 14.1 149.345 14.1H149.842C150.117 14.1 150.34 13.8772 150.34 13.6023V11.6117C150.34 11.3369 150.117 11.1141 149.842 11.1141ZM147.52 12.1094H147.022C146.747 12.1094 146.525 12.3322 146.525 12.607V13.6023C146.525 13.8772 146.747 14.1 147.022 14.1H147.52C147.795 14.1 148.018 13.8772 148.018 13.6023V12.607C148.018 12.3322 147.795 12.1094 147.52 12.1094Z" fill="black"/>
<path d="M18.5726 14.0617C19.9102 14.0617 20.7048 13.0156 20.7048 11.2442C20.7048 10.5772 20.5772 10.0159 20.333 9.58212C19.9795 8.90782 19.3708 8.54333 18.6017 8.54333C17.4572 8.54333 16.6481 9.3124 16.6481 10.3913C16.6481 11.4046 17.377 12.1408 18.3794 12.1408C18.9954 12.1408 19.4947 11.8529 19.7426 11.3535H19.7535C19.7535 11.3535 19.7681 11.3535 19.7717 11.3535C19.779 11.3535 19.8045 11.3535 19.8045 11.3535C19.8045 12.5563 19.3489 13.2744 18.5799 13.2744C18.1279 13.2744 17.778 13.0265 17.6577 12.6292H16.721C16.8777 13.4931 17.6103 14.0617 18.5726 14.0617ZM18.6054 11.3936C18.0003 11.3936 17.5702 10.9635 17.5702 10.3621C17.5702 9.7753 18.0222 9.32698 18.609 9.32698C19.1958 9.32698 19.6478 9.78259 19.6478 10.3767C19.6478 10.9635 19.2068 11.3936 18.6054 11.3936Z" fill="black"/>
<path d="M22.2431 14.0106C22.5894 14.0106 22.8263 13.7628 22.8263 13.4348C22.8263 13.1031 22.5894 12.8589 22.2431 12.8589C21.9005 12.8589 21.6599 13.1031 21.6599 13.4348C21.6599 13.7628 21.9005 14.0106 22.2431 14.0106ZM22.2431 11.277C22.5894 11.277 22.8263 11.0328 22.8263 10.7047C22.8263 10.3731 22.5894 10.1289 22.2431 10.1289C21.9005 10.1289 21.6599 10.3731 21.6599 10.7047C21.6599 11.0328 21.9005 11.277 22.2431 11.277Z" fill="black"/>
<path d="M26.238 13.9341H27.1383V12.9536H27.8491V12.1591H27.1383V8.67455H25.8116C24.8821 10.0742 24.1422 11.2442 23.6684 12.1153V12.9536H26.238V13.9341ZM24.5395 12.1262C25.1519 11.0474 25.6986 10.1835 26.2016 9.43997H26.2526V12.1809H24.5395V12.1262Z" fill="black"/>
<path d="M29.8539 13.9341H30.7943V8.67455H29.8575L28.4834 9.6368V10.5407L29.7919 9.62222H29.8539V13.9341Z" fill="black"/>
<path d="M64.258 34.6498V33.001H72.9209V34.6498H69.565V43.8588H67.614V34.6498H64.258ZM76.9303 44.0178C76.1138 44.0178 75.4087 43.8482 74.8149 43.5089C74.2247 43.166 73.7705 42.6818 73.4524 42.0562C73.1343 41.4271 72.9753 40.6866 72.9753 39.8348C72.9753 38.9972 73.1343 38.262 73.4524 37.6293C73.774 36.9931 74.2229 36.4983 74.799 36.1449C75.3751 35.7879 76.052 35.6094 76.8295 35.6094C77.3314 35.6094 77.805 35.6907 78.2504 35.8533C78.6993 36.0123 79.0951 36.2598 79.4379 36.5955C79.7843 36.9313 80.0565 37.359 80.2544 37.8785C80.4523 38.3945 80.5513 39.0095 80.5513 39.7235V40.312H73.8765V39.0184H78.7116C78.7081 38.6508 78.6286 38.3239 78.473 38.0376C78.3175 37.7477 78.1002 37.5198 77.8209 37.3537C77.5453 37.1875 77.2236 37.1045 76.856 37.1045C76.4637 37.1045 76.1191 37.1999 75.8222 37.3908C75.5253 37.5781 75.2938 37.8255 75.1277 38.133C74.9651 38.437 74.8821 38.771 74.8785 39.135V40.2643C74.8785 40.7379 74.9651 41.1443 75.1383 41.4836C75.3115 41.8194 75.5536 42.0774 75.8646 42.2577C76.1757 42.4344 76.5397 42.5228 76.9568 42.5228C77.236 42.5228 77.4887 42.4839 77.7149 42.4061C77.9411 42.3248 78.1373 42.2064 78.3034 42.0509C78.4695 41.8954 78.595 41.7028 78.6798 41.473L80.4718 41.6745C80.3587 42.1481 80.1431 42.5616 79.825 42.9151C79.5104 43.265 79.1075 43.5371 78.6162 43.7315C78.1249 43.9224 77.5629 44.0178 76.9303 44.0178ZM83.5692 35.7154L85.2128 38.7215L86.8828 35.7154H88.9133L86.4586 39.7871L88.9557 43.8588H86.9358L85.2128 40.927L83.5056 43.8588H81.4698L83.951 39.7871L81.5334 35.7154H83.5692ZM89.4077 34.6498V33.001H98.0706V34.6498H94.7146V43.8588H92.7636V34.6498H89.4077ZM102.027 44.0178C101.232 44.0178 100.542 43.8429 99.9593 43.493C99.3761 43.143 98.9237 42.6535 98.602 42.0244C98.2839 41.3953 98.1249 40.6601 98.1249 39.8189C98.1249 38.9777 98.2839 38.2408 98.602 37.6081C98.9237 36.9755 99.3761 36.4842 99.9593 36.1343C100.542 35.7844 101.232 35.6094 102.027 35.6094C102.822 35.6094 103.511 35.7844 104.095 36.1343C104.678 36.4842 105.128 36.9755 105.446 37.6081C105.768 38.2408 105.929 38.9777 105.929 39.8189C105.929 40.6601 105.768 41.3953 105.446 42.0244C105.128 42.6535 104.678 43.143 104.095 43.493C103.511 43.8429 102.822 44.0178 102.027 44.0178ZM102.038 42.4803C102.469 42.4803 102.829 42.3619 103.119 42.1251C103.409 41.8848 103.624 41.5632 103.766 41.1602C103.911 40.7573 103.983 40.3084 103.983 39.8136C103.983 39.3153 103.911 38.8646 103.766 38.4617C103.624 38.0552 103.409 37.7318 103.119 37.4915C102.829 37.2512 102.469 37.131 102.038 37.131C101.596 37.131 101.228 37.2512 100.935 37.4915C100.645 37.7318 100.428 38.0552 100.283 38.4617C100.141 38.8646 100.071 39.3153 100.071 39.8136C100.071 40.3084 100.141 40.7573 100.283 41.1602C100.428 41.5632 100.645 41.8848 100.935 42.1251C101.228 42.3619 101.596 42.4803 102.038 42.4803ZM109.477 39.0873V43.8588H107.558V35.7154H109.392V37.0992H109.488C109.675 36.6432 109.974 36.281 110.384 36.0123C110.797 35.7437 111.308 35.6094 111.916 35.6094C112.478 35.6094 112.967 35.7296 113.384 35.9699C113.805 36.2103 114.13 36.5584 114.36 37.0144C114.593 37.4703 114.708 38.0234 114.704 38.6738V43.8588H112.785V38.9707C112.785 38.4264 112.644 38.0005 112.361 37.693C112.082 37.3855 111.695 37.2317 111.2 37.2317C110.864 37.2317 110.566 37.3059 110.304 37.4544C110.046 37.5993 109.843 37.8096 109.694 38.0853C109.549 38.361 109.477 38.695 109.477 39.0873ZM120.261 44.0178C119.444 44.0178 118.739 43.8482 118.145 43.5089C117.555 43.166 117.101 42.6818 116.783 42.0562C116.465 41.4271 116.306 40.6866 116.306 39.8348C116.306 38.9972 116.465 38.262 116.783 37.6293C117.104 36.9931 117.553 36.4983 118.129 36.1449C118.705 35.7879 119.382 35.6094 120.16 35.6094C120.662 35.6094 121.135 35.6907 121.581 35.8533C122.03 36.0123 122.425 36.2598 122.768 36.5955C123.115 36.9313 123.387 37.359 123.585 37.8785C123.783 38.3945 123.882 39.0095 123.882 39.7235V40.312H117.207V39.0184H122.042C122.038 38.6508 121.959 38.3239 121.803 38.0376C121.648 37.7477 121.43 37.5198 121.151 37.3537C120.876 37.1875 120.554 37.1045 120.186 37.1045C119.794 37.1045 119.449 37.1999 119.153 37.3908C118.856 37.5781 118.624 37.8255 118.458 38.133C118.295 38.437 118.212 38.771 118.209 39.135V40.2643C118.209 40.7379 118.295 41.1443 118.469 41.4836C118.642 41.8194 118.884 42.0774 119.195 42.2577C119.506 42.4344 119.87 42.5228 120.287 42.5228C120.566 42.5228 120.819 42.4839 121.045 42.4061C121.271 42.3248 121.468 42.2064 121.634 42.0509C121.8 41.8954 121.925 41.7028 122.01 41.473L123.802 41.6745C123.689 42.1481 123.473 42.5616 123.155 42.9151C122.841 43.265 122.438 43.5371 121.946 43.7315C121.455 43.9224 120.893 44.0178 120.261 44.0178Z" fill="#030303"/>
<path d="M20.3108 359.91C20.3108 352.751 26.1142 346.948 33.2731 346.948H154.154C161.313 346.948 167.117 352.751 167.117 359.91V359.91C167.117 367.069 161.313 372.873 154.154 372.873H33.2732C26.1143 372.873 20.3108 367.069 20.3108 359.91V359.91Z" fill="#326CF6"/>
<path d="M87.8406 358.711C87.8142 358.464 87.703 358.272 87.5069 358.135C87.3128 357.997 87.0602 357.928 86.7492 357.928C86.5305 357.928 86.3429 357.961 86.1865 358.027C86.03 358.093 85.9103 358.183 85.8274 358.296C85.7444 358.409 85.702 358.538 85.7001 358.683C85.7001 358.804 85.7275 358.908 85.7821 358.997C85.8387 359.086 85.915 359.161 86.0112 359.223C86.1073 359.283 86.2138 359.334 86.3307 359.376C86.4476 359.417 86.5654 359.452 86.6841 359.48L87.227 359.616C87.4457 359.667 87.6559 359.736 87.8576 359.823C88.0611 359.909 88.243 360.019 88.4033 360.151C88.5654 360.283 88.6936 360.442 88.7878 360.628C88.8821 360.815 88.9292 361.034 88.9292 361.284C88.9292 361.624 88.8425 361.923 88.6691 362.181C88.4956 362.437 88.2449 362.638 87.9169 362.783C87.5908 362.926 87.1959 362.998 86.7322 362.998C86.2817 362.998 85.8905 362.928 85.5588 362.789C85.2289 362.649 84.9706 362.446 84.784 362.178C84.5993 361.91 84.4994 361.584 84.4843 361.2H85.5164C85.5314 361.401 85.5936 361.569 85.703 361.703C85.8123 361.837 85.9546 361.937 86.1299 362.003C86.3071 362.069 86.505 362.102 86.7237 362.102C86.9518 362.102 87.1516 362.068 87.3232 362C87.4966 361.93 87.6323 361.834 87.7303 361.711C87.8283 361.587 87.8783 361.442 87.8802 361.276C87.8783 361.125 87.834 361.001 87.7473 360.903C87.6606 360.803 87.539 360.72 87.3825 360.654C87.228 360.586 87.047 360.526 86.8396 360.473L86.1808 360.303C85.7039 360.181 85.3269 359.995 85.0498 359.746C84.7746 359.496 84.637 359.163 84.637 358.748C84.637 358.407 84.7294 358.108 84.9141 357.852C85.1007 357.595 85.3542 357.397 85.6747 357.255C85.9951 357.112 86.358 357.04 86.7633 357.04C87.1742 357.04 87.5343 357.112 87.8434 357.255C88.1544 357.397 88.3986 357.594 88.5758 357.846C88.7529 358.097 88.8444 358.385 88.85 358.711H87.8406ZM91.9879 358.567V359.359H89.4912V358.567H91.9879ZM90.1076 357.527H91.1311V361.604C91.1311 361.742 91.1519 361.847 91.1933 361.921C91.2367 361.992 91.2933 362.041 91.363 362.068C91.4327 362.094 91.51 362.107 91.5949 362.107C91.6589 362.107 91.7174 362.103 91.7702 362.093C91.8248 362.084 91.8663 362.075 91.8946 362.068L92.0671 362.868C92.0124 362.887 91.9342 362.907 91.8324 362.93C91.7325 362.953 91.6099 362.966 91.4648 362.97C91.2084 362.977 90.9775 362.939 90.772 362.854C90.5666 362.767 90.4035 362.633 90.2829 362.452C90.1641 362.271 90.1057 362.045 90.1076 361.774V357.527ZM94.0937 362.998C93.8185 362.998 93.5706 362.949 93.3501 362.851C93.1314 362.751 92.958 362.604 92.8298 362.41C92.7035 362.216 92.6403 361.976 92.6403 361.692C92.6403 361.447 92.6856 361.244 92.7761 361.084C92.8665 360.923 92.99 360.795 93.1465 360.699C93.3029 360.603 93.4792 360.53 93.6752 360.481C93.8731 360.431 94.0777 360.394 94.2888 360.371C94.5433 360.345 94.7497 360.321 94.908 360.3C95.0664 360.278 95.1814 360.244 95.253 360.199C95.3265 360.152 95.3633 360.079 95.3633 359.981V359.964C95.3633 359.751 95.3001 359.586 95.1738 359.469C95.0475 359.352 94.8656 359.294 94.6281 359.294C94.3774 359.294 94.1785 359.349 94.0315 359.458C93.8863 359.567 93.7883 359.696 93.7374 359.845L92.7817 359.71C92.8571 359.446 92.9815 359.225 93.155 359.048C93.3284 358.869 93.5404 358.735 93.7911 358.646C94.0419 358.556 94.319 358.511 94.6224 358.511C94.8317 358.511 95.04 358.535 95.2473 358.584C95.4547 358.633 95.6441 358.714 95.8157 358.827C95.9872 358.939 96.1248 359.09 96.2285 359.283C96.3341 359.475 96.3868 359.715 96.3868 360.004V362.91H95.4028V362.314H95.3689C95.3067 362.434 95.2191 362.547 95.106 362.653C94.9947 362.757 94.8543 362.841 94.6847 362.905C94.5169 362.967 94.3199 362.998 94.0937 362.998ZM94.3595 362.246C94.565 362.246 94.7431 362.205 94.8939 362.124C95.0447 362.041 95.1606 361.932 95.2417 361.796C95.3246 361.661 95.3661 361.513 95.3661 361.352V360.841C95.334 360.867 95.2794 360.891 95.2021 360.914C95.1267 360.937 95.0419 360.956 94.9476 360.973C94.8534 360.99 94.7601 361.005 94.6677 361.019C94.5753 361.032 94.4952 361.043 94.4273 361.053C94.2747 361.073 94.138 361.107 94.0174 361.154C93.8967 361.202 93.8015 361.267 93.7318 361.352C93.662 361.435 93.6272 361.543 93.6272 361.675C93.6272 361.863 93.696 362.005 93.8336 362.102C93.9712 362.198 94.1465 362.246 94.3595 362.246ZM97.4161 362.91V358.567H98.4085V359.291H98.4538C98.5329 359.04 98.6687 358.847 98.8609 358.711C99.0551 358.574 99.2766 358.505 99.5254 358.505C99.582 358.505 99.6451 358.508 99.7148 358.513C99.7865 358.517 99.8459 358.524 99.893 358.533V359.475C99.8496 359.46 99.7808 359.447 99.6866 359.435C99.5942 359.422 99.5047 359.415 99.418 359.415C99.2313 359.415 99.0636 359.456 98.9147 359.537C98.7676 359.616 98.6517 359.726 98.5669 359.868C98.482 360.009 98.4396 360.172 98.4396 360.357V362.91H97.4161ZM102.975 358.567V359.359H100.478V358.567H102.975ZM101.095 357.527H102.118V361.604C102.118 361.742 102.139 361.847 102.18 361.921C102.224 361.992 102.28 362.041 102.35 362.068C102.42 362.094 102.497 362.107 102.582 362.107C102.646 362.107 102.704 362.103 102.757 362.093C102.812 362.084 102.853 362.075 102.882 362.068L103.054 362.868C103 362.887 102.921 362.907 102.819 362.93C102.72 362.953 102.597 362.966 102.452 362.97C102.196 362.977 101.965 362.939 101.759 362.854C101.554 362.767 101.391 362.633 101.27 362.452C101.151 362.271 101.093 362.045 101.095 361.774V357.527Z" fill="white"/>
<path d="M34.8457 322.591C34.8011 322.436 34.7386 322.3 34.658 322.181C34.5774 322.06 34.4788 321.958 34.3622 321.875C34.2476 321.791 34.1162 321.726 33.9677 321.681C33.8214 321.637 33.6592 321.615 33.481 321.615C33.1481 321.615 32.8554 321.697 32.6031 321.863C32.3528 322.028 32.1577 322.269 32.0178 322.585C31.8778 322.899 31.8078 323.282 31.8078 323.736C31.8078 324.19 31.8768 324.576 32.0146 324.894C32.1524 325.212 32.3475 325.455 32.5999 325.623C32.8523 325.788 33.1502 325.871 33.4938 325.871C33.8055 325.871 34.0716 325.816 34.2922 325.705C34.5148 325.593 34.6845 325.435 34.8011 325.231C34.9199 325.028 34.9793 324.787 34.9793 324.509L35.2592 324.551H33.5796V323.514H36.3057V324.334C36.3057 324.907 36.1849 325.399 35.9431 325.81C35.7014 326.22 35.3684 326.536 34.9443 326.758C34.5202 326.979 34.0345 327.089 33.4874 327.089C32.8766 327.089 32.3401 326.954 31.8778 326.685C31.4155 326.414 31.055 326.029 30.7963 325.53C30.5397 325.03 30.4114 324.436 30.4114 323.749C30.4114 323.221 30.4877 322.75 30.6404 322.337C30.7952 321.921 31.0115 321.569 31.2893 321.281C31.5671 320.992 31.8905 320.773 32.2595 320.622C32.6285 320.472 33.0283 320.396 33.4588 320.396C33.8278 320.396 34.1713 320.45 34.4894 320.559C34.8075 320.665 35.0895 320.815 35.3355 321.01C35.5837 321.205 35.7862 321.438 35.9431 321.707C36.1 321.974 36.2008 322.269 36.2453 322.591H34.8457ZM39.5416 327.095C39.039 327.095 38.6064 326.994 38.2438 326.79C37.8832 326.584 37.6054 326.294 37.4103 325.918C37.2152 325.541 37.1177 325.095 37.1177 324.579C37.1177 324.077 37.2152 323.636 37.4103 323.256C37.6054 322.876 37.8801 322.581 38.2342 322.368C38.5905 322.156 39.0083 322.05 39.4875 322.05C39.8099 322.05 40.1099 322.102 40.3877 322.206C40.6677 322.308 40.9115 322.462 41.1194 322.668C41.3293 322.873 41.4926 323.132 41.6092 323.444C41.7259 323.753 41.7842 324.116 41.7842 324.532V324.904H37.6585V324.064H40.5086C40.5086 323.869 40.4662 323.696 40.3814 323.545C40.2966 323.395 40.1789 323.277 40.0283 323.192C39.8798 323.105 39.707 323.062 39.5098 323.062C39.3041 323.062 39.1217 323.11 38.9627 323.205C38.8057 323.298 38.6827 323.425 38.5937 323.584C38.5046 323.741 38.459 323.916 38.4569 324.108V324.907C38.4569 325.149 38.5014 325.358 38.5905 325.534C38.6817 325.71 38.81 325.845 38.9754 325.941C39.1408 326.036 39.337 326.084 39.5639 326.084C39.7144 326.084 39.8523 326.063 39.9774 326.02C40.1025 325.978 40.2096 325.914 40.2987 325.829C40.3877 325.745 40.4556 325.641 40.5023 325.518L41.7556 325.6C41.6919 325.902 41.5615 326.164 41.3643 326.389C41.1692 326.612 40.9168 326.786 40.6072 326.911C40.2997 327.034 39.9445 327.095 39.5416 327.095ZM45.2674 322.114V323.132H42.325V322.114H45.2674ZM42.993 320.943H44.3481V325.499C44.3481 325.624 44.3671 325.721 44.4053 325.791C44.4435 325.859 44.4965 325.907 44.5644 325.934C44.6344 325.962 44.7149 325.976 44.8061 325.976C44.8697 325.976 44.9334 325.97 44.997 325.96C45.0606 325.947 45.1094 325.938 45.1433 325.931L45.3564 326.94C45.2886 326.961 45.1931 326.985 45.0701 327.013C44.9471 327.042 44.7976 327.06 44.6216 327.067C44.295 327.08 44.0088 327.036 43.7628 326.936C43.5189 326.837 43.3291 326.682 43.1934 326.472C43.0576 326.262 42.9908 325.997 42.993 325.677V320.943ZM50.45 327.095C49.9474 327.095 49.5148 326.994 49.1521 326.79C48.7916 326.584 48.5138 326.294 48.3187 325.918C48.1236 325.541 48.0261 325.095 48.0261 324.579C48.0261 324.077 48.1236 323.636 48.3187 323.256C48.5138 322.876 48.7884 322.581 49.1426 322.368C49.4989 322.156 49.9166 322.05 50.3959 322.05C50.7182 322.05 51.0183 322.102 51.2961 322.206C51.5761 322.308 51.8199 322.462 52.0278 322.668C52.2377 322.873 52.401 323.132 52.5176 323.444C52.6343 323.753 52.6926 324.116 52.6926 324.532V324.904H48.5668V324.064H51.417C51.417 323.869 51.3746 323.696 51.2898 323.545C51.2049 323.395 51.0872 323.277 50.9367 323.192C50.7882 323.105 50.6154 323.062 50.4182 323.062C50.2125 323.062 50.0301 323.11 49.871 323.205C49.7141 323.298 49.5911 323.425 49.502 323.584C49.413 323.741 49.3674 323.916 49.3653 324.108V324.907C49.3653 325.149 49.4098 325.358 49.4989 325.534C49.5901 325.71 49.7184 325.845 49.8838 325.941C50.0492 326.036 50.2453 326.084 50.4722 326.084C50.6228 326.084 50.7607 326.063 50.8858 326.02C51.0109 325.978 51.118 325.914 51.2071 325.829C51.2961 325.745 51.364 325.641 51.4106 325.518L52.6639 325.6C52.6003 325.902 52.4699 326.164 52.2727 326.389C52.0776 326.612 51.8252 326.786 51.5156 326.911C51.2081 327.034 50.8529 327.095 50.45 327.095ZM58.0008 322.114L56.2927 327H54.7658L53.0576 322.114H54.489L55.5038 325.61H55.5547L56.5662 322.114H58.0008ZM60.7635 327.095C60.2609 327.095 59.8283 326.994 59.4657 326.79C59.1052 326.584 58.8274 326.294 58.6323 325.918C58.4372 325.541 58.3396 325.095 58.3396 324.579C58.3396 324.077 58.4372 323.636 58.6323 323.256C58.8274 322.876 59.102 322.581 59.4561 322.368C59.8124 322.156 60.2302 322.05 60.7094 322.05C61.0318 322.05 61.3319 322.102 61.6097 322.206C61.8896 322.308 62.1335 322.462 62.3413 322.668C62.5512 322.873 62.7145 323.132 62.8312 323.444C62.9478 323.753 63.0061 324.116 63.0061 324.532V324.904H58.8804V324.064H61.7305C61.7305 323.869 61.6881 323.696 61.6033 323.545C61.5185 323.395 61.4008 323.277 61.2502 323.192C61.1018 323.105 60.9289 323.062 60.7317 323.062C60.526 323.062 60.3436 323.11 60.1846 323.205C60.0277 323.298 59.9047 323.425 59.8156 323.584C59.7265 323.741 59.6809 323.916 59.6788 324.108V324.907C59.6788 325.149 59.7233 325.358 59.8124 325.534C59.9036 325.71 60.0319 325.845 60.1973 325.941C60.3627 326.036 60.5589 326.084 60.7858 326.084C60.9364 326.084 61.0742 326.063 61.1993 326.02C61.3244 325.978 61.4315 325.914 61.5206 325.829C61.6097 325.745 61.6775 325.641 61.7242 325.518L62.9775 325.6C62.9139 325.902 62.7835 326.164 62.5862 326.389C62.3911 326.612 62.1388 326.786 61.8292 326.911C61.5217 327.034 61.1665 327.095 60.7635 327.095ZM63.8904 327V322.114H65.2042V322.967H65.2551C65.3441 322.663 65.4936 322.434 65.7036 322.279C65.9135 322.122 66.1553 322.044 66.4289 322.044C66.4967 322.044 66.5699 322.048 66.6483 322.057C66.7268 322.065 66.7957 322.077 66.8551 322.092V323.294C66.7915 323.275 66.7035 323.258 66.5911 323.243C66.4787 323.228 66.3758 323.221 66.2825 323.221C66.0832 323.221 65.9051 323.264 65.7481 323.351C65.5933 323.436 65.4703 323.555 65.3791 323.708C65.2901 323.86 65.2455 324.036 65.2455 324.236V327H63.8904ZM68.541 328.832C68.3693 328.832 68.2081 328.818 68.0575 328.791C67.9091 328.765 67.7861 328.733 67.6885 328.692L67.9939 327.681C68.1529 327.73 68.2961 327.756 68.4233 327.76C68.5527 327.764 68.664 327.735 68.7573 327.671C68.8528 327.608 68.9302 327.499 68.9895 327.347L69.0691 327.14L67.3163 322.114H68.7414L69.753 325.702H69.8039L70.825 322.114H72.2596L70.3605 327.528C70.2694 327.791 70.1453 328.02 69.9884 328.215C69.8336 328.412 69.6374 328.564 69.3999 328.67C69.1624 328.778 68.8761 328.832 68.541 328.832ZM75.0032 327.095C74.5091 327.095 74.0818 326.99 73.7213 326.781C73.3629 326.568 73.0861 326.274 72.891 325.896C72.6959 325.517 72.5984 325.077 72.5984 324.576C72.5984 324.071 72.6959 323.63 72.891 323.253C73.0861 322.873 73.3629 322.578 73.7213 322.368C74.0818 322.156 74.5091 322.05 75.0032 322.05C75.4973 322.05 75.9236 322.156 76.2819 322.368C76.6425 322.578 76.9203 322.873 77.1154 323.253C77.3105 323.63 77.408 324.071 77.408 324.576C77.408 325.077 77.3105 325.517 77.1154 325.896C76.9203 326.274 76.6425 326.568 76.2819 326.781C75.9236 326.99 75.4973 327.095 75.0032 327.095ZM75.0096 326.046C75.2343 326.046 75.422 325.982 75.5726 325.855C75.7232 325.725 75.8366 325.549 75.913 325.327C75.9914 325.104 76.0306 324.851 76.0306 324.567C76.0306 324.282 75.9914 324.029 75.913 323.806C75.8366 323.584 75.7232 323.408 75.5726 323.278C75.422 323.149 75.2343 323.084 75.0096 323.084C74.7826 323.084 74.5918 323.149 74.437 323.278C74.2843 323.408 74.1687 323.584 74.0902 323.806C74.0139 324.029 73.9757 324.282 73.9757 324.567C73.9757 324.851 74.0139 325.104 74.0902 325.327C74.1687 325.549 74.2843 325.725 74.437 325.855C74.5918 325.982 74.7826 326.046 75.0096 326.046ZM79.6442 324.175V327H78.2891V322.114H79.5806V322.976H79.6379C79.746 322.692 79.9274 322.467 80.1818 322.302C80.4363 322.134 80.7449 322.05 81.1075 322.05C81.4468 322.05 81.7426 322.125 81.995 322.273C82.2473 322.422 82.4435 322.634 82.5835 322.909C82.7234 323.183 82.7934 323.509 82.7934 323.889V327H81.4383V324.131C81.4404 323.832 81.3641 323.598 81.2093 323.431C81.0545 323.261 80.8414 323.176 80.5699 323.176C80.3875 323.176 80.2264 323.216 80.0864 323.294C79.9486 323.373 79.8404 323.487 79.7619 323.638C79.6856 323.786 79.6464 323.965 79.6442 324.175ZM86.0881 327.095C85.5855 327.095 85.1529 326.994 84.7903 326.79C84.4298 326.584 84.152 326.294 83.9569 325.918C83.7618 325.541 83.6642 325.095 83.6642 324.579C83.6642 324.077 83.7618 323.636 83.9569 323.256C84.152 322.876 84.4266 322.581 84.7807 322.368C85.137 322.156 85.5548 322.05 86.034 322.05C86.3564 322.05 86.6565 322.102 86.9343 322.206C87.2142 322.308 87.4581 322.462 87.6659 322.668C87.8758 322.873 88.0391 323.132 88.1558 323.444C88.2724 323.753 88.3307 324.116 88.3307 324.532V324.904H84.205V324.064H87.0551C87.0551 323.869 87.0127 323.696 86.9279 323.545C86.8431 323.395 86.7254 323.277 86.5748 323.192C86.4264 323.105 86.2535 323.062 86.0563 323.062C85.8506 323.062 85.6682 323.11 85.5092 323.205C85.3523 323.298 85.2293 323.425 85.1402 323.584C85.0511 323.741 85.0055 323.916 85.0034 324.108V324.907C85.0034 325.149 85.0479 325.358 85.137 325.534C85.2282 325.71 85.3565 325.845 85.5219 325.941C85.6873 326.036 85.8835 326.084 86.1104 326.084C86.261 326.084 86.3988 326.063 86.5239 326.02C86.649 325.978 86.7561 325.914 86.8452 325.829C86.9343 325.745 87.0021 325.641 87.0488 325.518L88.3021 325.6C88.2385 325.902 88.108 326.164 87.9108 326.389C87.7157 326.612 87.4634 326.786 87.1537 326.911C86.8463 327.034 86.491 327.095 86.0881 327.095ZM92.1248 328.832C91.9531 328.832 91.7919 328.818 91.6413 328.791C91.4929 328.765 91.3699 328.733 91.2723 328.692L91.5777 327.681C91.7368 327.73 91.8799 327.756 92.0071 327.76C92.1365 327.764 92.2478 327.735 92.3411 327.671C92.4366 327.608 92.514 327.499 92.5734 327.347L92.6529 327.14L90.9002 322.114H92.3252L93.3368 325.702H93.3877L94.4088 322.114H95.8434L93.9444 327.528C93.8532 327.791 93.7291 328.02 93.5722 328.215C93.4174 328.412 93.2212 328.564 92.9837 328.67C92.7462 328.778 92.4599 328.832 92.1248 328.832ZM98.587 327.095C98.0929 327.095 97.6656 326.99 97.3051 326.781C96.9467 326.568 96.6699 326.274 96.4748 325.896C96.2797 325.517 96.1822 325.077 96.1822 324.576C96.1822 324.071 96.2797 323.63 96.4748 323.253C96.6699 322.873 96.9467 322.578 97.3051 322.368C97.6656 322.156 98.0929 322.05 98.587 322.05C99.0811 322.05 99.5074 322.156 99.8657 322.368C100.226 322.578 100.504 322.873 100.699 323.253C100.894 323.63 100.992 324.071 100.992 324.576C100.992 325.077 100.894 325.517 100.699 325.896C100.504 326.274 100.226 326.568 99.8657 326.781C99.5074 326.99 99.0811 327.095 98.587 327.095ZM98.5934 326.046C98.8181 326.046 99.0058 325.982 99.1564 325.855C99.307 325.725 99.4204 325.549 99.4968 325.327C99.5752 325.104 99.6144 324.851 99.6144 324.567C99.6144 324.282 99.5752 324.029 99.4968 323.806C99.4204 323.584 99.307 323.408 99.1564 323.278C99.0058 323.149 98.8181 323.084 98.5934 323.084C98.3664 323.084 98.1756 323.149 98.0208 323.278C97.8681 323.408 97.7525 323.584 97.6741 323.806C97.5977 324.029 97.5595 324.282 97.5595 324.567C97.5595 324.851 97.5977 325.104 97.6741 325.327C97.7525 325.549 97.8681 325.725 98.0208 325.855C98.1756 325.982 98.3664 326.046 98.5934 326.046ZM105.006 324.92V322.114H106.361V327H105.06V326.113H105.009C104.899 326.399 104.716 326.629 104.459 326.803C104.205 326.977 103.894 327.064 103.527 327.064C103.2 327.064 102.913 326.989 102.665 326.841C102.417 326.693 102.223 326.481 102.083 326.208C101.945 325.934 101.875 325.607 101.873 325.225V322.114H103.228V324.983C103.23 325.272 103.308 325.5 103.46 325.667C103.613 325.835 103.818 325.918 104.074 325.918C104.237 325.918 104.39 325.881 104.532 325.807C104.674 325.731 104.789 325.618 104.876 325.47C104.965 325.322 105.008 325.138 105.006 324.92ZM112.117 322.114V323.132H109.175V322.114H112.117ZM109.843 320.943H111.198V325.499C111.198 325.624 111.217 325.721 111.255 325.791C111.293 325.859 111.346 325.907 111.414 325.934C111.484 325.962 111.565 325.976 111.656 325.976C111.72 325.976 111.783 325.97 111.847 325.96C111.911 325.947 111.959 325.938 111.993 325.931L112.206 326.94C112.139 326.961 112.043 326.985 111.92 327.013C111.797 327.042 111.648 327.06 111.472 327.067C111.145 327.08 110.859 327.036 110.613 326.936C110.369 326.837 110.179 326.682 110.043 326.472C109.908 326.262 109.841 325.997 109.843 325.677V320.943ZM115.174 327.095C114.672 327.095 114.239 326.994 113.876 326.79C113.516 326.584 113.238 326.294 113.043 325.918C112.848 325.541 112.75 325.095 112.75 324.579C112.75 324.077 112.848 323.636 113.043 323.256C113.238 322.876 113.513 322.581 113.867 322.368C114.223 322.156 114.641 322.05 115.12 322.05C115.443 322.05 115.743 322.102 116.02 322.206C116.3 322.308 116.544 322.462 116.752 322.668C116.962 322.873 117.125 323.132 117.242 323.444C117.359 323.753 117.417 324.116 117.417 324.532V324.904H113.291V324.064H116.141C116.141 323.869 116.099 323.696 116.014 323.545C115.929 323.395 115.811 323.277 115.661 323.192C115.512 323.105 115.34 323.062 115.142 323.062C114.937 323.062 114.754 323.11 114.595 323.205C114.438 323.298 114.315 323.425 114.226 323.584C114.137 323.741 114.092 323.916 114.09 324.108V324.907C114.09 325.149 114.134 325.358 114.223 325.534C114.314 325.71 114.443 325.845 114.608 325.941C114.773 326.036 114.97 326.084 115.197 326.084C115.347 326.084 115.485 326.063 115.61 326.02C115.735 325.978 115.842 325.914 115.931 325.829C116.02 325.745 116.088 325.641 116.135 325.518L117.388 325.6C117.325 325.902 117.194 326.164 116.997 326.389C116.802 326.612 116.549 326.786 116.24 326.911C115.932 327.034 115.577 327.095 115.174 327.095ZM119.346 322.114L120.243 323.822L121.162 322.114H122.553L121.137 324.557L122.591 327H121.207L120.243 325.311L119.295 327H117.896L119.346 324.557L117.946 322.114H119.346ZM125.956 322.114V323.132H123.014V322.114H125.956ZM123.682 320.943H125.037V325.499C125.037 325.624 125.056 325.721 125.094 325.791C125.132 325.859 125.185 325.907 125.253 325.934C125.323 325.962 125.404 325.976 125.495 325.976C125.559 325.976 125.622 325.97 125.686 325.96C125.749 325.947 125.798 325.938 125.832 325.931L126.045 326.94C125.977 326.961 125.882 326.985 125.759 327.013C125.636 327.042 125.486 327.06 125.31 327.067C124.984 327.08 124.698 327.036 124.452 326.936C124.208 326.837 124.018 326.682 123.882 326.472C123.746 326.262 123.68 325.997 123.682 325.677V320.943ZM131.12 327.095C130.626 327.095 130.198 326.99 129.838 326.781C129.479 326.568 129.203 326.274 129.008 325.896C128.812 325.517 128.715 325.077 128.715 324.576C128.715 324.071 128.812 323.63 129.008 323.253C129.203 322.873 129.479 322.578 129.838 322.368C130.198 322.156 130.626 322.05 131.12 322.05C131.614 322.05 132.04 322.156 132.398 322.368C132.759 322.578 133.037 322.873 133.232 323.253C133.427 323.63 133.525 324.071 133.525 324.576C133.525 325.077 133.427 325.517 133.232 325.896C133.037 326.274 132.759 326.568 132.398 326.781C132.04 326.99 131.614 327.095 131.12 327.095ZM131.126 326.046C131.351 326.046 131.539 325.982 131.689 325.855C131.84 325.725 131.953 325.549 132.029 325.327C132.108 325.104 132.147 324.851 132.147 324.567C132.147 324.282 132.108 324.029 132.029 323.806C131.953 323.584 131.84 323.408 131.689 323.278C131.539 323.149 131.351 323.084 131.126 323.084C130.899 323.084 130.708 323.149 130.553 323.278C130.401 323.408 130.285 323.584 130.207 323.806C130.13 324.029 130.092 324.282 130.092 324.567C130.092 324.851 130.13 325.104 130.207 325.327C130.285 325.549 130.401 325.725 130.553 325.855C130.708 325.982 130.899 326.046 131.126 326.046ZM135.761 324.175V327H134.406V322.114H135.697V322.976H135.754C135.863 322.692 136.044 322.467 136.298 322.302C136.553 322.134 136.861 322.05 137.224 322.05C137.563 322.05 137.859 322.125 138.112 322.273C138.364 322.422 138.56 322.634 138.7 322.909C138.84 323.183 138.91 323.509 138.91 323.889V327H137.555V324.131C137.557 323.832 137.481 323.598 137.326 323.431C137.171 323.261 136.958 323.176 136.686 323.176C136.504 323.176 136.343 323.216 136.203 323.294C136.065 323.373 135.957 323.487 135.878 323.638C135.802 323.786 135.763 323.965 135.761 324.175ZM144.65 322.114V323.132H141.708V322.114H144.65ZM142.376 320.943H143.731V325.499C143.731 325.624 143.75 325.721 143.788 325.791C143.826 325.859 143.879 325.907 143.947 325.934C144.017 325.962 144.098 325.976 144.189 325.976C144.252 325.976 144.316 325.97 144.38 325.96C144.443 325.947 144.492 325.938 144.526 325.931L144.739 326.94C144.671 326.961 144.576 326.985 144.453 327.013C144.33 327.042 144.18 327.06 144.004 327.067C143.678 327.08 143.391 327.036 143.145 326.936C142.902 326.837 142.712 326.682 142.576 326.472C142.44 326.262 142.373 325.997 142.376 325.677V320.943ZM146.993 324.175V327H145.638V320.485H146.955V322.976H147.012C147.122 322.688 147.3 322.462 147.546 322.299C147.792 322.133 148.101 322.05 148.472 322.05C148.811 322.05 149.107 322.125 149.359 322.273C149.614 322.419 149.811 322.63 149.951 322.906C150.093 323.18 150.163 323.507 150.161 323.889V327H148.806V324.131C148.808 323.83 148.732 323.595 148.577 323.428C148.424 323.26 148.21 323.176 147.934 323.176C147.75 323.176 147.587 323.216 147.445 323.294C147.305 323.373 147.194 323.487 147.114 323.638C147.035 323.786 146.995 323.965 146.993 324.175ZM153.454 327.095C152.952 327.095 152.519 326.994 152.156 326.79C151.796 326.584 151.518 326.294 151.323 325.918C151.128 325.541 151.03 325.095 151.03 324.579C151.03 324.077 151.128 323.636 151.323 323.256C151.518 322.876 151.793 322.581 152.147 322.368C152.503 322.156 152.921 322.05 153.4 322.05C153.722 322.05 154.023 322.102 154.3 322.206C154.58 322.308 154.824 322.462 155.032 322.668C155.242 322.873 155.405 323.132 155.522 323.444C155.638 323.753 155.697 324.116 155.697 324.532V324.904H151.571V324.064H154.421C154.421 323.869 154.379 323.696 154.294 323.545C154.209 323.395 154.091 323.277 153.941 323.192C153.792 323.105 153.62 323.062 153.422 323.062C153.217 323.062 153.034 323.11 152.875 323.205C152.718 323.298 152.595 323.425 152.506 323.584C152.417 323.741 152.372 323.916 152.369 324.108V324.907C152.369 325.149 152.414 325.358 152.503 325.534C152.594 325.71 152.723 325.845 152.888 325.941C153.053 326.036 153.25 326.084 153.476 326.084C153.627 326.084 153.765 326.063 153.89 326.02C154.015 325.978 154.122 325.914 154.211 325.829C154.3 325.745 154.368 325.641 154.415 325.518L155.668 325.6C155.605 325.902 155.474 326.164 155.277 326.389C155.082 326.612 154.829 326.786 154.52 326.911C154.212 327.034 153.857 327.095 153.454 327.095ZM72.4171 334.507L71.1765 334.584C71.1553 334.478 71.1097 334.382 71.0397 334.297C70.9697 334.21 70.8775 334.141 70.7629 334.091C70.6505 334.038 70.5159 334.011 70.359 334.011C70.149 334.011 69.9719 334.056 69.8277 334.145C69.6835 334.232 69.6114 334.348 69.6114 334.495C69.6114 334.611 69.6581 334.71 69.7514 334.79C69.8447 334.871 70.0048 334.936 70.2317 334.984L71.116 335.163C71.5911 335.26 71.9452 335.417 72.1785 335.633C72.4118 335.85 72.5284 336.134 72.5284 336.486C72.5284 336.806 72.434 337.087 72.2453 337.329C72.0587 337.571 71.8021 337.759 71.4755 337.895C71.151 338.029 70.7767 338.095 70.3526 338.095C69.7058 338.095 69.1905 337.961 68.8066 337.691C68.4249 337.42 68.2012 337.051 68.1354 336.584L69.4683 336.514C69.5086 336.712 69.6061 336.862 69.7609 336.966C69.9157 337.068 70.114 337.119 70.3558 337.119C70.5933 337.119 70.7841 337.073 70.9284 336.982C71.0747 336.889 71.1489 336.769 71.151 336.623C71.1489 336.5 71.0969 336.399 70.9952 336.32C70.8934 336.24 70.7364 336.178 70.5244 336.136L69.6782 335.967C69.2011 335.872 68.8459 335.707 68.6126 335.471C68.3814 335.236 68.2659 334.936 68.2659 334.571C68.2659 334.257 68.3507 333.987 68.5203 333.76C68.6921 333.533 68.9328 333.358 69.2424 333.235C69.5542 333.112 69.9189 333.05 70.3367 333.05C70.9538 333.05 71.4394 333.181 71.7936 333.442C72.1498 333.702 72.3577 334.058 72.4171 334.507ZM74.775 338.092C74.4632 338.092 74.1854 338.038 73.9415 337.93C73.6977 337.82 73.5047 337.658 73.3626 337.443C73.2226 337.227 73.1527 336.958 73.1527 336.635C73.1527 336.364 73.2025 336.136 73.3022 335.951C73.4018 335.767 73.5376 335.619 73.7093 335.506C73.8811 335.394 74.0762 335.309 74.2946 335.252C74.5152 335.194 74.7463 335.154 74.9881 335.131C75.2723 335.101 75.5013 335.073 75.6752 335.048C75.8491 335.02 75.9752 334.98 76.0537 334.927C76.1322 334.874 76.1714 334.796 76.1714 334.692V334.673C76.1714 334.471 76.1078 334.315 75.9805 334.205C75.8554 334.095 75.6773 334.04 75.4461 334.04C75.2023 334.04 75.0082 334.094 74.864 334.202C74.7198 334.308 74.6244 334.442 74.5777 334.603L73.3244 334.501C73.388 334.204 73.5132 333.947 73.6998 333.731C73.8864 333.513 74.1271 333.345 74.4219 333.229C74.7188 333.11 75.0623 333.05 75.4525 333.05C75.724 333.05 75.9837 333.082 76.2318 333.146C76.4821 333.209 76.7037 333.308 76.8967 333.442C77.0918 333.575 77.2455 333.747 77.3579 333.957C77.4703 334.165 77.5265 334.414 77.5265 334.705V338H76.2414V337.322H76.2032C76.1248 337.475 76.0198 337.61 75.8883 337.726C75.7568 337.841 75.5988 337.931 75.4143 337.997C75.2298 338.06 75.0167 338.092 74.775 338.092ZM75.163 337.157C75.3624 337.157 75.5384 337.118 75.6911 337.039C75.8438 336.959 75.9636 336.851 76.0505 336.715C76.1375 336.579 76.181 336.425 76.181 336.254V335.735C76.1385 335.763 76.0802 335.788 76.006 335.811C75.9339 335.833 75.8522 335.853 75.7611 335.872C75.6699 335.889 75.5787 335.905 75.4875 335.92C75.3963 335.932 75.3136 335.944 75.2394 335.955C75.0803 335.978 74.9414 336.015 74.8227 336.066C74.7039 336.117 74.6117 336.186 74.5459 336.273C74.4802 336.358 74.4473 336.464 74.4473 336.591C74.4473 336.775 74.5141 336.916 74.6477 337.014C74.7834 337.109 74.9552 337.157 75.163 337.157ZM78.5778 338V333.114H79.8693V333.976H79.9266C80.0283 333.69 80.198 333.464 80.4355 333.299C80.673 333.133 80.9572 333.05 81.288 333.05C81.6231 333.05 81.9083 333.134 82.1437 333.302C82.3791 333.467 82.536 333.692 82.6145 333.976H82.6654C82.7651 333.696 82.9453 333.472 83.2061 333.305C83.4691 333.135 83.7798 333.05 84.1382 333.05C84.5941 333.05 84.9642 333.196 85.2483 333.486C85.5346 333.775 85.6778 334.184 85.6778 334.714V338H84.3259V334.981C84.3259 334.71 84.2538 334.506 84.1095 334.37C83.9653 334.235 83.7851 334.167 83.5688 334.167C83.3228 334.167 83.1309 334.245 82.993 334.402C82.8552 334.557 82.7863 334.762 82.7863 335.016V338H81.4725V334.953C81.4725 334.713 81.4036 334.522 81.2657 334.38C81.13 334.238 80.9508 334.167 80.7282 334.167C80.5776 334.167 80.4419 334.205 80.321 334.281C80.2022 334.356 80.1079 334.461 80.0379 334.596C79.9679 334.73 79.9329 334.887 79.9329 335.067V338H78.5778ZM88.9749 338.095C88.4723 338.095 88.0397 337.994 87.677 337.79C87.3165 337.584 87.0387 337.294 86.8436 336.918C86.6485 336.541 86.551 336.095 86.551 335.579C86.551 335.077 86.6485 334.636 86.8436 334.256C87.0387 333.876 87.3133 333.581 87.6675 333.368C88.0237 333.156 88.4415 333.05 88.9208 333.05C89.2431 333.05 89.5432 333.102 89.821 333.206C90.1009 333.308 90.3448 333.462 90.5526 333.668C90.7626 333.873 90.9259 334.132 91.0425 334.444C91.1591 334.753 91.2175 335.116 91.2175 335.532V335.904H87.0917V335.064H89.9419C89.9419 334.869 89.8995 334.696 89.8146 334.545C89.7298 334.395 89.6121 334.277 89.4616 334.192C89.3131 334.105 89.1403 334.062 88.9431 334.062C88.7373 334.062 88.555 334.11 88.3959 334.205C88.239 334.298 88.116 334.425 88.0269 334.584C87.9379 334.741 87.8923 334.916 87.8901 335.108V335.907C87.8901 336.149 87.9347 336.358 88.0237 336.534C88.1149 336.71 88.2432 336.845 88.4086 336.941C88.5741 337.036 88.7702 337.084 88.9971 337.084C89.1477 337.084 89.2855 337.063 89.4107 337.02C89.5358 336.978 89.6429 336.914 89.7319 336.829C89.821 336.745 89.8889 336.641 89.9355 336.518L91.1888 336.6C91.1252 336.902 90.9948 337.164 90.7976 337.389C90.6025 337.612 90.3501 337.786 90.0405 337.911C89.733 338.034 89.3778 338.095 88.9749 338.095ZM94.175 339.832V333.114H95.511V333.935H95.5714C95.6308 333.803 95.7167 333.67 95.8291 333.534C95.9436 333.396 96.092 333.282 96.2744 333.19C96.4589 333.097 96.688 333.05 96.9615 333.05C97.3178 333.05 97.6465 333.144 97.9476 333.33C98.2488 333.515 98.4894 333.794 98.6697 334.167C98.85 334.538 98.9401 335.004 98.9401 335.563C98.9401 336.108 98.8521 336.569 98.6761 336.944C98.5022 337.317 98.2647 337.6 97.9635 337.793C97.6645 337.984 97.3295 338.08 96.9583 338.08C96.6954 338.08 96.4716 338.036 96.2871 337.949C96.1048 337.862 95.9553 337.753 95.8386 337.621C95.722 337.488 95.6329 337.353 95.5714 337.217H95.5301V339.832H94.175ZM95.5014 335.557C95.5014 335.848 95.5417 336.101 95.6223 336.317C95.7029 336.534 95.8195 336.702 95.9722 336.823C96.1249 336.942 96.3105 337.001 96.5289 337.001C96.7495 337.001 96.9361 336.941 97.0888 336.82C97.2414 336.697 97.357 336.527 97.4355 336.311C97.5161 336.092 97.5564 335.841 97.5564 335.557C97.5564 335.275 97.5171 335.027 97.4387 334.813C97.3602 334.598 97.2446 334.431 97.0919 334.31C96.9392 334.189 96.7516 334.129 96.5289 334.129C96.3084 334.129 96.1217 334.187 95.969 334.304C95.8185 334.42 95.7029 334.586 95.6223 334.8C95.5417 335.014 95.5014 335.266 95.5014 335.557ZM101.237 338.092C100.925 338.092 100.647 338.038 100.403 337.93C100.159 337.82 99.9665 337.658 99.8244 337.443C99.6844 337.227 99.6145 336.958 99.6145 336.635C99.6145 336.364 99.6643 336.136 99.764 335.951C99.8636 335.767 99.9994 335.619 100.171 335.506C100.343 335.394 100.538 335.309 100.756 335.252C100.977 335.194 101.208 335.154 101.45 335.131C101.734 335.101 101.963 335.073 102.137 335.048C102.311 335.02 102.437 334.98 102.516 334.927C102.594 334.874 102.633 334.796 102.633 334.692V334.673C102.633 334.471 102.57 334.315 102.442 334.205C102.317 334.095 102.139 334.04 101.908 334.04C101.664 334.04 101.47 334.094 101.326 334.202C101.182 334.308 101.086 334.442 101.04 334.603L99.7862 334.501C99.8498 334.204 99.975 333.947 100.162 333.731C100.348 333.513 100.589 333.345 100.884 333.229C101.181 333.11 101.524 333.05 101.914 333.05C102.186 333.05 102.446 333.082 102.694 333.146C102.944 333.209 103.165 333.308 103.358 333.442C103.554 333.575 103.707 333.747 103.82 333.957C103.932 334.165 103.988 334.414 103.988 334.705V338H102.703V337.322H102.665C102.587 337.475 102.482 337.61 102.35 337.726C102.219 337.841 102.061 337.931 101.876 337.997C101.692 338.06 101.479 338.092 101.237 338.092ZM101.625 337.157C101.824 337.157 102 337.118 102.153 337.039C102.306 336.959 102.425 336.851 102.512 336.715C102.599 336.579 102.643 336.425 102.643 336.254V335.735C102.6 335.763 102.542 335.788 102.468 335.811C102.396 335.833 102.314 335.853 102.223 335.872C102.132 335.889 102.04 335.905 101.949 335.92C101.858 335.932 101.775 335.944 101.701 335.955C101.542 335.978 101.403 336.015 101.284 336.066C101.166 336.117 101.073 336.186 101.008 336.273C100.942 336.358 100.909 336.464 100.909 336.591C100.909 336.775 100.976 336.916 101.11 337.014C101.245 337.109 101.417 337.157 101.625 337.157ZM107.241 339.934C106.802 339.934 106.425 339.874 106.112 339.753C105.8 339.634 105.552 339.472 105.367 339.266C105.183 339.06 105.063 338.829 105.008 338.573L106.261 338.404C106.299 338.502 106.36 338.593 106.442 338.678C106.525 338.762 106.634 338.83 106.77 338.881C106.908 338.934 107.075 338.961 107.273 338.961C107.567 338.961 107.81 338.889 108.001 338.744C108.194 338.602 108.291 338.364 108.291 338.029V337.135H108.233C108.174 337.27 108.085 337.399 107.966 337.52C107.847 337.641 107.695 337.739 107.508 337.816C107.321 337.892 107.099 337.93 106.84 337.93C106.473 337.93 106.139 337.845 105.838 337.676C105.539 337.504 105.3 337.242 105.122 336.89C104.946 336.536 104.858 336.088 104.858 335.547C104.858 334.994 104.948 334.532 105.129 334.161C105.309 333.789 105.549 333.512 105.848 333.327C106.149 333.143 106.478 333.05 106.837 333.05C107.11 333.05 107.339 333.097 107.524 333.19C107.708 333.282 107.857 333.396 107.969 333.534C108.084 333.67 108.172 333.803 108.233 333.935H108.284V333.114H109.63V338.048C109.63 338.463 109.528 338.811 109.324 339.091C109.121 339.371 108.839 339.581 108.478 339.721C108.12 339.863 107.707 339.934 107.241 339.934ZM107.269 336.912C107.488 336.912 107.672 336.858 107.823 336.75C107.976 336.64 108.092 336.483 108.173 336.279C108.256 336.073 108.297 335.827 108.297 335.541C108.297 335.255 108.257 335.007 108.176 334.797C108.095 334.585 107.979 334.42 107.826 334.304C107.673 334.187 107.488 334.129 107.269 334.129C107.047 334.129 106.859 334.189 106.706 334.31C106.554 334.429 106.438 334.594 106.36 334.806C106.281 335.018 106.242 335.263 106.242 335.541C106.242 335.823 106.281 336.067 106.36 336.273C106.44 336.476 106.556 336.634 106.706 336.747C106.859 336.857 107.047 336.912 107.269 336.912ZM112.935 338.095C112.432 338.095 112 337.994 111.637 337.79C111.276 337.584 110.999 337.294 110.804 336.918C110.608 336.541 110.511 336.095 110.511 335.579C110.511 335.077 110.608 334.636 110.804 334.256C110.999 333.876 111.273 333.581 111.627 333.368C111.984 333.156 112.401 333.05 112.881 333.05C113.203 333.05 113.503 333.102 113.781 333.206C114.061 333.308 114.305 333.462 114.513 333.668C114.723 333.873 114.886 334.132 115.002 334.444C115.119 334.753 115.177 335.116 115.177 335.532V335.904H111.052V335.064H113.902C113.902 334.869 113.859 334.696 113.775 334.545C113.69 334.395 113.572 334.277 113.422 334.192C113.273 334.105 113.1 334.062 112.903 334.062C112.697 334.062 112.515 334.11 112.356 334.205C112.199 334.298 112.076 334.425 111.987 334.584C111.898 334.741 111.852 334.916 111.85 335.108V335.907C111.85 336.149 111.895 336.358 111.984 336.534C112.075 336.71 112.203 336.845 112.369 336.941C112.534 337.036 112.73 337.084 112.957 337.084C113.108 337.084 113.245 337.063 113.371 337.02C113.496 336.978 113.603 336.914 113.692 336.829C113.781 336.745 113.849 336.641 113.895 336.518L115.149 336.6C115.085 336.902 114.955 337.164 114.758 337.389C114.562 337.612 114.31 337.786 114 337.911C113.693 338.034 113.338 338.095 112.935 338.095ZM116.854 338.083C116.644 338.083 116.464 338.008 116.313 337.86C116.165 337.709 116.09 337.529 116.09 337.319C116.09 337.111 116.165 336.933 116.313 336.785C116.464 336.636 116.644 336.562 116.854 336.562C117.057 336.562 117.236 336.636 117.388 336.785C117.541 336.933 117.617 337.111 117.617 337.319C117.617 337.459 117.581 337.588 117.509 337.704C117.439 337.819 117.347 337.911 117.232 337.981C117.118 338.049 116.992 338.083 116.854 338.083Z" fill="#272727"/>
<g clip-path="url(#clip1_14_281)">
<path d="M48.0783 163.505H71.855C73.3139 163.506 74.7126 164.081 75.7437 165.104C76.7748 166.126 77.354 167.512 77.354 168.957V192.462L71.7713 187.375H48.0894C47.3673 187.375 46.6523 187.234 45.9851 186.961C45.3179 186.687 44.7117 186.286 44.2011 185.78C43.6905 185.274 43.2854 184.674 43.0091 184.013C42.7327 183.352 42.5905 182.644 42.5905 181.929V168.957C42.5905 167.514 43.1681 166.129 44.1968 165.107C45.2255 164.086 46.6213 163.509 48.0783 163.505V163.505Z" fill="white" stroke="black" stroke-width="0.497647" stroke-miterlimit="10"/>
<path d="M65.4069 175.874C65.4069 176.342 65.547 176.8 65.8096 177.189C66.0721 177.578 66.4453 177.881 66.8819 178.06C67.3185 178.24 67.7989 178.286 68.2624 178.195C68.7259 178.104 69.1516 177.878 69.4858 177.547C69.82 177.216 70.0476 176.795 70.1398 176.336C70.232 175.877 70.1846 175.401 70.0038 174.968C69.8229 174.536 69.5167 174.166 69.1237 173.906C68.7308 173.646 68.2689 173.507 67.7963 173.507C67.1626 173.507 66.5548 173.757 66.1067 174.201C65.6586 174.644 65.4069 175.246 65.4069 175.874V175.874Z" fill="white" stroke="black" stroke-width="0.497647" stroke-miterlimit="10"/>
<path d="M59.4782 178.241C58.1585 178.241 57.0888 177.181 57.0888 175.874C57.0888 174.567 58.1585 173.507 59.4782 173.507C60.7978 173.507 61.8676 174.567 61.8676 175.874C61.8676 177.181 60.7978 178.241 59.4782 178.241Z" fill="white" stroke="black" stroke-width="0.497647" stroke-miterlimit="10"/>
<path d="M48.7705 175.874C48.7694 176.344 48.909 176.803 49.1718 177.194C49.4345 177.585 49.8085 177.89 50.2464 178.07C50.6842 178.25 51.1662 178.298 51.6313 178.206C52.0964 178.115 52.5237 177.889 52.859 177.557C53.1942 177.225 53.4224 176.802 53.5147 176.341C53.6069 175.88 53.559 175.403 53.3771 174.969C53.1951 174.536 52.8873 174.165 52.4926 173.905C52.0978 173.645 51.634 173.506 51.1598 173.507C50.5261 173.507 49.9184 173.757 49.4703 174.201C49.0222 174.644 48.7705 175.246 48.7705 175.874V175.874Z" fill="white" stroke="black" stroke-width="0.497647" stroke-miterlimit="10"/>
</g>
<path d="M32.3471 226.429C16.406 226.429 3.48352 214.307 3.48352 199.352C3.48352 188.786 9.92779 179.63 19.3534 175.172" stroke="#C1C0FF" stroke-width="0.497647" stroke-miterlimit="10" stroke-dasharray="1.99 1.99"/>
<path d="M119.634 231.321C121.351 247.037 109.527 261.22 93.2242 263.006C76.9213 264.793 62.3153 253.496 60.6084 237.781" stroke="#C1C0FF" stroke-width="0.497647" stroke-miterlimit="10" stroke-dasharray="1.99 1.99"/>
<path d="M153.693 154.728C169.632 154.728 182.552 142.093 182.552 126.507C182.552 110.921 169.632 98.2853 153.693 98.2853C137.755 98.2853 124.835 110.921 124.835 126.507C124.835 142.093 137.755 154.728 153.693 154.728Z" stroke="#C1C0FF" stroke-width="0.497647" stroke-miterlimit="10" stroke-dasharray="1.99 1.99"/>
<path d="M42.6134 253.924L44.0616 255.373C44.8324 254.602 45.8778 254.169 46.9678 254.169C48.0578 254.169 49.1032 254.602 49.8741 255.373L51.3172 253.924C50.1629 252.771 48.5975 252.122 46.9653 252.122C45.3331 252.122 43.7678 252.771 42.6134 253.924V253.924Z" fill="#672ED6"/>
<path d="M40.205 251.531L41.6481 252.974C43.056 251.569 44.9639 250.78 46.953 250.78C48.9422 250.78 50.8501 251.569 52.258 252.974L53.7011 251.531C52.8152 250.644 51.7632 249.941 50.6054 249.461C49.4475 248.981 48.2064 248.734 46.953 248.734C45.6997 248.734 44.4586 248.981 43.3007 249.461C42.1429 249.941 41.0909 250.644 40.205 251.531V251.531Z" fill="#672ED6"/>
<path d="M46.9679 245.34C45.2683 245.336 43.5848 245.669 42.0148 246.32C40.4447 246.971 39.0194 247.927 37.8212 249.132L39.2643 250.575C40.2766 249.561 41.479 248.757 42.8025 248.208C44.1261 247.659 45.545 247.376 46.9779 247.376C48.4108 247.376 49.8296 247.659 51.1532 248.208C52.4768 248.757 53.6791 249.561 54.6914 250.575L56.1346 249.132C54.934 247.924 53.5054 246.967 51.9318 246.316C50.3582 245.665 48.6709 245.333 46.9679 245.34V245.34Z" fill="#672ED6"/>
<path d="M46.9679 255.373C46.622 255.372 46.2836 255.473 45.9956 255.665C45.7076 255.856 45.4829 256.129 45.3501 256.449C45.2173 256.768 45.1823 257.12 45.2495 257.459C45.3167 257.798 45.4832 258.11 45.7278 258.354C45.9724 258.599 46.2841 258.765 46.6234 258.833C46.9627 258.9 47.3143 258.865 47.6337 258.732C47.9531 258.599 48.2258 258.375 48.4174 258.087C48.6089 257.799 48.7106 257.46 48.7097 257.114C48.7084 256.653 48.5244 256.211 48.1981 255.884C47.8717 255.558 47.4294 255.374 46.9679 255.373V255.373Z" fill="#672ED6"/>
<path d="M168.255 223.538V228.012" stroke="#672ED6" stroke-width="0.373235" stroke-linecap="round" stroke-linejoin="round"/>
<path d="M166.02 225.772H170.494" stroke="#672ED6" stroke-width="0.373235" stroke-linecap="round" stroke-linejoin="round"/>
<path d="M44.8828 295.941V300.415" stroke="#DB7294" stroke-width="0.373235" stroke-linecap="round" stroke-linejoin="round"/>
<path d="M42.6433 298.18H47.1221" stroke="#DB7294" stroke-width="0.373235" stroke-linecap="round" stroke-linejoin="round"/>
<path d="M103.242 160.83V165.308" stroke="#DB7294" stroke-width="0.373235" stroke-linecap="round" stroke-linejoin="round"/>
<path d="M101.007 163.069H105.481" stroke="#DB7294" stroke-width="0.373235" stroke-linecap="round" stroke-linejoin="round"/>
<path d="M11.197 143.442V147.921" stroke="#672ED6" stroke-width="0.373235" stroke-linecap="round" stroke-linejoin="round"/>
<path d="M8.95764 145.681H13.4315" stroke="#672ED6" stroke-width="0.373235" stroke-linecap="round" stroke-linejoin="round"/>
<path d="M34.2382 219.706V224.18" stroke="#EEDA36" stroke-width="0.373235" stroke-linecap="round" stroke-linejoin="round"/>
<path d="M31.9987 221.946H36.4775" stroke="#EEDA36" stroke-width="0.373235" stroke-linecap="round" stroke-linejoin="round"/>
<path d="M124.317 276.821V281.295" stroke="#EEDA36" stroke-width="0.373235" stroke-linecap="round" stroke-linejoin="round"/>
<path d="M122.078 279.061H126.552" stroke="#EEDA36" stroke-width="0.373235" stroke-linecap="round" stroke-linejoin="round"/>
<path d="M82.9578 163.82C83.807 163.82 84.4955 163.132 84.4955 162.283C84.4955 161.433 83.807 160.745 82.9578 160.745C82.1085 160.745 81.42 161.433 81.42 162.283C81.42 163.132 82.1085 163.82 82.9578 163.82Z" stroke="#EEDA36" stroke-width="0.373235" stroke-linecap="round" stroke-linejoin="round"/>
<path d="M137.082 167.667C139.957 167.667 142.287 165.337 142.287 162.462C142.287 159.587 139.957 157.256 137.082 157.256C134.207 157.256 131.876 159.587 131.876 162.462C131.876 165.337 134.207 167.667 137.082 167.667Z" fill="#E4B0C8"/>
<path d="M140.207 160.262H134.106V164.846H140.207V160.262Z" stroke="white" stroke-width="0.497647" stroke-miterlimit="10"/>
<path d="M134.106 160.262L137.157 163.079L140.207 160.262" stroke="white" stroke-width="0.497647" stroke-miterlimit="10"/>
<path d="M44.8828 203.602L46.2861 206.036L47.6945 208.469H44.8828H42.071L43.4794 206.036L44.8828 203.602Z" fill="#D96980"/>
<path d="M166.219 274.875L169.424 277.687L172.634 280.504L168.593 281.877L164.547 283.246L165.383 279.061L166.219 274.875Z" stroke="#D96980" stroke-width="0.497647" stroke-miterlimit="10"/>
<path d="M76.8317 287.471C76.8327 287.927 76.6983 288.373 76.4455 288.753C76.1927 289.132 75.8329 289.428 75.4117 289.604C74.9904 289.779 74.5267 289.825 74.0793 289.736C73.6319 289.647 73.2209 289.428 72.8984 289.105C72.5758 288.782 72.3563 288.371 72.2675 287.924C72.1788 287.477 72.2248 287.013 72.3999 286.592C72.5749 286.17 72.871 285.811 73.2506 285.558C73.6303 285.305 74.0765 285.171 74.5326 285.172C75.1424 285.172 75.7271 285.414 76.1583 285.845C76.5895 286.276 76.8317 286.861 76.8317 287.471Z" stroke="#D96980" stroke-width="0.497647" stroke-miterlimit="10"/>
<path d="M159.327 138.107C159.327 138.749 159.136 139.376 158.78 139.91C158.423 140.443 157.917 140.859 157.324 141.105C156.731 141.35 156.078 141.414 155.449 141.289C154.82 141.164 154.242 140.855 153.788 140.401C153.334 139.947 153.025 139.369 152.9 138.74C152.775 138.111 152.839 137.458 153.084 136.865C153.33 136.272 153.746 135.766 154.279 135.409C154.813 135.053 155.44 134.862 156.082 134.862C156.943 134.862 157.768 135.204 158.376 135.813C158.985 136.421 159.327 137.246 159.327 138.107Z" stroke="#D96980" stroke-width="0.497647" stroke-miterlimit="10"/>
<path d="M95.0256 225.529C95.0256 225.937 94.9044 226.337 94.6772 226.677C94.4501 227.016 94.1272 227.281 93.7496 227.437C93.3719 227.593 92.9564 227.634 92.5556 227.554C92.1549 227.474 91.7869 227.277 91.4983 226.987C91.2096 226.698 91.0133 226.329 90.9342 225.928C90.8551 225.528 90.8967 225.112 91.0538 224.735C91.2109 224.358 91.4763 224.035 91.8166 223.809C92.1569 223.583 92.5567 223.462 92.9653 223.463C93.2363 223.463 93.5046 223.517 93.7549 223.621C94.0052 223.725 94.2326 223.877 94.4239 224.069C94.6153 224.26 94.767 224.488 94.8702 224.739C94.9735 224.989 95.0263 225.258 95.0256 225.529V225.529Z" fill="#D96980"/>
<path d="M161.387 297.896C161.388 298.305 161.268 298.705 161.041 299.046C160.814 299.386 160.492 299.652 160.114 299.808C159.737 299.965 159.321 300.007 158.92 299.927C158.519 299.848 158.15 299.651 157.861 299.362C157.572 299.073 157.375 298.704 157.296 298.303C157.216 297.902 157.258 297.486 157.415 297.109C157.572 296.731 157.837 296.409 158.177 296.182C158.518 295.956 158.918 295.835 159.327 295.836C159.873 295.836 160.397 296.053 160.784 296.44C161.17 296.826 161.387 297.35 161.387 297.896Z" fill="#D96980"/>
<path d="M99.405 267.455C99.405 267.7 99.3325 267.938 99.1966 268.142C99.0608 268.345 98.8677 268.503 98.6419 268.596C98.4161 268.689 98.1677 268.713 97.9282 268.665C97.6887 268.617 97.4688 268.499 97.2964 268.326C97.124 268.153 97.0068 267.933 96.9598 267.693C96.9127 267.453 96.9378 267.205 97.032 266.98C97.1262 266.754 97.2852 266.562 97.4888 266.427C97.6924 266.292 97.9315 266.22 98.1758 266.221C98.5022 266.223 98.8149 266.353 99.0453 266.584C99.2756 266.816 99.405 267.129 99.405 267.455Z" fill="#E4B0C8"/>
<path d="M147.602 290.671C147.602 291.163 147.456 291.644 147.183 292.053C146.909 292.462 146.521 292.781 146.066 292.97C145.612 293.158 145.111 293.207 144.629 293.111C144.146 293.015 143.702 292.778 143.355 292.43C143.007 292.082 142.77 291.639 142.674 291.156C142.578 290.673 142.627 290.173 142.815 289.719C143.003 289.264 143.322 288.875 143.732 288.602C144.141 288.328 144.622 288.182 145.114 288.182C145.774 288.182 146.407 288.445 146.873 288.911C147.34 289.378 147.602 290.011 147.602 290.671Z" stroke="#672ED6" stroke-width="0.497647" stroke-miterlimit="10"/>
<path d="M118.166 139.361C118.166 139.361 122.297 138.953 123.377 141.566C124.457 144.178 124.87 146.696 131.374 143.487" stroke="#EEDA36" stroke-width="0.497647" stroke-miterlimit="10"/>
<path d="M138.072 198.278C138.072 198.647 137.963 199.007 137.758 199.314C137.553 199.621 137.261 199.86 136.92 200.002C136.579 200.143 136.204 200.18 135.842 200.108C135.48 200.036 135.147 199.858 134.886 199.597C134.625 199.336 134.448 199.004 134.376 198.642C134.304 198.28 134.341 197.904 134.482 197.563C134.623 197.222 134.862 196.931 135.169 196.726C135.476 196.521 135.837 196.411 136.206 196.411C136.701 196.411 137.176 196.608 137.526 196.958C137.876 197.308 138.072 197.783 138.072 198.278Z" fill="#EEDA36"/>
<path d="M39.1046 140.867C40.1315 140.079 40.3249 138.608 39.5367 137.581C38.7485 136.554 37.277 136.36 36.2502 137.149C35.2233 137.937 35.0299 139.408 35.8181 140.435C36.6063 141.462 38.0778 141.656 39.1046 140.867Z" stroke="#D7D4FC" stroke-width="0.497647" stroke-miterlimit="10"/>
<g clip-path="url(#clip2_14_281)">
<path d="M136.022 89.4271H113.055C111.646 89.4271 110.294 89.9871 109.297 90.9838C108.301 91.9806 107.741 93.3324 107.741 94.742V117.674L113.145 112.697H136.037C137.446 112.697 138.798 112.137 139.795 111.14C140.792 110.144 141.352 108.792 141.352 107.382V94.742C141.352 94.0428 141.214 93.3505 140.946 92.7046C140.678 92.0588 140.285 91.4723 139.79 90.9785C139.295 90.4848 138.707 90.0936 138.06 89.8274C137.414 89.5612 136.721 89.4252 136.022 89.4271V89.4271Z" fill="white" stroke="black" stroke-width="0.497647" stroke-miterlimit="10"/>
<path d="M119.281 101.495C119.281 101.952 119.146 102.398 118.892 102.778C118.638 103.158 118.277 103.454 117.856 103.628C117.434 103.803 116.969 103.849 116.521 103.76C116.074 103.671 115.662 103.451 115.339 103.128C115.016 102.805 114.796 102.394 114.707 101.946C114.618 101.498 114.664 101.033 114.839 100.611C115.013 100.19 115.309 99.8289 115.689 99.5752C116.069 99.3215 116.515 99.186 116.972 99.186C117.584 99.186 118.172 99.4293 118.605 99.8623C119.038 100.295 119.281 100.883 119.281 101.495V101.495Z" fill="white" stroke="black" stroke-width="0.497647" stroke-miterlimit="10"/>
<path d="M127.318 101.495C127.318 101.952 127.183 102.398 126.929 102.778C126.675 103.158 126.315 103.454 125.893 103.628C125.471 103.803 125.006 103.849 124.559 103.76C124.111 103.671 123.699 103.451 123.376 103.128C123.053 102.805 122.833 102.394 122.744 101.946C122.655 101.498 122.701 101.033 122.876 100.611C123.05 100.19 123.346 99.8289 123.726 99.5752C124.106 99.3215 124.552 99.186 125.009 99.186C125.621 99.186 126.209 99.4293 126.642 99.8623C127.075 100.295 127.318 100.883 127.318 101.495V101.495Z" fill="white" stroke="black" stroke-width="0.497647" stroke-miterlimit="10"/>
<path d="M135.355 101.495C135.355 101.952 135.22 102.398 134.966 102.778C134.712 103.158 134.352 103.454 133.93 103.628C133.508 103.803 133.043 103.849 132.596 103.76C132.148 103.671 131.736 103.451 131.413 103.128C131.09 102.805 130.87 102.394 130.781 101.946C130.692 101.498 130.738 101.033 130.913 100.611C131.087 100.19 131.383 99.8289 131.763 99.5752C132.143 99.3215 132.589 99.186 133.046 99.186C133.658 99.186 134.246 99.4293 134.679 99.8623C135.112 100.295 135.355 100.883 135.355 101.495V101.495Z" fill="white" stroke="black" stroke-width="0.497647" stroke-miterlimit="10"/>
<path d="M142.641 81.8629H119.674C118.976 81.8629 118.285 82.0004 117.64 82.2675C116.995 82.5346 116.41 82.9261 115.916 83.4196C115.423 83.9132 115.031 84.4991 114.764 85.1439C114.497 85.7887 114.359 86.4799 114.359 87.1778V110.109L119.764 105.133H142.656C144.065 105.133 145.417 104.573 146.414 103.576C147.41 102.579 147.97 101.228 147.97 99.818V87.1778C147.97 86.4786 147.832 85.7863 147.564 85.1404C147.296 84.4946 146.904 83.9081 146.408 83.4143C145.913 82.9206 145.326 82.5294 144.679 82.2632C144.033 81.997 143.34 81.861 142.641 81.8629V81.8629Z" fill="white" stroke="black" stroke-width="0.497647" stroke-miterlimit="10"/>
<path d="M125.9 93.9309C125.9 94.3876 125.764 94.834 125.511 95.2138C125.257 95.5935 124.896 95.8895 124.474 96.0642C124.052 96.239 123.588 96.2847 123.14 96.1956C122.692 96.1065 122.281 95.8866 121.958 95.5637C121.635 95.2407 121.415 94.8293 121.326 94.3814C121.237 93.9335 121.283 93.4692 121.457 93.0473C121.632 92.6253 121.928 92.2647 122.308 92.011C122.688 91.7573 123.134 91.6218 123.591 91.6218C124.203 91.6218 124.79 91.8651 125.223 92.2981C125.657 92.7312 125.9 93.3185 125.9 93.9309Z" fill="white" stroke="black" stroke-width="0.497647" stroke-miterlimit="10"/>
<path d="M133.937 93.9309C133.937 94.3876 133.801 94.834 133.548 95.2138C133.294 95.5935 132.933 95.8895 132.511 96.0642C132.089 96.239 131.625 96.2847 131.177 96.1956C130.729 96.1065 130.318 95.8866 129.995 95.5637C129.672 95.2407 129.452 94.8293 129.363 94.3814C129.274 93.9335 129.32 93.4692 129.494 93.0473C129.669 92.6253 129.965 92.2647 130.345 92.011C130.725 91.7573 131.171 91.6218 131.628 91.6218C132.24 91.6218 132.827 91.8651 133.26 92.2981C133.693 92.7312 133.937 93.3185 133.937 93.9309Z" fill="white" stroke="black" stroke-width="0.497647" stroke-miterlimit="10"/>
<path d="M141.974 93.9309C141.97 94.3863 141.831 94.8304 141.576 95.2073C141.32 95.5842 140.959 95.877 140.537 96.0491C140.115 96.2211 139.652 96.2645 139.206 96.174C138.76 96.0835 138.35 95.863 138.029 95.5403C137.707 95.2176 137.489 94.807 137.4 94.3603C137.311 93.9136 137.357 93.4507 137.531 93.0297C137.704 92.6088 137.999 92.2486 138.377 91.9946C138.755 91.7405 139.199 91.6039 139.655 91.602C139.961 91.6006 140.264 91.66 140.546 91.7767C140.829 91.8934 141.085 92.0651 141.301 92.2817C141.517 92.4984 141.687 92.7558 141.803 93.0389C141.918 93.322 141.977 93.6252 141.974 93.9309V93.9309Z" fill="white" stroke="black" stroke-width="0.497647" stroke-miterlimit="10"/>
</g>
<path d="M64.9328 143.624C64.9335 143.942 64.8363 144.253 64.6543 144.514C64.4724 144.774 64.2145 144.973 63.9158 145.082C63.6171 145.191 63.292 145.206 62.9848 145.123C62.6776 145.041 62.4032 144.866 62.1988 144.623C61.9944 144.379 61.87 144.078 61.8426 143.762C61.8151 143.445 61.8859 143.127 62.0453 142.852C62.2047 142.577 62.4449 142.357 62.7334 142.224C63.0219 142.09 63.3446 142.048 63.6576 142.104C64.0131 142.171 64.3345 142.359 64.567 142.636C64.7995 142.913 64.9287 143.263 64.9328 143.624C64.9435 143.709 64.9848 143.787 65.0489 143.843C65.1129 143.9 65.1954 143.931 65.2808 143.931C65.3662 143.931 65.4487 143.9 65.5127 143.843C65.5768 143.787 65.6181 143.709 65.6288 143.624C65.6238 143.166 65.4809 142.721 65.2187 142.345C64.9564 141.97 64.5871 141.682 64.1588 141.519C63.7258 141.359 63.2537 141.337 62.8078 141.457C62.3619 141.577 61.9642 141.832 61.6697 142.188C61.4467 142.464 61.2927 142.789 61.2207 143.136C61.1488 143.484 61.1608 143.843 61.256 144.185C61.3511 144.527 61.5265 144.841 61.7676 145.101C62.0087 145.362 62.3085 145.561 62.642 145.682C62.9756 145.803 63.3332 145.842 63.6851 145.797C64.0371 145.752 64.3731 145.624 64.6653 145.422C64.9575 145.221 65.1974 144.953 65.365 144.64C65.5326 144.327 65.623 143.979 65.6288 143.624C65.6181 143.54 65.5768 143.462 65.5127 143.405C65.4487 143.349 65.3662 143.318 65.2808 143.318C65.1954 143.318 65.1129 143.349 65.0489 143.405C64.9848 143.462 64.9435 143.54 64.9328 143.624Z" fill="black"/>
<path d="M30.292 136.892C30.292 136.892 36.2557 129.898 45.9446 128.1C55.6335 126.301 75.0393 126.485 85.5412 140.35C96.0431 154.215 90.7086 136.335 67.3215 146.08C53.4006 144.688 54.9988 145.896 53.4006 144.688C51.8025 143.48 34.5462 146.052 30.292 136.892Z" fill="#672ED6" stroke="black" stroke-width="0.452859" stroke-miterlimit="10"/>
<path d="M66.441 131.181C66.441 131.181 81.4378 136.998 77.9252 142.71C74.4126 148.421 55.5692 148.949 42.5765 142.71C27.4183 135.435 40.9176 134.131 45.6326 127.147L66.441 131.181Z" fill="#672ED6" stroke="black" stroke-width="0.452859" stroke-miterlimit="10"/>
<path d="M42.3641 138.591C42.3641 139.302 42.5753 139.998 42.9708 140.59C43.3663 141.181 43.9284 141.642 44.586 141.914C45.2436 142.187 45.9672 142.257 46.6651 142.118C47.363 141.979 48.004 141.636 48.5068 141.132C49.0097 140.629 49.3518 139.987 49.49 139.289C49.6282 138.591 49.5561 137.867 49.283 137.21C49.0099 136.553 48.548 135.992 47.9557 135.597C47.3634 135.202 46.6674 134.992 45.9557 134.993C45.4836 134.993 45.0161 135.087 44.58 135.267C44.1439 135.448 43.7477 135.713 43.4141 136.047C43.0805 136.381 42.8161 136.778 42.6359 137.214C42.4558 137.651 42.3634 138.118 42.3641 138.591V138.591Z" fill="white"/>
<path fill-rule="evenodd" clip-rule="evenodd" d="M32.9593 100.18H93.6209C96.0596 100.18 98.0366 102.157 98.0366 104.596V143.635C98.0366 146.074 96.0596 148.051 93.6209 148.051H32.9593C30.5206 148.051 28.5436 146.074 28.5436 143.635V104.596C28.5436 102.157 30.5206 100.18 32.9593 100.18ZM37.5587 102.964H89.0214C91.4601 102.964 93.4371 104.941 93.4371 107.38V135.043C93.4371 137.482 91.4601 139.459 89.0214 139.459H37.5587C35.1199 139.459 33.143 137.482 33.143 135.043V107.38C33.143 104.941 35.1199 102.964 37.5587 102.964Z" fill="#B4AAF9"/>
<path d="M68.8866 129.642C69.348 125.139 64.0775 120.91 57.1145 120.197C50.1515 119.483 44.1329 122.556 43.6715 127.059C43.2101 131.562 48.4806 135.791 55.4436 136.505C62.4066 137.218 68.4252 134.146 68.8866 129.642Z" fill="#672ED6" stroke="black" stroke-width="0.482718" stroke-miterlimit="10"/>
<path d="M49.603 115.883C49.5931 116.546 49.7806 117.197 50.1416 117.752C50.5026 118.308 51.0208 118.744 51.6304 119.005C52.2399 119.266 52.9132 119.339 53.5646 119.216C54.216 119.093 54.8159 118.778 55.2882 118.313C55.7605 117.848 56.0837 117.253 56.2167 116.603C56.3498 115.954 56.2866 115.28 56.0352 114.666C55.7839 114.053 55.3558 113.528 54.8053 113.159C54.2549 112.789 53.607 112.592 52.944 112.592C52.5083 112.588 52.076 112.669 51.6719 112.833C51.2678 112.996 50.9 113.237 50.5895 113.543C50.279 113.849 50.0321 114.213 49.8628 114.614C49.6935 115.016 49.6052 115.447 49.603 115.883V115.883Z" stroke="black" stroke-width="0.935576" stroke-miterlimit="10"/>
<path d="M64.0808 105.67H59.9157C57.1315 105.67 54.8763 108.249 54.8763 111.406V117.865C54.8763 118.049 54.8763 118.227 54.8763 118.422C54.8297 118.617 54.8054 118.817 54.804 119.018V127.103C54.8069 127.791 55.082 128.45 55.5692 128.937C56.0564 129.423 56.7161 129.696 57.4044 129.698H59.0749C59.7631 129.696 60.4229 129.423 60.9101 128.937C61.3973 128.45 61.6724 127.791 61.6753 127.103V123.617H64.0808C66.865 123.617 69.1202 121.034 69.1202 117.876V111.417C69.0923 108.249 66.826 105.67 64.0808 105.67Z" fill="white" stroke="black" stroke-width="0.467788" stroke-miterlimit="10"/>
<path d="M60.7397 113.516C60.7397 113.702 60.7949 113.884 60.8983 114.039C61.0017 114.194 61.1487 114.314 61.3207 114.386C61.4926 114.457 61.6818 114.476 61.8644 114.439C62.0469 114.403 62.2146 114.313 62.3462 114.182C62.4778 114.05 62.5675 113.882 62.6038 113.7C62.6401 113.517 62.6214 113.328 62.5502 113.156C62.479 112.984 62.3584 112.837 62.2036 112.734C62.0489 112.63 61.8669 112.575 61.6808 112.575C61.4312 112.575 61.1919 112.674 61.0154 112.851C60.8389 113.027 60.7397 113.267 60.7397 113.516Z" fill="#0C0C0C"/>
<path d="M66.9038 113.377C66.9038 113.536 66.9508 113.691 67.0389 113.823C67.127 113.954 67.2523 114.057 67.3988 114.118C67.5453 114.179 67.7065 114.194 67.8621 114.163C68.0176 114.133 68.1605 114.056 68.2726 113.944C68.3848 113.832 68.4611 113.689 68.4921 113.533C68.523 113.378 68.5071 113.217 68.4465 113.07C68.3858 112.924 68.283 112.798 68.1511 112.71C68.0193 112.622 67.8642 112.575 67.7057 112.575C67.493 112.575 67.289 112.66 67.1387 112.81C66.9883 112.96 66.9038 113.164 66.9038 113.377V113.377Z" fill="#0C0C0C"/>
<path d="M66.0073 117.225C66.0073 117.225 65.534 118.6 64.5373 118.695C63.5405 118.789 62.7554 117.681 62.6997 116.818L66.0073 117.225Z" fill="#FFF7F7"/>
<path d="M65.7512 117.147C65.7406 117.181 65.7276 117.215 65.7122 117.247L65.6843 117.314L65.6064 117.475C65.4845 117.721 65.3184 117.942 65.1164 118.127C65.0102 118.231 64.8819 118.309 64.7411 118.356C64.6003 118.404 64.4507 118.418 64.3034 118.4C63.9712 118.331 63.6748 118.145 63.4681 117.876C63.2171 117.576 63.0619 117.208 63.0227 116.818L62.7276 117.113L65.6231 117.464L66.0352 117.514C66.1911 117.514 66.3247 117.37 66.3247 117.225C66.322 117.148 66.2908 117.076 66.2372 117.021C66.1837 116.966 66.1116 116.934 66.0352 116.93L63.1396 116.579L62.7276 116.529C62.6508 116.529 62.5771 116.559 62.5228 116.613C62.4685 116.668 62.438 116.741 62.438 116.818C62.4674 117.28 62.6282 117.723 62.9015 118.096C63.1749 118.469 63.5492 118.756 63.9804 118.923C64.3808 119.016 64.8009 118.968 65.1707 118.789C65.5405 118.61 65.8377 118.309 66.0129 117.937C66.136 117.737 66.2386 117.524 66.3191 117.303C66.4138 116.935 65.8458 116.79 65.7512 117.147Z" fill="#0C0C0C"/>
<path d="M57.4879 116.974C57.4879 117.437 57.6252 117.889 57.8824 118.274C58.1397 118.659 58.5053 118.959 58.9329 119.135C59.3606 119.312 59.8311 119.358 60.2849 119.268C60.7388 119.177 61.1554 118.954 61.4823 118.626C61.8092 118.298 62.0314 117.881 62.1211 117.427C62.2107 116.973 62.1636 116.503 61.9857 116.075C61.8078 115.648 61.5072 115.283 61.1219 115.027C60.7366 114.771 60.2838 114.634 59.8211 114.636C59.2018 114.637 58.6083 114.884 58.1709 115.322C57.7336 115.761 57.4879 116.355 57.4879 116.974Z" fill="#E4B0C8"/>
<path d="M68.4686 115.387C68.6073 115.39 68.7453 115.407 68.8806 115.437V117.86C68.8876 118.214 68.8578 118.569 68.7915 118.918C68.6844 118.933 68.5766 118.942 68.4686 118.945C68.0139 118.92 67.5863 118.722 67.2734 118.391C66.9606 118.06 66.7863 117.622 66.7863 117.166C66.7863 116.711 66.9606 116.273 67.2734 115.942C67.5863 115.611 68.0139 115.413 68.4686 115.387V115.387Z" fill="#E4B0C8"/>
<path d="M64.955 112.575L64.7601 115.777L66.2859 114.847L64.955 112.575Z" fill="#DB7294"/>
<path d="M55.9397 115.777L56.7082 110.715C56.7082 110.715 70.7126 112.469 75.2508 105.67C79.789 98.8714 75.0225 96.2042 72.7116 96.5606C70.4007 96.917 67.7001 100.252 67.7001 100.252C67.7001 100.252 69.8495 97.329 67.7001 96.8668C65.5507 96.4047 63.1786 98.6376 61.9424 100.943C61.9424 100.943 52.7101 100.085 49.5918 105.67C46.4735 111.255 49.0016 115.215 54.7091 120.989L55.0878 117.759L55.9397 115.777Z" fill="black"/>
<path d="M49.603 115.883C49.5931 116.546 49.7806 117.197 50.1416 117.752C50.5026 118.308 51.0208 118.744 51.6304 119.005C52.2399 119.266 52.9132 119.339 53.5646 119.216C54.216 119.093 54.8159 118.778 55.2882 118.313C55.7605 117.848 56.0837 117.253 56.2167 116.603C56.3498 115.954 56.2866 115.28 56.0352 114.666C55.7839 114.053 55.3558 113.528 54.8053 113.159C54.2549 112.789 53.607 112.592 52.944 112.592C52.5083 112.588 52.076 112.669 51.6719 112.833C51.2678 112.996 50.9 113.237 50.5895 113.543C50.279 113.849 50.0321 114.213 49.8628 114.614C49.6935 115.016 49.6052 115.447 49.603 115.883V115.883Z" fill="white"/>
<path d="M55.0711 116.317C55.0834 116.027 55.0477 115.738 54.9653 115.46C54.8958 115.181 54.7667 114.921 54.587 114.697C54.4072 114.473 54.181 114.29 53.9241 114.162C53.4944 113.978 53.0238 113.911 52.5598 113.967C52.4651 113.971 52.3754 114.011 52.3084 114.078C52.2414 114.145 52.202 114.235 52.1979 114.329C52.1979 114.507 52.3594 114.713 52.5598 114.691C52.7578 114.669 52.9577 114.669 53.1556 114.691H53.2169C53.2169 114.691 53.1389 114.691 53.2169 114.691H53.3283C53.4062 114.691 53.4786 114.736 53.5566 114.758C53.6345 114.78 53.4953 114.73 53.5566 114.758L53.6457 114.803C53.7001 114.844 53.7578 114.881 53.8183 114.914C53.8183 114.914 53.7459 114.853 53.7904 114.914L53.8294 114.942L53.8907 115.003C53.9296 115.042 53.9686 115.109 54.0187 115.137C53.9575 115.103 53.9742 115.081 54.0187 115.137V115.164L54.0633 115.231C54.0967 115.281 54.1245 115.332 54.1524 115.382L54.1858 115.46C54.1858 115.499 54.1468 115.37 54.1858 115.426V115.46C54.1858 115.515 54.2247 115.571 54.2415 115.621C54.2672 115.715 54.2876 115.809 54.3027 115.905C54.3058 115.925 54.3058 115.946 54.3027 115.966C54.3027 116.044 54.3027 115.86 54.3027 115.938C54.3 115.977 54.3 116.016 54.3027 116.055C54.3083 116.143 54.3083 116.23 54.3027 116.317C54.3027 116.412 54.3401 116.503 54.4067 116.571C54.4734 116.639 54.5641 116.678 54.6591 116.679C54.7542 116.676 54.8446 116.637 54.9119 116.57C54.9792 116.503 55.0182 116.412 55.021 116.317H55.0711Z" fill="#020202"/>
<path d="M61.9481 100.943C61.9481 100.943 52.7213 110.476 48.8959 113.377C48.8959 113.377 43.9233 102.369 46.7465 99.2948C49.0072 96.8336 60.0548 98.2758 61.9481 100.943Z" fill="#EEDA36" stroke="black" stroke-width="0.467788" stroke-miterlimit="10"/>
<path d="M58.9021 99.1499L47.6484 110.236" stroke="black" stroke-width="0.467788" stroke-miterlimit="10"/>
<path d="M64.5152 124.642L66.0186 130.21L54.6147 133.835L54.0578 131.502L49.8481 129.002L51.591 124.291L56.5747 128.189L56.9032 128.462C56.9032 128.462 57.087 128.774 58.0169 128.261L64.5152 124.642Z" fill="#672ED6"/>
<path d="M64.9549 124.402L54.0966 130.377L54.0298 131.797" stroke="black" stroke-width="0.467788" stroke-miterlimit="10"/>
<path d="M51.3069 124.274L57.2316 128.657" stroke="black" stroke-width="0.467788" stroke-miterlimit="10"/>
<path d="M51.307 130.784C51.307 130.784 43.6227 135.879 38.3773 133.835" stroke="black" stroke-width="0.467788" stroke-miterlimit="10"/>
<path d="M51.1175 131.591C51.5911 131.591 51.9751 131.207 51.9751 130.734C51.9751 130.26 51.5911 129.876 51.1175 129.876C50.6439 129.876 50.26 130.26 50.26 130.734C50.26 131.207 50.6439 131.591 51.1175 131.591Z" stroke="black" stroke-width="0.467788" stroke-miterlimit="10"/>
<path d="M60.9346 132.683C60.9335 132.858 60.9845 133.03 61.0811 133.176C61.1777 133.322 61.3156 133.437 61.4773 133.505C61.6389 133.572 61.8171 133.591 61.9892 133.557C62.1614 133.524 62.3196 133.44 62.444 133.316C62.5684 133.193 62.6533 133.035 62.6879 132.863C62.7225 132.691 62.7053 132.513 62.6385 132.351C62.5716 132.189 62.4581 132.05 62.3124 131.952C62.1667 131.855 61.9953 131.803 61.82 131.803C61.5861 131.803 61.3617 131.895 61.1959 132.06C61.03 132.225 60.9361 132.449 60.9346 132.683V132.683Z" stroke="black" stroke-width="0.467788" stroke-miterlimit="10"/>
<path d="M61.8201 132.682C61.8201 132.682 64.955 141.731 70.4287 144.376" stroke="black" stroke-width="0.467788" stroke-miterlimit="10"/>
<path d="M90.7349 186.214H154.447C157.011 186.214 159.089 188.292 159.089 190.856V231.86C159.089 234.423 157.011 236.502 154.447 236.502H90.7349C88.1712 236.502 86.0929 234.423 86.0929 231.86V190.856C86.0929 188.292 88.1712 186.214 90.7349 186.214Z" fill="#B4AAF9"/>
<path d="M120.806 231.855C120.808 232.199 120.915 232.534 121.113 232.816C121.311 233.097 121.591 233.31 121.915 233.427C122.239 233.544 122.591 233.558 122.923 233.468C123.255 233.379 123.552 233.189 123.772 232.924C123.993 232.66 124.127 232.335 124.156 231.992C124.186 231.649 124.109 231.305 123.936 231.007C123.764 230.71 123.504 230.472 123.192 230.327C122.88 230.182 122.53 230.136 122.192 230.196C121.804 230.268 121.453 230.473 121.2 230.776C120.947 231.078 120.808 231.46 120.806 231.855C120.797 231.93 120.76 232 120.703 232.05C120.646 232.1 120.572 232.128 120.496 232.128C120.42 232.128 120.346 232.1 120.289 232.05C120.232 232 120.195 231.93 120.186 231.855C120.19 231.387 120.334 230.931 120.599 230.546C120.865 230.161 121.239 229.865 121.675 229.695C122.133 229.523 122.635 229.501 123.106 229.633C123.577 229.766 123.994 230.045 124.296 230.431C124.597 230.817 124.767 231.289 124.782 231.778C124.797 232.267 124.655 232.748 124.377 233.151C124.099 233.554 123.699 233.858 123.237 234.018C122.774 234.179 122.273 234.187 121.805 234.042C121.337 233.898 120.928 233.607 120.637 233.214C120.345 232.82 120.187 232.344 120.186 231.855C120.195 231.779 120.232 231.71 120.289 231.659C120.346 231.609 120.42 231.581 120.496 231.581C120.572 231.581 120.646 231.609 120.703 231.659C120.76 231.71 120.797 231.779 120.806 231.855V231.855Z" fill="black"/>
<path d="M95.5656 189.143H149.617C152.18 189.143 154.259 191.221 154.259 193.785V222.834C154.259 225.397 152.18 227.476 149.617 227.476H95.5656C93.0019 227.476 90.9236 225.397 90.9236 222.834V193.785C90.9236 191.221 93.0019 189.143 95.5656 189.143Z" fill="white"/>
<path d="M123.939 211.057C123.939 211.057 114.417 215.615 110.852 208.942C107.287 202.27 112.972 194.048 117.594 192.881C122.216 191.715 125.86 204.777 123.939 211.057Z" fill="black"/>
<path d="M128.045 211.584C128.045 211.584 132.195 214.692 138.54 212.314C144.885 209.935 140.988 198.298 138.54 194.733C136.093 191.169 130.597 188.979 128.164 190.106C125.731 191.233 123.706 204.295 128.045 211.584Z" fill="black"/>
<path d="M136.908 191.719C135.412 189.694 135.84 186.841 137.865 185.345C139.889 183.849 142.743 184.278 144.239 186.302C145.735 188.326 145.306 191.18 143.282 192.676C141.257 194.172 138.404 193.743 136.908 191.719Z" fill="black"/>
<path d="M113.871 201.977C113.871 201.977 115.4 198.501 116.691 198.7C117.981 198.899 117.614 201.182 117.44 202.419C117.267 203.655 116.661 205.219 118.021 206.658C119.382 208.098 112.679 205.944 113.871 201.977Z" fill="white" stroke="black" stroke-width="0.497647" stroke-miterlimit="10"/>
<path d="M120.851 192.231H124.748C127.34 192.231 129.46 194.644 129.46 197.593V203.635C129.46 203.804 129.46 203.973 129.435 204.132C129.481 204.313 129.504 204.5 129.505 204.688V212.244C129.503 212.887 129.247 213.504 128.792 213.959C128.337 214.414 127.72 214.67 127.077 214.672H125.533C124.889 214.67 124.273 214.414 123.818 213.959C123.363 213.504 123.106 212.887 123.105 212.244V208.992H120.851C118.26 208.992 116.14 206.579 116.14 203.63V197.593C116.14 194.644 118.26 192.231 120.851 192.231Z" fill="white" stroke="black" stroke-width="0.497647" stroke-miterlimit="10"/>
<path d="M126.993 202.796C126.993 203.228 126.864 203.65 126.624 204.01C126.384 204.369 126.043 204.649 125.644 204.814C125.245 204.98 124.806 205.023 124.382 204.939C123.958 204.854 123.569 204.646 123.263 204.341C122.958 204.035 122.75 203.646 122.666 203.222C122.581 202.798 122.625 202.359 122.79 201.96C122.955 201.561 123.235 201.22 123.594 200.98C123.954 200.74 124.376 200.612 124.808 200.612C125.387 200.612 125.943 200.842 126.353 201.251C126.762 201.661 126.993 202.217 126.993 202.796Z" fill="#E4B0C8"/>
<path d="M116.715 201.317C116.587 201.316 116.458 201.331 116.333 201.361V203.63C116.323 203.963 116.35 204.296 116.413 204.623C116.513 204.641 116.614 204.651 116.715 204.653C116.934 204.653 117.15 204.61 117.352 204.526C117.554 204.443 117.737 204.32 117.891 204.166C118.046 204.011 118.168 203.828 118.252 203.626C118.336 203.424 118.379 203.208 118.379 202.99C118.379 202.771 118.336 202.555 118.252 202.353C118.168 202.151 118.046 201.968 117.891 201.814C117.737 201.659 117.554 201.537 117.352 201.453C117.15 201.369 116.934 201.326 116.715 201.326V201.317Z" fill="#E4B0C8"/>
<path d="M123.939 199.564C123.939 199.738 123.888 199.908 123.791 200.052C123.694 200.197 123.557 200.309 123.397 200.376C123.236 200.442 123.059 200.46 122.889 200.426C122.718 200.392 122.562 200.308 122.439 200.185C122.316 200.063 122.232 199.906 122.198 199.736C122.165 199.565 122.182 199.388 122.248 199.228C122.315 199.067 122.428 198.93 122.572 198.833C122.717 198.737 122.887 198.685 123.06 198.685C123.293 198.685 123.517 198.778 123.682 198.943C123.846 199.107 123.939 199.331 123.939 199.564V199.564Z" fill="#0C0C0C"/>
<path d="M118.205 199.435C118.205 199.583 118.161 199.728 118.079 199.851C117.996 199.975 117.879 200.071 117.742 200.128C117.605 200.184 117.454 200.199 117.309 200.17C117.163 200.141 117.03 200.07 116.925 199.965C116.82 199.86 116.749 199.727 116.72 199.581C116.691 199.436 116.706 199.285 116.763 199.148C116.819 199.011 116.915 198.894 117.039 198.812C117.162 198.729 117.307 198.685 117.455 198.685C117.654 198.687 117.843 198.766 117.984 198.906C118.124 199.047 118.204 199.237 118.205 199.435V199.435Z" fill="#0C0C0C"/>
<path d="M118.895 203.476C118.895 203.476 119.337 204.762 120.27 204.851C121.203 204.941 121.933 203.903 121.988 203.099L118.895 203.476Z" fill="#FFF7F7"/>
<path d="M119.163 204.54C119.173 204.508 119.186 204.476 119.203 204.446V204.386L119.277 204.237C119.389 204.008 119.542 203.8 119.729 203.627C119.829 203.53 119.949 203.457 120.08 203.413C120.211 203.368 120.351 203.353 120.489 203.368C120.799 203.434 121.074 203.611 121.263 203.865C121.503 204.145 121.65 204.491 121.685 204.858L121.963 204.585L119.257 204.252L118.87 204.203C118.797 204.204 118.727 204.234 118.675 204.285C118.623 204.337 118.593 204.407 118.592 204.481C118.595 204.554 118.625 204.623 118.676 204.674C118.728 204.726 118.797 204.756 118.87 204.759L121.576 205.091L121.963 205.136C122 205.137 122.036 205.13 122.07 205.116C122.103 205.102 122.134 205.082 122.16 205.056C122.185 205.03 122.205 204.999 122.218 204.965C122.231 204.931 122.238 204.894 122.236 204.858C122.213 204.423 122.064 204.003 121.808 203.651C121.552 203.298 121.198 203.028 120.791 202.872C119.987 202.619 119.302 203.13 118.89 203.795C118.774 203.982 118.678 204.18 118.602 204.386C118.513 204.729 119.049 204.878 119.163 204.54Z" fill="#0C0C0C"/>
<path d="M120.012 198.685L120.196 201.679L118.766 200.81L120.012 198.685Z" fill="#DB7294"/>
<path d="M130.592 191.427C130.443 189.183 129.157 187.098 127.509 187.068C123.875 187.003 123.944 189.714 123.944 189.714C117.738 182.048 109.73 186.606 112.307 192.236C114.883 197.866 124.848 196.982 124.848 196.982C125.317 196.923 125.79 196.898 126.263 196.908C127.444 197.141 128.248 198.596 128.626 200.448C129.505 205.04 132.955 194.996 130.592 191.427Z" fill="black"/>
<path d="M131.267 198.293C130.705 198.293 130.151 198.429 129.653 198.69V199.643C130.05 199.345 130.522 199.163 131.016 199.118C131.511 199.073 132.008 199.167 132.452 199.389C132.896 199.61 133.269 199.951 133.53 200.373C133.791 200.796 133.93 201.282 133.93 201.778C133.93 202.275 133.791 202.761 133.53 203.183C133.269 203.605 132.896 203.946 132.452 204.168C132.008 204.39 131.511 204.483 131.016 204.438C130.522 204.393 130.05 204.211 129.653 203.913V204.866C130.151 205.127 130.705 205.264 131.267 205.264C132.189 205.264 133.073 204.897 133.724 204.246C134.376 203.594 134.742 202.71 134.742 201.788C134.742 200.867 134.376 199.983 133.724 199.331C133.073 198.679 132.189 198.313 131.267 198.313V198.293Z" fill="black"/>
<path d="M134.37 201.778C134.375 202.393 134.197 202.995 133.859 203.509C133.521 204.022 133.038 204.424 132.472 204.663C131.905 204.901 131.28 204.966 130.677 204.849C130.073 204.732 129.518 204.439 129.082 204.006C128.645 203.573 128.347 203.02 128.226 202.418C128.104 201.815 128.164 201.19 128.398 200.621C128.632 200.053 129.03 199.567 129.54 199.225C130.051 198.883 130.652 198.7 131.267 198.7C132.086 198.697 132.873 199.02 133.455 199.597C134.037 200.174 134.366 200.959 134.37 201.778Z" fill="white"/>
<path d="M129.246 202.185C129.234 201.914 129.268 201.642 129.346 201.381C129.414 201.119 129.537 200.874 129.709 200.664C129.88 200.454 130.095 200.284 130.339 200.165C130.742 199.993 131.184 199.931 131.62 199.986C131.709 199.989 131.794 200.026 131.857 200.089C131.92 200.153 131.956 200.239 131.957 200.329C131.957 200.418 131.922 200.504 131.858 200.567C131.795 200.631 131.709 200.666 131.62 200.666C131.433 200.646 131.245 200.646 131.059 200.666C131.059 200.666 131.009 200.666 131.004 200.666C130.999 200.666 131.083 200.666 131.004 200.666H130.9C130.829 200.683 130.759 200.705 130.691 200.731C130.602 200.761 130.751 200.696 130.666 200.731L130.587 200.77L130.512 200.815C130.486 200.837 130.458 200.857 130.428 200.875C130.428 200.875 130.493 200.82 130.428 200.875L130.398 200.904L130.339 200.959C130.299 200.994 130.264 201.058 130.219 201.088C130.279 201.048 130.259 201.034 130.219 201.088V201.113L130.175 201.178C130.145 201.224 130.119 201.272 130.095 201.322C130.095 201.322 130.095 201.366 130.061 201.391C130.026 201.416 130.095 201.302 130.061 201.356C130.058 201.368 130.058 201.38 130.061 201.391C130.061 201.441 130.021 201.49 130.006 201.54C129.981 201.627 129.962 201.714 129.946 201.803C129.946 201.803 129.946 201.843 129.946 201.858C129.946 201.873 129.946 201.763 129.946 201.833C129.944 201.871 129.944 201.909 129.946 201.947C129.939 202.028 129.939 202.109 129.946 202.19C129.946 202.281 129.91 202.368 129.846 202.433C129.782 202.497 129.695 202.533 129.604 202.533C129.513 202.533 129.426 202.497 129.362 202.433C129.297 202.368 129.261 202.281 129.261 202.19L129.246 202.185Z" fill="#020202"/>
<path d="M151.876 243.373C149.483 224.69 133.198 210.943 122.206 214.92C113.459 218.087 109.626 235.623 108.34 243.373H151.876Z" fill="#E4B0C8" stroke="#020106" stroke-width="0.497647" stroke-miterlimit="10"/>
<path d="M129.554 216.35H123.492C122.19 216.35 121.134 215.294 121.134 213.991V213.366C121.134 212.063 122.19 211.008 123.492 211.008H129.554C130.857 211.008 131.913 212.063 131.913 213.366V213.991C131.913 215.294 130.857 216.35 129.554 216.35Z" fill="#DB7294" stroke="#020106" stroke-width="0.497647" stroke-miterlimit="10"/>
<path d="M122.206 211.276V216.077" stroke="#020106" stroke-width="0.497647" stroke-miterlimit="10"/>
<path d="M123.418 211.003V216.345" stroke="#020106" stroke-width="0.497647" stroke-miterlimit="10"/>
<path d="M124.694 211.003V216.345" stroke="#020106" stroke-width="0.497647" stroke-miterlimit="10"/>
<path d="M125.97 211.003V216.345" stroke="#020106" stroke-width="0.497647" stroke-miterlimit="10"/>
<path d="M127.241 211.003V216.345" stroke="#020106" stroke-width="0.497647" stroke-miterlimit="10"/>
<path d="M128.517 211.003V216.345" stroke="#020106" stroke-width="0.497647" stroke-miterlimit="10"/>
<path d="M129.793 211.003V216.345" stroke="#020106" stroke-width="0.497647" stroke-miterlimit="10"/>
<path d="M131.069 211.425V215.928" stroke="#020106" stroke-width="0.497647" stroke-miterlimit="10"/>
<path d="M143.982 199.867C143.411 199.485 142.83 201.853 142.542 203.431C142.646 202.136 142.756 200.031 142.269 199.877C141.782 199.723 141.221 202.002 140.968 203.402C141.073 202.106 141.202 199.926 140.74 199.882C140.144 199.832 139.702 201.868 139.454 203.402C139.598 202.036 139.677 200.378 139.211 200.284C138.402 200.12 138.163 201.088 137.761 203.342C137.359 205.596 136.713 207.125 133.655 208.416C130.974 209.543 127.807 211.162 124.843 220.987L133.491 221.399C133.491 221.151 133.491 220.902 133.531 220.654C134.127 211.474 139.29 211.797 141.733 209.945C144.175 208.093 145.084 200.602 143.982 199.867Z" fill="white" stroke="#020106" stroke-width="0.497647" stroke-miterlimit="10"/>
<path d="M139.553 243.373C135.681 238.368 133.099 229.288 133.481 221.166L124.932 220.634C124.47 222.124 124.019 223.807 123.567 225.718C121.66 233.87 122.902 239.808 124.287 243.373H139.553Z" fill="#E4B0C8" stroke="#020106" stroke-width="0.497647" stroke-miterlimit="10"/>
<path d="M124.232 223.141H133.462C133.462 222.302 133.462 221.468 133.531 220.659C133.571 220.043 133.63 219.477 133.71 218.946L125.642 218.559C125.156 219.885 124.699 221.399 124.232 223.141Z" fill="#DB7294" stroke="#020106" stroke-width="0.497647" stroke-miterlimit="10"/>
<path d="M126.933 218.614L125.87 223.141" stroke="#020106" stroke-width="0.497647" stroke-miterlimit="10"/>
<path d="M128.621 218.693L128.045 223.141" stroke="#020106" stroke-width="0.497647" stroke-miterlimit="10"/>
<path d="M130.339 218.693L130.071 223.141" stroke="#020106" stroke-width="0.497647" stroke-miterlimit="10"/>
<path d="M131.913 218.852L131.759 223.022" stroke="#020106" stroke-width="0.497647" stroke-miterlimit="10"/>
<path d="M114.978 203.451C114.625 201.406 116.611 199.206 115.971 198.685C115.33 198.164 111.652 201.495 112.689 204.856C113.727 208.217 117.5 208.828 116.165 213.833C115.443 216.191 114.516 218.482 113.394 220.679L121.998 220.897C122.559 214.87 121.963 210.447 121.273 208.982C120.444 207.314 115.325 205.502 114.978 203.451Z" fill="white" stroke="black" stroke-width="0.497647" stroke-miterlimit="10"/>
<path d="M116.095 243.373C117.743 238.686 120.717 229.774 121.556 224.273C121.755 222.976 121.904 221.736 122.003 220.555L113.791 219.8C111.376 224.797 108.663 229.644 105.669 234.317C103.94 237.033 102.956 240.156 102.814 243.373H116.095Z" fill="#E4B0C8" stroke="#020106" stroke-width="0.497647" stroke-miterlimit="10"/>
<path d="M121.745 223.007C121.948 221.448 122.077 219.979 122.147 218.614H114.347C113.752 219.934 113.061 221.344 112.327 222.779L121.745 223.007Z" fill="#DB7294" stroke="black" stroke-width="0.497647" stroke-miterlimit="10"/>
<path d="M115.45 218.693L114.298 223.007" stroke="black" stroke-width="0.497647" stroke-miterlimit="10"/>
<path d="M117.103 218.693L116.547 222.883" stroke="black" stroke-width="0.497647" stroke-miterlimit="10"/>
<path d="M118.607 218.614L118.394 222.928" stroke="black" stroke-width="0.497647" stroke-miterlimit="10"/>
<path d="M120.409 218.614L120.077 222.968" stroke="black" stroke-width="0.497647" stroke-miterlimit="10"/>
</g>
<defs>
<clipPath id="clip0_14_281">
<rect width="186.618" height="404.089" fill="white"/>
</clipPath>
<clipPath id="clip1_14_281">
<rect width="35.3329" height="29.8588" fill="white" transform="matrix(-1 0 0 1 77.6329 163.228)"/>
</clipPath>
<clipPath id="clip2_14_281">
<rect width="40.7125" height="36.6268" fill="white" transform="translate(107.492 81.6141)"/>
</clipPath>
</defs>
</svg>
