<svg width="187" height="22" viewBox="0 0 187 22" fill="none" xmlns="http://www.w3.org/2000/svg">
<path opacity="0.35" d="M167.84 9.95304C167.84 9.35754 168.323 8.8748 168.919 8.8748H177.213C177.808 8.8748 178.291 9.35754 178.291 9.95304V12.9389C178.291 13.5344 177.808 14.0172 177.213 14.0172H168.919C168.323 14.0172 167.84 13.5344 167.84 12.9389V9.95304Z" stroke="black" stroke-width="0.497647"/>
<path opacity="0.4" d="M179.038 10.4507V12.4413C179.438 12.2727 179.698 11.8805 179.698 11.446C179.698 11.0115 179.438 10.6193 179.038 10.4507Z" fill="black"/>
<path d="M168.587 10.2847C168.587 9.91829 168.884 9.62122 169.25 9.62122H176.881C177.247 9.62122 177.545 9.91829 177.545 10.2847V12.6071C177.545 12.9736 177.247 13.2706 176.881 13.2706H169.25C168.884 13.2706 168.587 12.9736 168.587 12.6071V10.2847Z" fill="black"/>
<path fill-rule="evenodd" clip-rule="evenodd" d="M161.287 9.75794C162.39 9.75799 163.45 10.1817 164.249 10.9415C164.309 11.0002 164.406 10.9994 164.465 10.9399L165.04 10.3593C165.07 10.329 165.087 10.2881 165.087 10.2455C165.086 10.2029 165.069 10.1622 165.039 10.1323C162.941 8.12207 159.632 8.12207 157.534 10.1323C157.504 10.1622 157.487 10.2029 157.486 10.2455C157.486 10.2881 157.503 10.329 157.533 10.3593L158.108 10.9399C158.168 10.9995 158.264 11.0003 158.324 10.9415C159.123 10.1817 160.184 9.75794 161.287 9.75794ZM161.287 11.6469C161.893 11.6468 162.477 11.872 162.926 12.2787C162.987 12.3364 163.082 12.3352 163.142 12.2759L163.716 11.6953C163.747 11.6648 163.763 11.6235 163.763 11.5806C163.762 11.5377 163.745 11.4967 163.714 11.4669C162.346 10.1947 160.228 10.1947 158.861 11.4669C158.83 11.4967 158.812 11.5377 158.812 11.5806C158.811 11.6236 158.828 11.6649 158.859 11.6953L159.433 12.2759C159.492 12.3352 159.588 12.3364 159.649 12.2787C160.097 11.8723 160.681 11.6471 161.287 11.6469ZM162.438 12.9178C162.439 12.9608 162.422 13.0023 162.391 13.0325L161.397 14.0356C161.368 14.065 161.328 14.0816 161.287 14.0816C161.245 14.0816 161.206 14.065 161.176 14.0356L160.182 13.0325C160.152 13.0023 160.135 12.9608 160.136 12.9177C160.137 12.8747 160.155 12.8339 160.187 12.805C160.822 12.2681 161.752 12.2681 162.386 12.805C162.418 12.8339 162.437 12.8747 162.438 12.9178Z" fill="black"/>
<path fill-rule="evenodd" clip-rule="evenodd" d="M154.487 8.79175H153.989C153.715 8.79175 153.492 9.01455 153.492 9.2894V13.6023C153.492 13.8772 153.715 14.1 153.989 14.1H154.487C154.762 14.1 154.985 13.8772 154.985 13.6023V9.2894C154.985 9.01455 154.762 8.79175 154.487 8.79175ZM151.667 9.95294H152.165C152.44 9.95294 152.662 10.1757 152.662 10.4506V13.6024C152.662 13.8772 152.44 14.1 152.165 14.1H151.667C151.392 14.1 151.169 13.8772 151.169 13.6024V10.4506C151.169 10.1757 151.392 9.95294 151.667 9.95294ZM149.842 11.1141H149.345C149.07 11.1141 148.847 11.3369 148.847 11.6117V13.6023C148.847 13.8772 149.07 14.1 149.345 14.1H149.842C150.117 14.1 150.34 13.8772 150.34 13.6023V11.6117C150.34 11.3369 150.117 11.1141 149.842 11.1141ZM147.52 12.1094H147.022C146.747 12.1094 146.525 12.3322 146.525 12.607V13.6023C146.525 13.8772 146.747 14.1 147.022 14.1H147.52C147.795 14.1 148.018 13.8772 148.018 13.6023V12.607C148.018 12.3322 147.795 12.1094 147.52 12.1094Z" fill="black"/>
<path d="M18.5726 14.0617C19.9102 14.0617 20.7048 13.0156 20.7048 11.2442C20.7048 10.5772 20.5772 10.0159 20.333 9.58212C19.9795 8.90782 19.3708 8.54333 18.6017 8.54333C17.4572 8.54333 16.6481 9.3124 16.6481 10.3913C16.6481 11.4046 17.377 12.1408 18.3794 12.1408C18.9954 12.1408 19.4947 11.8529 19.7426 11.3535H19.7535C19.7535 11.3535 19.7681 11.3535 19.7717 11.3535C19.779 11.3535 19.8045 11.3535 19.8045 11.3535C19.8045 12.5563 19.3489 13.2744 18.5799 13.2744C18.1279 13.2744 17.778 13.0265 17.6577 12.6292H16.721C16.8777 13.4931 17.6103 14.0617 18.5726 14.0617ZM18.6054 11.3936C18.0003 11.3936 17.5702 10.9635 17.5702 10.3621C17.5702 9.7753 18.0222 9.32698 18.609 9.32698C19.1958 9.32698 19.6478 9.78259 19.6478 10.3767C19.6478 10.9635 19.2068 11.3936 18.6054 11.3936Z" fill="black"/>
<path d="M22.2431 14.0106C22.5894 14.0106 22.8263 13.7628 22.8263 13.4348C22.8263 13.1031 22.5894 12.8589 22.2431 12.8589C21.9005 12.8589 21.6599 13.1031 21.6599 13.4348C21.6599 13.7628 21.9005 14.0106 22.2431 14.0106ZM22.2431 11.277C22.5894 11.277 22.8263 11.0328 22.8263 10.7047C22.8263 10.3731 22.5894 10.1289 22.2431 10.1289C21.9005 10.1289 21.6599 10.3731 21.6599 10.7047C21.6599 11.0328 21.9005 11.277 22.2431 11.277Z" fill="black"/>
<path d="M26.238 13.9341H27.1383V12.9536H27.8491V12.1591H27.1383V8.67455H25.8116C24.8821 10.0742 24.1422 11.2442 23.6684 12.1153V12.9536H26.238V13.9341ZM24.5395 12.1262C25.1519 11.0474 25.6986 10.1835 26.2016 9.43997H26.2526V12.1809H24.5395V12.1262Z" fill="black"/>
<path d="M29.8539 13.9341H30.7943V8.67455H29.8575L28.4834 9.6368V10.5407L29.7919 9.62222H29.8539V13.9341Z" fill="black"/>
</svg>
