<svg width="102" height="102" viewBox="0 0 102 102" fill="none" xmlns="http://www.w3.org/2000/svg">
<g clip-path="url(#clip0_17_660)">
<path d="M101.27 41.77C100.63 38.44 99.93 35.11 99.09 31.82C98.09 28.01 97.41 24.13 95.73 20.56C94.7932 18.3191 93.5876 16.2003 92.14 14.25C90.93 12.76 89.2699 11.78 88.0499 10.33C87.9699 10.23 87.81 10.19 87.7 10.11C86.1238 9.11279 84.4223 8.32932 82.64 7.78003C79.77 6.78003 76.9699 5.51998 74.1299 4.41998C71.1906 3.17132 68.1219 2.25239 64.98 1.67999C62.8 1.34999 60.6099 1.15998 58.4299 0.919983C57.3285 0.670925 56.1966 0.583332 55.0699 0.659973C52.8055 0.955553 50.5092 0.905011 48.2599 0.51001C46.5099 0.31001 44.7599 0.0199902 43.0099 -0.0100098C41.0099 -0.0100098 38.95 0.18999 36.91 0.23999C35.5898 0.279632 34.2839 0.525935 33.04 0.969971C28.5143 2.63967 24.2432 4.93176 20.35 7.78003C18.4937 9.04713 16.8125 10.5534 15.35 12.26C14.23 13.59 13.26 15.02 12.21 16.4C8.74996 20.92 5.34998 25.47 3.59998 31.01C2.70747 33.5351 2.06114 36.1405 1.66998 38.79C1.34998 41.57 1.08998 44.35 0.789978 47.13C0.409978 50.57 -0.210027 54 0.159973 57.49C0.369973 59.39 0.269954 61.36 0.889954 63.18C2.22995 67.18 3.10995 71.34 4.63995 75.29C5.75104 77.9369 7.46285 80.2889 9.63995 82.16C11.08 83.47 12.73 84.53 14.22 85.8C15.71 87.07 17.3699 88.73 19.0699 90.01C21.9871 92.2681 25.0653 94.3102 28.28 96.12C30.4055 97.2818 32.6847 98.137 35.0499 98.66C39.1699 99.59 43.32 100.44 47.5099 101.04C50.6799 101.49 53.86 102.16 57.09 101.8C59.7483 101.58 62.3902 101.192 64.9999 100.64C67.9506 99.9598 70.8645 99.1287 73.73 98.15C76.82 97.07 79.91 95.94 82.35 93.6C82.9033 93.1073 83.4842 92.6466 84.09 92.22C87.36 89.77 90.5099 87.22 92.8099 83.76C94.5299 81.18 96.36 78.67 97.35 75.67C98.642 71.6836 99.6774 67.6187 100.45 63.5C100.83 61.5 100.96 59.42 101.16 57.38C101.599 54.4247 101.867 51.4464 101.96 48.46C101.961 46.2122 101.729 43.9703 101.27 41.77Z" fill="#8CBBE8"/>
<path d="M61.17 36.79C60.6848 36.7259 60.2062 36.6188 59.74 36.47C58.06 35.78 57.57 34.7 58.12 32.83C58.4 31.83 58.68 30.89 58.9 29.89C59.1945 28.8179 59.8564 27.8835 60.77 27.25C60.9248 27.1372 61.1088 27.0713 61.3 27.06C63.2181 26.8992 65.1487 26.9697 67.05 27.27C68.279 27.5486 69.3534 28.2899 70.05 29.34C70.59 30.19 70.29 31.27 70.19 32.25C70.1178 32.9628 69.8699 33.6465 69.4685 34.2399C69.0671 34.8333 68.5247 35.3178 67.89 35.65C67.3166 36.117 66.6717 36.4884 65.98 36.75L65.56 36.83C65.42 36.83 65.29 36.91 65.16 36.95C64.566 37.0699 63.954 37.0699 63.36 36.95C62.64 36.87 61.86 36.94 61.17 36.79Z" fill="white"/>
<path d="M43.93 24.2499C44.93 24.2499 45.93 24.2499 46.93 24.3599C47.3564 24.4004 47.7585 24.5768 48.0771 24.8631C48.3958 25.1493 48.6141 25.5303 48.7 25.9499C49.43 28.0699 48.1 31.3699 46.2 32.5499C45.5451 32.8356 44.8339 32.969 44.12 32.9399C42.8063 33.0917 41.477 33.0377 40.18 32.7799C39.6603 32.6957 39.1641 32.5036 38.7232 32.216C38.2823 31.9283 37.9065 31.5516 37.62 31.1099C37.3454 30.6468 37.2006 30.1183 37.2006 29.5799C37.2006 29.0415 37.3454 28.513 37.62 28.0499C38.2393 27.1093 38.9068 26.2015 39.62 25.3299C39.8829 24.9594 40.2381 24.664 40.6503 24.4728C41.0624 24.2816 41.5173 24.2013 41.97 24.2399C42.64 24.2499 43.3 24.2499 43.93 24.2499Z" fill="white"/>
<path d="M78.76 29.04C77.7018 29.4009 76.568 29.4802 75.47 29.27C75.3611 29.2511 75.2641 29.1899 75.2 29.1C73.9 27.01 72.3599 25.1 71.5499 22.68C71.1818 21.5328 70.9011 20.3595 70.71 19.17C70.63 18.71 70.8 18.47 71.32 18.42C73.75 18.2 73.65 18.21 74.21 20.54C74.7815 23.3842 76.1237 26.0168 78.09 28.15C78.32 28.38 78.52 28.65 78.73 28.9C78.75 28.91 78.74 28.95 78.76 29.04Z" fill="#292929"/>
<path d="M39.89 15.6901C39.2463 15.5074 38.5639 15.512 37.9228 15.7033C37.2817 15.8946 36.7083 16.2646 36.27 16.7701C36.0362 17.0737 35.7858 17.3641 35.52 17.6401C33.3238 19.9467 30.9017 22.0271 28.29 23.85C27.92 24.34 28.29 24.4901 28.66 24.5201C29.26 24.5701 29.87 24.5201 30.47 24.5201C30.75 24.5201 31.0499 24.5701 31.2499 24.3401C31.9335 23.7088 32.6695 23.1367 33.45 22.6301C35.0223 21.4104 36.4998 20.0732 37.8699 18.6301C38.6771 17.9332 39.3928 17.1368 39.9999 16.2601C40.1799 15.9701 40.23 15.8201 39.89 15.6901Z" fill="#292929"/>
<path d="M61.26 52.1801C61.15 52.0801 61.18 51.8201 61.16 51.6301C61 50.3801 61.0299 49.1201 60.8699 47.8601C60.5925 45.5585 59.6271 43.3942 58.1 41.6501C57.5753 40.9615 56.8246 40.4799 55.98 40.2901C53.5363 39.9215 51.0478 39.9688 48.6199 40.4301C47.9183 40.5125 47.2391 40.7298 46.6199 41.0701C44.9415 41.5327 43.3689 42.3172 41.9899 43.3801C41.2963 43.7689 40.6686 44.265 40.1299 44.85C38.9299 46.13 38.01 47.6301 36.9 48.9901C36.51 49.4701 36.7599 49.9001 37.3599 49.9901C38.2067 50.0951 39.0632 50.0951 39.91 49.9901C40.11 49.9901 40.45 49.9001 40.22 49.6401C39.85 49.2001 40.22 49.0001 40.39 48.7401C41.0617 48.0121 41.6581 47.2181 42.17 46.3701C42.4655 46.0912 42.6944 45.7494 42.84 45.3701L43.48 44.7301C44.9593 43.6734 46.5209 42.737 48.15 41.9301C48.916 41.6086 49.7048 41.3446 50.51 41.1401C51.95 40.8701 53.51 40.4201 54.7 41.6801C56.0399 43.0392 56.9628 44.7533 57.3599 46.6201C57.7225 48.339 57.8869 50.0937 57.85 51.85C57.85 52.54 58.14 52.85 58.77 52.85C59.4 52.85 60.2 52.85 60.91 52.85C61.27 52.76 62.09 52.9201 61.26 52.1801Z" fill="#292929"/>
<path d="M61.97 35.2499L61.6099 35.1698C61.2993 35.1482 60.9965 35.0631 60.72 34.9198C60.19 34.5698 60.1899 33.8599 60.1899 33.2799C60.2887 31.7691 60.7817 30.3106 61.6199 29.0499C61.7472 28.8665 61.9179 28.7175 62.1169 28.6163C62.3158 28.515 62.5368 28.4647 62.7599 28.4698C64.1514 28.3332 65.5539 28.3566 66.9399 28.5398C67.161 28.5577 67.3665 28.6603 67.5137 28.8262C67.6609 28.992 67.7384 29.2083 67.73 29.4299C67.8702 30.3535 67.8087 31.2966 67.5498 32.1943C67.2909 33.0919 66.8406 33.9228 66.23 34.6299C66.1173 34.7912 65.9678 34.9235 65.7939 35.0156C65.6201 35.1078 65.4268 35.1572 65.23 35.1598C64.46 35.3484 63.6723 35.4556 62.8799 35.4798C62.5599 35.3798 62.27 35.2499 61.97 35.2499Z" fill="#292929"/>
<path d="M42.29 31.8901C42.0401 31.8774 41.7898 31.8774 41.54 31.8901C39.68 31.8901 39.6499 31.1201 39.9499 29.7601C40.1098 28.5247 40.616 27.3599 41.41 26.4001C41.663 26.0932 42.0179 25.8873 42.41 25.8201C43.6359 25.6428 44.8869 25.7875 46.04 26.24C46.1711 26.275 46.2855 26.3557 46.3625 26.4675C46.4395 26.5794 46.4741 26.715 46.4599 26.85C46.4769 27.9786 46.273 29.0997 45.8599 30.1501C45.3199 31.4501 44.42 31.9001 42.29 31.8901Z" fill="#292929"/>
</g>
<defs>
<clipPath id="clip0_17_660">
<rect width="101.92" height="101.92" fill="white"/>
</clipPath>
</defs>
</svg>
