<svg width="172" height="19" viewBox="0 0 172 19" fill="none" xmlns="http://www.w3.org/2000/svg">
<path d="M57.258 5.64982V4.00101H65.9209V5.64982H62.565V14.8588H60.614V5.64982H57.258ZM69.9303 15.0178C69.1138 15.0178 68.4087 14.8482 67.8149 14.5089C67.2247 14.166 66.7705 13.6818 66.4524 13.0562C66.1343 12.4271 65.9753 11.6866 65.9753 10.8348C65.9753 9.99716 66.1343 9.262 66.4524 8.62934C66.774 7.99314 67.2229 7.49832 67.799 7.14488C68.3751 6.7879 69.052 6.60942 69.8295 6.60942C70.3314 6.60942 70.805 6.69071 71.2504 6.85329C71.6993 7.01234 72.0951 7.25975 72.4379 7.59552C72.7843 7.93129 73.0565 8.35896 73.2544 8.87852C73.4523 9.39454 73.5513 10.0095 73.5513 10.7235V11.312H66.8765V10.0184H71.7116C71.7081 9.65079 71.6286 9.32385 71.473 9.03757C71.3175 8.74774 71.1002 8.51977 70.8209 8.35366C70.5453 8.18754 70.2236 8.10448 69.856 8.10448C69.4637 8.10448 69.1191 8.19991 68.8222 8.39077C68.5253 8.57809 68.2938 8.8255 68.1277 9.133C67.9651 9.43696 67.8821 9.77096 67.8785 10.135V11.2643C67.8785 11.7379 67.9651 12.1443 68.1383 12.4836C68.3115 12.8194 68.5536 13.0774 68.8646 13.2577C69.1757 13.4344 69.5397 13.5228 69.9568 13.5228C70.236 13.5228 70.4887 13.4839 70.7149 13.4061C70.9411 13.3248 71.1373 13.2064 71.3034 13.0509C71.4695 12.8954 71.595 12.7028 71.6798 12.473L73.4718 12.6745C73.3587 13.1481 73.1431 13.5616 72.825 13.9151C72.5104 14.265 72.1075 14.5371 71.6162 14.7315C71.1249 14.9224 70.5629 15.0178 69.9303 15.0178ZM76.5692 6.71545L78.2128 9.72148L79.8828 6.71545H81.9133L79.4586 10.7871L81.9557 14.8588H79.9358L78.2128 11.927L76.5056 14.8588H74.4698L76.951 10.7871L74.5334 6.71545H76.5692ZM82.4077 5.64982V4.00101H91.0706V5.64982H87.7146V14.8588H85.7636V5.64982H82.4077ZM95.0269 15.0178C94.2317 15.0178 93.5424 14.8429 92.9593 14.493C92.3761 14.143 91.9237 13.6535 91.602 13.0244C91.2839 12.3953 91.1249 11.6601 91.1249 10.8189C91.1249 9.97772 91.2839 9.2408 91.602 8.60813C91.9237 7.97547 92.3761 7.48419 92.9593 7.13428C93.5424 6.78437 94.2317 6.60942 95.0269 6.60942C95.8221 6.60942 96.5114 6.78437 97.0945 7.13428C97.6777 7.48419 98.1284 7.97547 98.4465 8.60813C98.7681 9.2408 98.9289 9.97772 98.9289 10.8189C98.9289 11.6601 98.7681 12.3953 98.4465 13.0244C98.1284 13.6535 97.6777 14.143 97.0945 14.493C96.5114 14.8429 95.8221 15.0178 95.0269 15.0178ZM95.0375 13.4803C95.4687 13.4803 95.8292 13.3619 96.119 13.1251C96.4089 12.8848 96.6245 12.5632 96.7658 12.1602C96.9107 11.7573 96.9832 11.3084 96.9832 10.8136C96.9832 10.3153 96.9107 9.86462 96.7658 9.4617C96.6245 9.05524 96.4089 8.73184 96.119 8.4915C95.8292 8.25116 95.4687 8.13099 95.0375 8.13099C94.5957 8.13099 94.2281 8.25116 93.9348 8.4915C93.6449 8.73184 93.4276 9.05524 93.2827 9.4617C93.1413 9.86462 93.0706 10.3153 93.0706 10.8136C93.0706 11.3084 93.1413 11.7573 93.2827 12.1602C93.4276 12.5632 93.6449 12.8848 93.9348 13.1251C94.2281 13.3619 94.5957 13.4803 95.0375 13.4803ZM102.477 10.0873V14.8588H100.558V6.71545H102.392V8.09918H102.488C102.675 7.64324 102.974 7.28096 103.384 7.01234C103.797 6.74372 104.308 6.60942 104.916 6.60942C105.478 6.60942 105.967 6.72959 106.384 6.96993C106.805 7.21027 107.13 7.55841 107.36 8.01435C107.593 8.47029 107.708 9.02343 107.704 9.67376V14.8588H105.785V9.97065C105.785 9.42635 105.644 9.00045 105.361 8.69296C105.082 8.38546 104.695 8.23172 104.2 8.23172C103.864 8.23172 103.566 8.30594 103.304 8.45439C103.046 8.5993 102.843 8.8096 102.694 9.08528C102.549 9.36097 102.477 9.69497 102.477 10.0873ZM113.261 15.0178C112.444 15.0178 111.739 14.8482 111.145 14.5089C110.555 14.166 110.101 13.6818 109.783 13.0562C109.465 12.4271 109.306 11.6866 109.306 10.8348C109.306 9.99716 109.465 9.262 109.783 8.62934C110.104 7.99314 110.553 7.49832 111.129 7.14488C111.705 6.7879 112.382 6.60942 113.16 6.60942C113.662 6.60942 114.135 6.69071 114.581 6.85329C115.03 7.01234 115.425 7.25975 115.768 7.59552C116.115 7.93129 116.387 8.35896 116.585 8.87852C116.783 9.39454 116.882 10.0095 116.882 10.7235V11.312H110.207V10.0184H115.042C115.038 9.65079 114.959 9.32385 114.803 9.03757C114.648 8.74774 114.43 8.51977 114.151 8.35366C113.876 8.18754 113.554 8.10448 113.186 8.10448C112.794 8.10448 112.449 8.19991 112.153 8.39077C111.856 8.57809 111.624 8.8255 111.458 9.133C111.295 9.43696 111.212 9.77096 111.209 10.135V11.2643C111.209 11.7379 111.295 12.1443 111.469 12.4836C111.642 12.8194 111.884 13.0774 112.195 13.2577C112.506 13.4344 112.87 13.5228 113.287 13.5228C113.566 13.5228 113.819 13.4839 114.045 13.4061C114.271 13.3248 114.468 13.2064 114.634 13.0509C114.8 12.8954 114.925 12.7028 115.01 12.473L116.802 12.6745C116.689 13.1481 116.473 13.5616 116.155 13.9151C115.841 14.265 115.438 14.5371 114.946 14.7315C114.455 14.9224 113.893 15.0178 113.261 15.0178Z" fill="#030303"/>
</svg>
