<svg width="102" height="102" viewBox="0 0 102 102" fill="none" xmlns="http://www.w3.org/2000/svg">
<g clip-path="url(#clip0_17_698)">
<path d="M56.1 101.92C51.94 101.74 47.75 101.92 43.6 101.27C41.0393 100.818 38.5301 100.111 36.1101 99.16C33.6001 98.21 31.11 97.29 28.55 96.35C26.3256 95.472 24.1639 94.443 22.08 93.27C19.5524 92.0818 17.1532 90.6375 14.92 88.96C10.151 85.1817 6.44923 80.2254 4.18 74.58C3.85588 73.6819 3.4648 72.8094 3.01001 71.9699C1.39346 68.8033 0.485795 65.3228 0.350039 61.77C0.100039 58.89 -0.0199874 55.99 0.0100126 53.1C-0.0136651 47.354 1.16137 41.6662 3.46002 36.4C5.62002 31.55 7.55 26.6 10.18 21.98C11.4123 20.0986 12.8513 18.3612 14.47 16.8C16.3965 14.7092 18.5122 12.8011 20.79 11.1C22.68 9.66995 24.63 8.30995 26.54 6.90995C27.41 6.26995 28.26 5.59995 29.07 4.90995C31.3024 3.02327 33.9468 1.68743 36.79 1.00999C38.8052 0.544951 40.8737 0.353223 42.94 0.43998C44.7878 0.433571 46.6339 0.32674 48.47 0.119973C51.3354 -0.0263776 54.2071 0.232871 57 0.889993C60.85 1.57999 64.37 3.34995 68.05 4.59995C69.8767 5.21995 71.69 5.88662 73.49 6.59995C76.7585 7.98216 79.8368 9.77674 82.65 11.94C86.33 14.62 89.02 18.24 91.89 21.7C93.6205 23.6129 95.1704 25.6817 96.52 27.88C97.8074 30.2777 98.8461 32.8008 99.62 35.41C100.755 38.7729 101.516 42.2505 101.89 45.78C102.08 48.06 101.48 50.22 101.13 52.43C100.55 56.07 99.13 59.43 97.9 62.87C97.5512 63.7908 97.339 64.7577 97.27 65.74C97.0511 67.2761 96.6378 68.7781 96.04 70.21C94.385 75.7789 91.743 81.0052 88.24 85.64C86.81 87.53 85.57 89.52 84.24 91.46C83.1766 93.1825 81.922 94.7792 80.5 96.2199C80.2549 96.4692 79.967 96.6725 79.65 96.82C78.25 97.4 77.28 98.64 75.88 99.29C73.6539 100.219 71.3288 100.89 68.95 101.29C65.27 102.07 61.53 101.88 57.81 101.92H56.1Z" fill="#FF8162"/>
<path d="M44.34 51.64H44.09C42.49 51.77 42.4 51.12 42.99 49.73C43.8954 47.6038 45.3955 45.7843 47.31 44.49C49.14 43.21 51.22 43.18 53.31 43.35C55.92 43.56 57.46 45.14 58.59 47.35C58.7147 47.653 58.8723 47.9415 59.06 48.21C59.7913 49.3356 60.1836 50.6477 60.19 51.99C60.1228 52.8494 60.3033 53.71 60.71 54.47C60.88 54.7 60.56 54.77 60.39 54.78C59.5254 54.865 58.6546 54.865 57.7901 54.78C57.6238 54.7672 57.4691 54.69 57.3589 54.5649C57.2487 54.4398 57.1917 54.2765 57.2 54.11C57.1689 52.8579 57.0148 51.612 56.74 50.39C56.1009 48.0219 54.6941 45.9327 52.74 44.45C51.84 43.8 50.99 44.35 50.26 44.85C48.2928 46.2122 46.7723 48.1258 45.89 50.35C45.8644 50.4283 45.8343 50.5051 45.8 50.58C45.61 50.88 45.96 51.21 45.8 51.51C45.7872 51.5344 45.7688 51.5554 45.7461 51.5711C45.7235 51.5867 45.6974 51.5966 45.6701 51.6L44.2901 51.71L44.34 51.64Z" fill="#292929"/>
<path d="M40.77 40.4901C39.9066 40.4992 39.0438 40.439 38.19 40.3101C36.86 40.2301 36.11 39.3101 35.33 38.3701C35.2331 38.2246 35.171 38.0586 35.1484 37.8852C35.1259 37.7118 35.1435 37.5356 35.2 37.3701C35.58 35.5401 36 33.7101 36.41 31.8901C36.448 31.7009 36.5304 31.5233 36.6503 31.3721C36.7703 31.2208 36.9244 31.1002 37.1 31.0201C39.5627 29.7535 42.364 29.3017 45.1 29.7301C45.8 29.8786 46.4424 30.2258 46.95 30.7301C47.118 30.8548 47.2481 31.0236 47.3257 31.2178C47.4034 31.412 47.4257 31.624 47.39 31.8301C46.71 34.2601 46.39 36.8301 45.05 39.0201C44.7198 39.5989 44.2188 40.0614 43.6155 40.3443C43.0121 40.6272 42.3361 40.7165 41.68 40.6001C41.39 40.5501 41.1 40.5101 40.77 40.4901Z" fill="white"/>
<path d="M69.09 33.91V35.3C69.09 37.38 67.87 38.56 66.09 39.3C64.2736 40.0698 62.2933 40.3724 60.3299 40.18C59.1899 40.06 58.6999 39.86 58.6999 38.78C58.6999 36.3 57.9899 33.86 58.3799 31.36C58.3781 31.2141 58.4081 31.0695 58.4681 30.9364C58.528 30.8033 58.6164 30.685 58.7269 30.5897C58.8375 30.4944 58.9675 30.4245 59.108 30.3848C59.2484 30.3451 59.3959 30.3366 59.54 30.36C60.79 30.3 62.03 30.12 63.28 29.98C64.4189 29.8341 65.574 29.8747 66.6999 30.1C67.373 30.1908 67.989 30.5267 68.43 31.0433C68.8709 31.5599 69.1059 32.221 69.09 32.9C69.09 33.25 69.09 33.61 69.09 33.96V33.91Z" fill="white"/>
<path d="M46.89 26.6601C46.7814 26.6705 46.6719 26.6561 46.5697 26.618C46.4675 26.5799 46.3752 26.5191 46.3 26.4401C44.23 24.5801 41.67 23.6201 39.21 22.4401C37.41 21.5801 35.54 20.9001 33.7 20.1601C33.46 20.0601 33.11 19.9801 33.09 19.6801C33.07 19.3801 33.45 19.2401 33.7 19.1201C33.95 19.0001 34.45 18.8101 34.83 18.6601C35.1219 18.5274 35.4434 18.4733 35.7626 18.5031C36.0818 18.5329 36.3877 18.6457 36.65 18.8301C37.76 19.5201 39.13 19.6201 40.3 20.2501C41.81 21.0701 43.4 21.7301 44.98 22.4001C46.5411 23.1276 47.9947 24.0664 49.3 25.1901C49.6 25.4301 49.57 25.6301 49.3 25.8201C48.5694 26.2765 47.7459 26.5635 46.89 26.6601Z" fill="#292929"/>
<path d="M66.02 20.6401C66.9573 20.8283 67.8313 21.2515 68.56 21.8701C68.88 22.1301 68.6701 22.2301 68.3601 22.3301C65.2096 23.3876 62.1357 24.6606 59.1601 26.1401C58.7601 26.3301 58.39 26.5501 58 26.7601C57.91 26.7601 57.7401 26.8701 57.7301 26.9201C57.7301 28.1101 56.91 27.4101 56.5 27.3301C55.7682 27.1473 55.0854 26.8059 54.5 26.3301C54.08 26.0301 54.01 25.8102 54.56 25.5302C58.1521 23.6914 61.86 22.088 65.6601 20.7301L66.02 20.6401Z" fill="#292929"/>
<path d="M44.07 31.74C43.7661 31.5403 43.4265 31.4011 43.07 31.33C42.76 31.06 42.42 31.33 42.07 31.33C40.9768 31.085 39.8431 31.085 38.7499 31.33H38.61C38.19 31.44 38.16 31.81 38.08 32.14C37.86 32.3 37.6 32.45 37.61 32.76C37.61 34.14 37.08 35.44 37.11 36.76C37.11 38.4 37.54 38.76 39.03 38.83C39.25 38.83 39.4599 38.92 39.6799 38.92C41.6799 38.92 42.68 38.92 43.38 37.21C43.93 36.21 43.84 35.12 44.21 34.11C44.4102 33.8681 44.5198 33.564 44.52 33.25C44.5443 33.221 44.5614 33.1868 44.57 33.15C44.6383 33.0262 44.6796 32.8893 44.6911 32.7484C44.7027 32.6076 44.6842 32.4658 44.637 32.3326C44.5897 32.1993 44.5147 32.0776 44.417 31.9755C44.3193 31.8734 44.201 31.7931 44.07 31.74Z" fill="#292929"/>
<path d="M66.6199 31.94C66.7099 31.04 66.3499 30.67 65.4899 30.68H65.3399C65.2499 30.44 65.04 30.52 64.86 30.5C64.68 30.48 64.7699 30.45 64.7399 30.5C63.7691 30.3099 62.7707 30.3099 61.7999 30.5C61.442 30.5132 61.1012 30.6567 60.8416 30.9034C60.582 31.1502 60.4214 31.4832 60.3899 31.84C60.05 32.8782 59.971 33.9841 60.16 35.06C60.16 35.3211 60.1801 35.5819 60.22 35.84C60.22 36.03 60.22 36.22 60.22 36.41C60.22 37.6 60.2899 37.73 61.4499 37.85C62.6614 38.0092 63.8885 38.0092 65.1 37.85C65.4142 37.833 65.7123 37.7051 65.9412 37.4891C66.1701 37.273 66.3149 36.9828 66.35 36.67C66.7147 36.1663 66.9139 35.5618 66.92 34.94C66.98 33.85 66.5399 32.91 66.6199 31.94Z" fill="#292929"/>
</g>
<defs>
<clipPath id="clip0_17_698">
<rect width="101.92" height="101.92" fill="white"/>
</clipPath>
</defs>
</svg>
