<svg width="102" height="102" viewBox="0 0 102 102" fill="none" xmlns="http://www.w3.org/2000/svg">
<g clip-path="url(#clip0_17_640)">
<path d="M101.78 60.7801C101.617 62.6485 101.306 64.5009 100.85 66.3201C100.128 68.9059 98.9234 71.3317 97.3 73.4701C97.1802 73.6161 97.07 73.7698 96.9701 73.9301C95.4601 76.8301 93.31 79.2901 91.4 81.9301C90.2442 83.2959 88.9873 84.5728 87.64 85.7501C84.83 88.6001 81.64 90.9901 78.54 93.5401C76.6879 95.05 74.6134 96.2644 72.39 97.1401C69.8641 98.1373 67.2443 98.8777 64.5701 99.3501C62.7001 99.7001 60.7901 99.8601 58.9501 100.35C58.0566 100.753 57.1158 101.042 56.15 101.21C53.57 101.27 51.02 101.75 48.42 101.67C47.6042 101.647 46.7879 101.694 45.9801 101.81C43.0601 102.19 40.23 101.44 37.39 101.06C35.3806 100.656 33.4916 99.7936 31.87 98.5401C29.9916 97.2376 27.9803 96.1382 25.87 95.2601C23.2614 94.0355 20.8487 92.4315 18.7101 90.5001C15.1434 87.5236 11.8808 84.2007 8.97008 80.5801C5.73029 76.9123 3.43691 72.5076 2.29003 67.7501C1.82003 65.5401 0.99006 63.4101 0.70006 61.1401C0.59188 59.9867 0.568476 58.8269 0.630053 57.6701C0.690053 54.4401 -0.069942 51.2401 0.0100579 47.9601C0.150058 41.4801 -0.669991 34.7501 2.96001 28.9601C3.88001 27.5201 4.66006 25.9601 5.45006 24.4901C6.42438 22.5138 7.78443 20.7525 9.45006 19.3101C11.3178 17.5227 13.3847 15.9558 15.6101 14.6401C15.8959 14.4852 16.1503 14.2784 16.3601 14.0301C18.6291 11.3703 21.4698 9.25761 24.67 7.85006C27.97 6.41006 30.9901 4.46009 34.3401 3.13009C37.8901 1.72009 41.4901 0.370108 45.3401 0.210108C48.3401 0.0901076 51.34 -0.289892 54.4 0.210108C56.27 0.500108 58.1201 1.0001 59.9701 1.4501C62.7371 2.00523 65.4243 2.90209 67.9701 4.12008C71.6201 6.06008 75.3901 7.75012 78.8501 10.0301C80.5701 11.1701 82.2601 12.3501 83.8501 13.6101C84.6769 14.3166 85.4276 15.1076 86.0901 15.9701C87.6501 17.8101 89.2001 19.6701 90.7201 21.5401C91.6401 22.6801 92.0401 24.1401 92.9801 25.2901C93.6101 26.0701 94.12 26.9401 94.77 27.7001C96.37 29.5701 96.77 31.9201 97.52 34.1501C98 35.5901 98.58 36.9801 99.18 38.3701C99.9294 39.9601 100.328 41.6925 100.35 43.4501C100.302 45.2586 100.501 47.0652 100.94 48.8201C101.887 52.7318 102.171 56.7745 101.78 60.7801Z" fill="#FFD561"/>
<path d="M49.4701 51.1899C52.0618 50.2046 54.7402 49.4647 57.4701 48.9799C57.7378 50.0378 57.8423 51.1304 57.7801 52.2199C57.7844 52.46 57.7108 52.6952 57.5701 52.8899C57.4146 53.0243 57.2236 53.1111 57.0201 53.1399C52.2366 54.3498 47.3327 55.0207 42.4001 55.1399C42.2659 55.164 42.1275 55.1391 42.0101 55.0699C41.8101 54.9299 41.8202 54.6399 41.8602 54.3999C42.1702 52.6199 42.7301 48.2899 44.4801 47.1899C46.8801 45.6499 49.5401 49.0399 49.4701 51.1899Z" fill="#D6674C"/>
<path d="M25.76 22.5999C27.5 22.7199 27.49 22.7599 26.76 24.3599C25.6543 26.7833 24.2897 29.08 22.6901 31.2099C22.0948 32.0436 21.5441 32.9081 21.04 33.7999C20.9668 33.9713 20.8386 34.1134 20.6757 34.2039C20.5127 34.2945 20.3242 34.3282 20.14 34.2999C19.63 34.2399 19.1401 34.2299 18.6101 34.1699C17.7101 34.0699 17.6101 33.8299 18.1001 33.0499C19.0301 31.6299 19.9301 30.1899 20.9401 28.8299C22.2009 27 23.2099 25.0088 23.9401 22.9099C23.9732 22.781 24.0527 22.6689 24.1635 22.5951C24.2742 22.5212 24.4083 22.4909 24.54 22.5099C25.05 22.5299 25.38 22.5699 25.76 22.5999Z" fill="#292929"/>
<path d="M80.3201 28.3701C80.2196 28.4801 80.1091 28.5805 79.99 28.6701C79.3072 29.0371 78.572 29.2969 77.8101 29.4401C77.6903 29.4589 77.5676 29.4468 77.4538 29.4047C77.34 29.3627 77.2389 29.2923 77.1601 29.2001C75.8301 28.0601 74.3201 27.2001 72.9001 26.2001C71.5685 25.1557 70.2997 24.0338 69.1001 22.8401C68.7139 22.4686 68.3498 22.0745 68.01 21.6601C67.53 21.1201 67.5901 20.8001 68.1901 20.4401C68.8191 20.1083 69.4927 19.8691 70.1901 19.7301C70.3801 19.6801 70.5501 19.6601 70.6801 19.8701C72.2031 22.0724 74.1597 23.9405 76.4301 25.3601C77.6537 26.1374 78.8261 26.9925 79.9401 27.9201C80.1201 28.0201 80.3001 28.1101 80.3201 28.3701Z" fill="#292929"/>
<path d="M60.41 52.1599C60.4222 51.5411 60.469 50.9235 60.55 50.3099C60.7252 48.8662 60.695 47.405 60.4601 45.9699C60.2505 44.9189 59.795 43.9325 59.1311 43.0913C58.4672 42.2501 57.6135 41.578 56.64 41.1299C55.0599 40.4508 53.2938 40.3378 51.64 40.8099C47.75 41.8099 44.9 44.2699 42.51 47.3499C40.91 49.4099 40.6801 51.8399 40.5801 54.3499C40.5801 54.7999 40.8701 54.8499 41.2101 54.8999C42.2039 55.0406 43.2108 55.0641 44.2101 54.9699C47.8001 54.7599 51.4001 54.9699 54.9701 54.3399C56.4564 54.1377 57.9316 53.8607 59.39 53.5099C59.7027 53.4628 59.9847 53.2951 60.1753 53.0428C60.3659 52.7905 60.4502 52.4736 60.41 52.1599ZM56.52 52.8399C55.15 53.2299 53.7201 53.2899 52.3301 53.5999C49.8101 54.1699 47.2401 53.7699 44.7201 54.1299C44.0501 54.2199 43.8501 53.9899 43.8501 53.2399C43.8501 49.0499 46.4501 46.4499 49.3301 43.9899C50.5974 42.9882 52.0285 42.2135 53.5601 41.6999C53.7415 41.6186 53.9431 41.5933 54.139 41.6272C54.335 41.661 54.5163 41.7525 54.66 41.8899C55.6525 42.5942 56.4371 43.5526 56.9315 44.6646C57.4259 45.7766 57.612 47.0013 57.4701 48.2099C57.4701 48.7299 57.3901 49.2099 57.3501 49.7499C57.2901 50.4999 57.2101 51.2499 57.1901 52.0099C57.2 52.2064 57.1372 52.3998 57.0135 52.5529C56.8899 52.706 56.7142 52.8082 56.52 52.8399Z" fill="#292929"/>
<path d="M36.8 43.19C36.91 42.86 36.99 42.5299 36.65 42.3099C36.1068 41.8667 35.4865 41.5277 34.8201 41.3099C32.9501 40.9499 31.32 39.98 29.54 39.38C27.6403 38.5915 25.5963 38.21 23.54 38.26C21.9733 38.2193 20.437 38.6974 19.17 39.6199C16.45 42.0199 14.67 44.8899 14.88 48.6799C14.99 50.6799 15.2201 52.6199 16.8101 54.1099C17.1064 54.427 17.3464 54.7922 17.52 55.19C17.6914 55.4878 17.7661 55.8315 17.7339 56.1736C17.7016 56.5157 17.5641 56.8393 17.3401 57.0999C16.2285 58.5724 14.9536 59.9143 13.54 61.0999C11.7079 62.3966 10.3685 64.2752 9.73999 66.4299C9.56533 66.9031 9.54898 67.4201 9.69324 67.9033C9.83749 68.3866 10.1346 68.81 10.54 69.1099C11.21 69.6199 11.7901 70.2399 12.4301 70.7899C12.6605 70.9235 12.8518 71.1154 12.9847 71.3461C13.1177 71.5769 13.1877 71.8386 13.1877 72.1049C13.1877 72.3713 13.1177 72.633 12.9847 72.8638C12.8518 73.0946 12.6605 73.2863 12.4301 73.4199C11.6712 74.121 10.8624 74.766 10.01 75.3499C8.87304 76.1041 7.83791 77.0015 6.93005 78.02C7.56005 78.91 8.23005 79.78 8.93005 80.63C11.8407 84.2505 15.1034 87.5734 18.67 90.5499C20.8087 92.4813 23.2215 94.0854 25.8301 95.3099C26.2501 95.4799 26.6601 95.6699 27.0701 95.8599C27.6264 95.7283 28.1238 95.4169 28.4854 94.974C28.8469 94.5311 29.0525 93.9814 29.0701 93.4099C29.3318 91.6987 29.3687 89.9607 29.1801 88.2399C28.6701 85.3699 28.3701 82.4699 27.0901 79.7899C26.9762 79.5573 26.9343 79.2959 26.97 79.0394C27.0056 78.7828 27.117 78.5427 27.29 78.3499C27.85 77.6233 28.39 76.8733 28.91 76.0999C30.14 74.2599 31.66 72.59 32.49 70.5C33.49 67.9799 34.0301 65.4999 31.7201 63.3099C31.4443 62.9743 31.2413 62.5849 31.1243 62.1665C31.0072 61.7482 30.9785 61.31 31.04 60.88C31.04 59.09 31.9301 57.6199 32.7101 56.1099C33.559 54.7524 34.13 53.2398 34.39 51.6599C34.4513 51.1497 34.407 50.6324 34.26 50.14C33.79 48.63 34.61 47.42 35.26 46.14C35.8325 45.1886 36.3468 44.2035 36.8 43.19Z" fill="#8CBBE8"/>
<path d="M94.6901 73.8801C94.7255 73.542 94.6845 73.2002 94.5701 72.8801C93.991 71.4075 93.2709 69.9942 92.4201 68.66C91.5201 67.35 90.5601 66.1201 89.6801 64.7901C89.3696 64.3038 89.171 63.7546 89.0983 63.1823C89.0257 62.6099 89.0809 62.0285 89.2601 61.4801C89.6501 60.1001 89.9602 58.6801 90.3602 57.3001C90.6718 56.33 90.837 55.3189 90.8502 54.3001C90.8502 52.0401 90.5901 49.8701 88.9101 48.8101C88.5704 48.5745 88.2004 48.3861 87.8101 48.2501L84.7302 47.3701C83.7302 47.0901 83.7301 47.0901 83.5501 45.6401C83.4909 43.7115 82.8339 41.849 81.6701 40.3101C80.4001 38.8601 79.1201 37.3901 77.3801 37.0401C75.755 36.6839 74.1081 36.4367 72.4501 36.3001C70.7401 36.1901 69.0001 36.2401 67.4501 35.0801L66.3301 34.9901C65.3301 34.9001 64.8701 35.9401 64.5001 37.0501C64.3793 37.4395 64.3087 37.8428 64.2901 38.2501C64.2001 39.3601 64.0901 40.4701 64.0301 41.5801C63.855 43.2726 64.2567 44.9745 65.1701 46.41C65.8178 47.4213 66.4055 48.4698 66.9301 49.5501C67.2927 50.3618 67.7564 51.1245 68.3101 51.8201C69.1753 52.8517 69.6685 54.1443 69.7101 55.4901C69.9201 58.1101 70.0201 60.7001 68.7801 63.1C68.457 63.7723 68.241 64.491 68.1401 65.2301C67.8801 66.9301 67.6301 68.6401 67.5201 70.3601C67.2701 74.2001 68.1801 77.2901 70.4501 79.3001C71.6776 80.4308 72.6316 81.826 73.2401 83.3801C73.9513 85.1838 73.9834 87.1845 73.3301 89.0101C72.4401 91.5701 72.0101 94.3401 71.0901 96.8701C70.9918 97.1219 70.9409 97.3897 70.9401 97.66C71.4201 97.49 71.9401 97.3301 72.3801 97.1301C74.6034 96.2544 76.678 95.0401 78.5301 93.5301C81.6001 90.9801 84.8201 88.5901 87.6301 85.7401C88.9774 84.5628 90.2343 83.2858 91.3901 81.9201C91.9001 81.2301 92.3901 80.5401 92.9501 79.8601C93.0301 79.6752 93.1202 79.4949 93.2202 79.3201C94.1172 77.642 94.6199 75.7816 94.6901 73.8801Z" fill="#8CBBE8"/>
<path d="M29.3901 35.0201C30.6401 33.4701 32.7201 32.2801 34.5501 32.5501C35.0301 32.6101 35.5501 32.6501 36.0001 32.6701C38.4601 32.7601 39.18 34.4501 39.24 36.4501C39.31 38.6701 38.2401 40.4501 36.8701 42.0401C36.6495 42.2804 36.3825 42.4734 36.0851 42.6075C35.7878 42.7416 35.4662 42.8139 35.1401 42.8201C33.6879 42.9119 32.2301 42.7974 30.8101 42.4801C28.3901 41.9701 27.7401 38.3801 28.5301 36.4801C28.7389 35.9516 29.029 35.459 29.3901 35.0201Z" fill="#FEFEFE"/>
<path d="M71.0501 30.2499C67.8401 29.1499 61.2201 29.3899 61.5301 34.0699C61.6331 34.8928 61.8874 35.6895 62.2801 36.4199C62.4464 36.804 62.6472 37.1722 62.88 37.5199C63.8397 38.6572 65.1658 39.4246 66.63 39.6899C67.4492 39.9364 68.3085 40.0213 69.1601 39.9399C70.2993 39.7561 71.3583 39.2377 72.2023 38.4507C73.0463 37.6637 73.6372 36.6436 73.9 35.5199C74.1143 34.447 73.9468 33.3329 73.4263 32.3705C72.9058 31.4081 72.0652 30.658 71.0501 30.2499Z" fill="#FDFDFD"/>
<path d="M29.7201 35.2501C30.7801 34.8601 31.87 34.5201 32.89 34.0601C34.1138 33.6273 35.4361 33.5544 36.7001 33.8501C37.0401 33.8501 37.31 34.0701 37.27 34.4901C37.3041 35.0852 37.2296 35.6816 37.05 36.2501C36.4853 37.6803 35.8169 39.0673 35.05 40.4001C34.96 40.5301 34.9101 40.7001 34.8201 40.8201C34.5001 41.2401 34.62 42.0201 34.02 42.1501C33.1646 42.2548 32.2974 42.2039 31.4601 42.0001C31.1801 42.0001 31.11 41.7201 31.25 41.4401C31.53 40.8901 31.7601 40.3101 32.0701 39.7801C32.7944 38.3893 33.4354 36.9568 33.99 35.4901C32.2 36.0001 30.6 37.0601 28.67 36.7901C28.19 36.5301 27.5401 36.7901 27.0601 36.2401C27.9807 36.0096 28.8728 35.6776 29.7201 35.2501Z" fill="#292929"/>
<path d="M61.9101 32.9799C63.6801 32.2899 65.4302 31.5099 67.2302 30.9199C68.313 30.6986 69.4341 30.7536 70.49 31.0799C70.5724 31.0849 70.6498 31.1205 70.7072 31.1797C70.7646 31.2389 70.7978 31.3175 70.8001 31.3999C70.8001 31.5599 70.6401 31.6199 70.5201 31.6199C69.1501 31.6199 68.0701 32.4899 66.8101 32.8499C66.2501 33.0099 65.7101 33.2499 65.0301 33.5099C66.7301 35.1399 67.8401 37.2299 69.7201 38.6499C69.9901 38.9799 70.0801 39.3099 69.5001 39.2999C68.3201 39.2999 67.0801 39.4199 66.2101 38.2999C66.0486 38.2859 65.8918 38.2377 65.7504 38.1583C65.609 38.079 65.4862 37.9705 65.3901 37.8399C64.8601 36.9599 63.9701 36.3799 63.4501 35.4899C63.1152 35.0009 62.7223 34.5543 62.2801 34.1599C62.0701 33.9499 61.7702 33.7499 61.8602 33.3699C61.8802 33.2499 61.9001 33.1299 61.9101 32.9799Z" fill="#292A2A"/>
</g>
<defs>
<clipPath id="clip0_17_640">
<rect width="101.92" height="101.92" fill="white"/>
</clipPath>
</defs>
</svg>
