<svg width="102" height="102" viewBox="0 0 102 102" fill="none" xmlns="http://www.w3.org/2000/svg">
<g clip-path="url(#clip0_17_683)">
<path d="M0.119926 53.28C-0.400074 49.41 0.839967 45.63 1.84997 41.83C2.93997 37.74 4.39996 33.75 5.71996 29.73C7.11996 25.47 9.71992 22 12.6199 18.73C13.7699 17.42 14.9199 16.11 16.1399 14.87C17.3599 13.63 19.03 12.4 20.4 11.07C21.77 9.73997 22.9999 8.57998 24.2599 7.29998C27.2055 4.27213 31.076 2.31221 35.2599 1.72997C38.3399 1.27997 41.41 0.789981 44.47 0.209981C46.0012 -5.02914e-05 47.5517 -0.0302519 49.09 0.119984C50.7641 0.141403 52.4347 0.278399 54.09 0.529988C55.52 0.799988 56.9399 1.17999 58.3599 1.52999C62.0099 2.41999 65.6899 3.25997 69.3599 4.22997C72.879 5.27723 76.2422 6.79066 79.3599 8.72997C81.46 10.0419 83.4144 11.5739 85.1899 13.3C87.1899 15.15 89.1299 17.14 91.1899 19.01C93.9921 21.6642 96.2331 24.8538 97.78 28.39C99.3172 31.6118 100.582 34.9569 101.56 38.39C102.106 41.0205 102.224 43.7218 101.91 46.39C101.67 50.39 100.46 54.28 99.5799 58.19C99.4811 58.477 99.4239 58.7767 99.41 59.08C99.65 62.3 98.4999 65.28 97.8699 68.35C96.8099 73.44 94.4499 77.96 91.8699 82.35C91.2125 83.3883 90.6278 84.4709 90.1199 85.59C89.2934 87.3028 88.3788 88.9717 87.3799 90.59C86.8738 91.7158 86.0721 92.6834 85.0599 93.39C83.7599 94.18 82.9099 95.51 81.5499 96.27C78.1984 98.1253 74.5457 99.3745 70.7599 99.96C65.4199 100.86 60.0199 101.31 54.6199 101.74C51.7674 101.998 48.8944 101.921 46.0599 101.51C42.3899 100.94 38.84 99.82 35.22 99.01C30.3698 97.801 25.6529 96.1092 21.1399 93.96C18.8393 92.8937 16.7309 91.4542 14.9 89.7C12.74 87.7 10.47 85.8 8.89995 83.27C7.48995 81 6.26996 78.6 4.77996 76.38C2.47996 72.95 1.77994 69.01 1.12994 65.08C0.307459 61.2034 -0.0317988 57.2399 0.119926 53.28Z" fill="#FFD561"/>
<path d="M58.89 31.15C59.2877 31.6788 59.7918 32.1183 60.37 32.44C61.3075 33.0785 62.3758 33.4996 63.4969 33.6726C64.618 33.8457 65.7636 33.7662 66.85 33.44C68.98 32.67 70.56 30.26 69.91 28.09C69.4772 26.99 68.7922 26.0069 67.91 25.22C65.63 22.83 63.81 22.22 60.91 24.28C58.99 25.66 57.39 28.96 58.89 31.15Z" fill="white"/>
<path d="M29.51 30.1599C29.3714 31.0646 29.5197 31.99 29.934 32.806C30.3483 33.6221 31.0078 34.2879 31.82 34.7099C33.1132 35.1723 34.5268 35.1723 35.82 34.7099C36.8606 34.45 37.8372 33.9804 38.69 33.3299C39.6563 32.4718 40.2684 31.2846 40.407 29.9997C40.5457 28.7149 40.2009 27.4244 39.44 26.3799C36.17 22.1399 30.08 25.6699 29.51 30.1599Z" fill="white"/>
<path d="M55.64 40.96C56.1814 42.8863 56.4506 44.879 56.44 46.88C56.44 47.52 56.07 47.47 55.65 47.46C52.04 47.46 48.44 47.56 44.84 47.28C43.811 47.3095 42.7819 47.2291 41.77 47.0399C41.28 46.8999 41.23 46.71 41.36 46.31C41.7072 45.3176 42.1112 44.346 42.57 43.4C43.1284 43.1256 43.765 43.0549 44.37 43.2C44.9659 43.195 45.5602 43.2622 46.14 43.4C46.5379 43.5272 46.9628 43.5442 47.3696 43.4491C47.7764 43.354 48.1498 43.1504 48.45 42.86C48.79 42.56 49.22 42.37 49.58 42.09C50.8007 41.2687 52.2857 40.9368 53.74 41.16C54.3796 41.2703 55.0373 41.201 55.64 40.96Z" fill="#D6674C"/>
<path d="M61.15 23.96C62.48 23.73 63.15 24.44 63.74 25.55C64.59 27.25 64.74 27.29 65.93 25.88C66.93 24.69 68.2 25.18 69.38 25.23C69.88 25.23 69.6 25.6 69.38 25.84C68.3695 26.8187 67.308 27.7433 66.2 28.61C65.79 28.97 65.71 29.19 66.09 29.61C66.9019 30.8125 67.573 32.1043 68.09 33.46C68.1449 33.5421 68.1762 33.6376 68.1805 33.7363C68.1849 33.8349 68.1621 33.9329 68.1147 34.0195C68.0673 34.1061 67.997 34.178 67.9115 34.2275C67.8261 34.2769 67.7287 34.302 67.63 34.3C66.8726 34.39 66.1073 34.39 65.35 34.3C65.16 34.3 64.95 34.22 64.93 33.99C64.85 32.99 64.18 32.28 63.93 31.38C63.76 30.82 63.4 30.46 62.77 31.07C62.2493 31.4603 61.7549 31.8846 61.29 32.34C60.96 32.76 60.49 32.58 60.08 32.61C59.67 32.64 59.27 32.61 58.86 32.61C58.45 32.61 58.27 32.61 58.17 32.32C58.07 32.03 58.37 31.84 58.57 31.68C59.63 30.88 60.67 30.05 61.77 29.3C62.24 28.98 62.3 28.69 62 28.3C61.12 27.05 60.74 25.47 59.5 24.44C59.19 24.18 59.58 24.06 59.74 24.04C60.22 23.96 60.69 23.96 61.15 23.96Z" fill="#292929"/>
<path d="M40.6899 32.61C40.2352 32.6671 39.7735 32.6193 39.3401 32.4702C38.9067 32.3211 38.5133 32.0747 38.1899 31.75C38.1075 31.6811 38.0206 31.6176 37.9299 31.56C36.0899 30.36 36.24 30.25 35.22 32.38C34.41 34.08 34.5 34.12 32.59 34.06C31.34 34.06 31.4 34.06 31.77 32.89C32.2121 31.8127 32.7757 30.7894 33.45 29.84C33.74 29.36 33.64 29.14 33.2 28.89C32.07 28.27 30.95 27.6199 29.83 26.9799C29.72 26.92 29.5599 26.88 29.5599 26.72C29.5599 26.56 29.75 26.45 29.9 26.44C31.28 26.44 32.69 26.06 33.9 27.2C34.66 27.93 34.73 27.85 35.23 26.96C35.73 26.07 36.23 25.23 36.72 24.35C36.79 24.1731 36.9091 24.0198 37.0632 23.9082C37.2173 23.7966 37.4 23.7313 37.59 23.72C38.29 23.72 39 23.72 39.7 23.72C40.03 23.72 40.35 23.79 40.02 24.31C39.13 25.73 38.3199 27.21 37.4299 28.63C37.1499 29.08 37.24 29.29 37.66 29.5C39.0833 30.069 40.4276 30.8184 41.66 31.7299C41.89 31.9299 42.38 32.03 42.29 32.37C42.2 32.71 41.73 32.56 41.41 32.59C41.09 32.62 41.0099 32.61 40.6899 32.61Z" fill="#292929"/>
<path d="M58.73 40.54C58.4047 39.492 57.795 38.5548 56.9688 37.8327C56.1425 37.1107 55.1321 36.632 54.0499 36.45C51.8259 36.0214 49.5346 36.0897 47.34 36.65C43.63 37.65 40.67 39.59 39.28 43.39C38.7275 44.5081 38.3047 45.6858 38.02 46.9C37.94 47.59 38.1 47.97 38.92 47.95C43.01 47.81 47.1 48.33 51.2 48.2C53.72 48.12 56.2 48.3 58.76 48.1C59.48 48.04 59.66 47.79 59.67 47.1C59.7147 44.8768 59.3972 42.6612 58.73 40.54ZM55.64 47.42C52.03 47.42 48.43 47.52 44.83 47.24C43.801 47.2696 42.7718 47.1891 41.76 47C41.27 46.86 41.22 46.67 41.35 46.27C41.6972 45.2776 42.1012 44.306 42.56 43.36C43.16 41.6954 44.2145 40.2323 45.6037 39.1365C46.9929 38.0406 48.6615 37.356 50.42 37.16C51.6032 37.0511 52.7856 37.3767 53.7463 38.076C54.7069 38.7753 55.3801 39.8005 55.64 40.96C56.1813 42.8864 56.4506 44.879 56.44 46.88C56.43 47.48 56.06 47.43 55.64 47.42Z" fill="#292929"/>
</g>
<defs>
<clipPath id="clip0_17_683">
<rect width="101.92" height="101.92" fill="white"/>
</clipPath>
</defs>
</svg>
