<svg width="102" height="102" viewBox="0 0 102 102" fill="none" xmlns="http://www.w3.org/2000/svg">
<g clip-path="url(#clip0_17_691)">
<path d="M101.89 46.91C101.89 51.34 101.76 55.77 101.39 60.19C101.192 62.4772 100.688 64.7274 99.89 66.88C98.5972 70.3353 97.0253 73.6797 95.19 76.88C93.81 79.27 92.19 81.55 90.77 83.88C89.9 85.29 89.26 86.88 88.28 88.19C85.6293 91.6819 82.0189 94.3263 77.89 95.8C76.0927 96.5415 74.3398 97.3863 72.64 98.33C70.03 99.74 67.15 100.2 64.33 100.87C61.6525 101.336 58.9376 101.554 56.22 101.52C52.93 101.66 49.63 101.88 46.33 101.95C43.7001 101.951 41.0767 101.687 38.5 101.16C34.5191 100.413 30.6752 99.0638 27.1 97.16C24.23 95.65 21.33 94.16 18.51 92.57C14.8 90.46 12.04 87.3 9.37 84.05C7.69705 82.0205 6.16989 79.8752 4.79999 77.63C3.27999 75.15 2.80001 72.39 2.20001 69.63C1.20001 64.8 1.54999 59.88 0.679993 55.03C-0.501839 47.6083 -0.0479054 40.018 2.01001 32.79C2.55001 30.79 2.91001 28.69 3.39001 26.64C3.7763 24.4793 4.38626 22.3646 5.21002 20.33C5.34238 20.0257 5.52871 19.7479 5.76001 19.51C6.84001 18.45 7.29 16.98 8.31 15.85C10.0873 14.0565 12.0673 12.4759 14.21 11.14C16.4771 9.68812 18.8904 8.47816 21.41 7.53001C25.57 5.76001 29.79 4.13001 34.04 2.59001C37.9795 1.16025 42.1296 0.396469 46.32 0.330009C49.26 0.330009 52.2 0.0900098 55.14 0.0100098C58.1868 0.0133536 61.23 0.217128 64.25 0.62001C66.2647 0.80219 68.2678 1.09597 70.25 1.50001C73.08 2.11001 75.59 3.50001 78.18 4.71001C81.67 6.34001 84.29 9.06001 87.18 11.45C92.23 15.6 95.18 21.05 97.72 26.87C99.1477 30.3515 100.347 33.9225 101.31 37.56C101.88 39.56 101.7 41.56 101.86 43.5C101.97 44.63 101.89 45.77 101.89 46.91Z" fill="#FFD561"/>
<path d="M49.45 48.9299C44.6206 48.5739 39.8867 47.4006 35.45 45.4599C34.3711 44.9423 33.4342 44.1701 32.72 43.2099C31.248 41.4663 30.3012 39.3405 29.99 37.0799C29.86 36.0099 29.85 36.0099 30.99 35.8699C31.152 35.8401 31.3157 35.82 31.4801 35.8099C33.0501 35.8099 33.09 35.5799 33.35 37.3099C33.7903 40.106 35.2775 42.6299 37.51 44.3699C37.7764 44.5693 38.065 44.7371 38.37 44.8699C42.1092 46.5488 46.0929 47.6189 50.1701 48.0399C53.5313 48.3886 56.92 47.7234 59.9 46.1299C62.1638 44.8672 64.0568 43.0328 65.39 40.8099C66.5318 39.0427 67.4362 37.133 68.08 35.1299C68.1152 34.9526 68.2116 34.7934 68.3524 34.68C68.4931 34.5667 68.6693 34.5064 68.85 34.5099L70.76 34.3999C71.34 34.3999 71.49 34.5999 71.3 35.1599C70.0852 39.0556 67.7855 42.5244 64.6701 45.1599C62.6555 46.6417 60.3415 47.6656 57.89 48.1599C55.1206 48.7724 52.2846 49.0311 49.45 48.9299Z" fill="#292929"/>
<path d="M12.96 31.2201C12.4 25.3801 21.64 26.7901 23.47 30.5001C24.47 32.5001 23.59 35.0501 21.7 36.5001C20.4933 37.308 19.0175 37.6098 17.5905 37.3404C16.1635 37.0711 14.8993 36.2522 14.07 35.0601C13.34 33.8801 12.64 32.7001 12.96 31.2201Z" fill="#D6674C"/>
<path d="M87.46 35.54C86.97 37.75 86.14 39.79 84.16 41.12C82.59 42.12 81.0301 41.42 79.4801 40.93C79.4064 40.905 79.3359 40.8714 79.27 40.83C76.42 39.33 76.35 38.37 77.18 35.53C77.4577 34.4272 78.0816 33.4424 78.96 32.72C79.5229 32.1886 80.2069 31.8025 80.9527 31.5951C81.6985 31.3877 82.4836 31.3654 83.24 31.53C84.0054 31.6629 84.7367 31.9471 85.3909 32.3661C86.0452 32.7851 86.6091 33.3303 87.05 33.97C87.3679 34.4284 87.5132 34.9847 87.46 35.54Z" fill="#D6674C"/>
<path d="M65.84 19.3299C67.0327 19.3378 68.1907 19.7318 69.1407 20.4529C70.0907 21.174 70.7816 22.1833 71.11 23.3299C71.6163 25.0533 72.0303 26.8024 72.35 28.5699C72.51 29.2299 72.21 29.4999 71.59 29.5699C71.31 29.5699 71.04 29.6499 70.76 29.6499C70.2742 29.7407 69.7758 29.7407 69.29 29.6499C68.74 29.4299 69.23 28.8399 69.09 28.4099C68.53 26.6199 68.41 24.6999 67.64 22.9699C67.1256 21.8863 66.2775 20.9961 65.22 20.4299C64.74 20.1599 64.42 20.4299 64.05 20.6999C62.3105 22.347 61.0228 24.4129 60.31 26.6999C59.96 27.6299 59.63 28.5599 59.24 29.4799C59.19 29.5999 59.13 29.7899 59.03 29.8199C58.0985 30.076 57.1221 30.1238 56.17 29.9599C55.92 29.9599 55.86 29.6499 55.99 29.4199C56.85 27.8299 57.22 26.0399 57.99 24.4199C58.7398 22.9307 59.7566 21.5919 60.99 20.4699C61.3935 20.0871 61.8955 19.8239 62.44 19.7099C63.5502 19.4261 64.6945 19.2982 65.84 19.3299Z" fill="#292929"/>
<path d="M43.48 30.2201C42.38 30.2201 42.38 30.2201 42.35 29.0901C42.3791 27.118 41.9692 25.1642 41.15 23.3701C40.7076 22.5622 40.0314 21.9069 39.21 21.4901C38.8548 21.2904 38.4414 21.2201 38.0402 21.2912C37.639 21.3623 37.2749 21.5705 37.01 21.8801C35.5324 23.2468 34.4276 24.9677 33.8 26.8801C33.37 28.2201 32.98 29.5701 32.6 30.8801C32.5771 30.9877 32.5179 31.0842 32.4323 31.1534C32.3467 31.2225 32.24 31.2602 32.13 31.2601C31.38 31.2601 30.64 31.3601 29.89 31.3701C29.38 31.3701 29.17 31.0801 29.35 30.6001C30.09 28.6701 30.46 26.6001 31.48 24.7601C32.169 23.5549 33.0545 22.4734 34.1 21.5601C34.7439 21.0304 35.5303 20.7033 36.36 20.6201C37.8851 20.3352 39.448 20.3149 40.98 20.5601C41.7752 20.6957 42.5225 21.0324 43.1508 21.5383C43.7792 22.0441 44.2677 22.7022 44.57 23.4501C45.3208 25.3597 45.6879 27.3986 45.65 29.4501C45.65 29.8801 45.45 30.0401 45.05 30.0601L43.48 30.2201Z" fill="#292929"/>
</g>
<defs>
<clipPath id="clip0_17_691">
<rect width="101.92" height="101.92" fill="white"/>
</clipPath>
</defs>
</svg>
