<svg width="102" height="102" viewBox="0 0 102 102" fill="none" xmlns="http://www.w3.org/2000/svg">
<g clip-path="url(#clip0_17_676)">
<path d="M52.94 0.0299724C56.02 0.109972 59.11 0.279988 62.17 0.639988C63.541 0.872464 64.8824 1.25474 66.17 1.77997C68.9176 2.57926 71.5673 3.68277 74.07 5.06998C75.6052 5.97424 77.0487 7.02588 78.38 8.21C79.38 9.21 80.61 10.03 81.67 11C83.24 12.44 84.48 14.24 86.17 15.55C88.7413 17.5862 90.8369 20.1595 92.31 23.09C93.4466 25.0467 94.7093 26.9273 96.09 28.72C98.5172 31.9665 100.082 35.7749 100.64 39.79C100.87 41.79 101.53 43.63 101.79 45.58C102.167 48.3453 101.925 51.16 101.08 53.82C100.52 55.57 99.89 57.29 99.27 59.02C99.0523 59.6674 98.9147 60.3391 98.8601 61.02C98.6263 63.0335 98.0048 64.9828 97.03 66.76C96.0952 68.5216 95.3831 70.3926 94.91 72.33C94.3 74.76 92.91 76.78 91.67 78.89C89.89 81.89 88.0501 84.89 85.3501 87.15C82.9938 89.1805 80.4716 91.0102 77.81 92.62C74.1877 94.8228 70.3879 96.7194 66.45 98.29C63.8617 99.1927 61.1769 99.7901 58.45 100.07C56.61 100.31 54.9 101.07 53.09 101.47C51.2434 101.926 49.3208 101.984 47.45 101.64C46.27 101.41 45.0701 101.18 43.8601 101.05C42.2538 100.732 40.69 100.229 39.2 99.55C36.7 98.69 34.25 97.7 31.79 96.7C31.0588 96.4372 30.3812 96.0441 29.79 95.54C29.131 94.9201 28.3741 94.4133 27.55 94.04C25.84 93.31 24.31 92.21 22.62 91.45C20.7829 90.4421 19.0625 89.2348 17.4899 87.85C14.4399 85.57 12.71 82.27 10.66 79.22C9.31999 77.22 8.10998 75.22 6.95998 73.08C5.29982 70.0969 3.927 66.9628 2.86 63.72C2.14 61.49 1.59 59.21 0.98 56.96C0.0869468 54.0484 -0.162124 50.9774 0.250019 47.96C0.716787 44.8169 1.44942 41.7192 2.44002 38.7C3.31263 36.385 4.39722 34.1555 5.68001 32.04C6.21642 30.9857 6.6356 29.8757 6.93001 28.73C7.36373 27.1733 8.12009 25.7253 9.14998 24.48C11.0112 22.2979 12.7092 19.9816 14.2301 17.55C14.75 16.7744 15.4034 16.0972 16.16 15.55C18.23 14.01 20.16 12.23 22.09 10.55C24.6124 8.50841 27.3133 6.69778 30.16 5.13999C31.9802 4.22435 33.8948 3.51012 35.87 3.00998C37.47 2.52998 39.08 2.10997 40.71 1.77997C43.37 1.24997 46.04 0.779992 48.71 0.299992C50.1037 0.0377508 51.5243 -0.0529429 52.94 0.0299724Z" fill="#FFD561"/>
<path d="M45.64 22.57C46.2857 22.7923 46.8253 23.2477 47.1527 23.8471C47.4801 24.4464 47.5718 25.1465 47.41 25.81C47.1358 27.7836 46.1195 29.5785 44.5681 30.8289C43.0167 32.0793 41.0469 32.6912 39.06 32.54C37.7662 32.6439 36.4746 32.3131 35.39 31.5999C35.1361 31.4578 34.9279 31.2462 34.79 30.99C34.05 28.99 33.29 26.99 34 24.81C34.22 24.1 34.78 23.81 35.29 23.51C35.7254 23.2534 36.1059 22.9136 36.41 22.51C37.79 20.65 41.1001 21.31 42.9701 21.7C43.8923 21.8796 44.789 22.1718 45.64 22.57Z" fill="white"/>
<path d="M68.9 22.8099C69.4136 23.3277 69.7413 24.001 69.8318 24.7247C69.9222 25.4484 69.7704 26.1816 69.4 26.8099C68.97 27.7714 68.4651 28.6975 67.89 29.5799C67.17 30.5299 66.51 31.3799 65.15 31.4199C64.0345 31.5325 62.9084 31.4752 61.81 31.2499C60.8755 30.9231 59.98 30.4938 59.14 29.9699C58.7722 29.77 58.4588 29.4834 58.227 29.1348C57.9952 28.7862 57.8521 28.3864 57.81 27.9699C57.7603 27.6029 57.6902 27.2391 57.6001 26.8799C57.3149 25.2406 57.612 23.5532 58.44 22.1099C58.7589 21.5804 59.272 21.1964 59.87 21.0399C61.562 20.5773 63.3209 20.4082 65.07 20.5399C65.4083 20.5397 65.7449 20.5869 66.07 20.6799C66.4698 20.8393 66.8413 21.0622 67.17 21.3399C67.7988 21.765 68.379 22.258 68.9 22.8099Z" fill="white"/>
<path d="M60.81 40.7199C59.7923 40.7457 58.7921 40.452 57.95 39.8799C57.7001 39.6789 57.5386 39.3883 57.4999 39.0699C57.2057 37.8342 56.6835 36.6641 55.96 35.6199C55.8505 35.4581 55.7006 35.3278 55.5252 35.2418C55.3497 35.1559 55.1549 35.1173 54.96 35.1299C52.8445 35.125 50.7543 35.5895 48.84 36.4899C44.3 38.5599 41.13 42.0299 38.57 46.1699C38.3051 46.5016 38.148 46.9064 38.1199 47.3299C38.1199 47.7199 37.8399 47.6399 37.6199 47.6199C36.8355 47.5044 36.0832 47.2287 35.4099 46.8099C34.9199 46.5199 35.1299 46.1299 35.2899 45.8099C36.0621 44.305 37.0122 42.8982 38.1199 41.6199C40.4395 38.5778 43.5539 36.2351 47.1199 34.8499C49.9344 33.6301 53.0946 33.4668 56.0199 34.3899C56.99 34.7381 57.8611 35.3169 58.5579 36.0764C59.2547 36.8359 59.7564 37.7535 60.0199 38.7499C60.2133 39.4325 60.4782 40.0928 60.81 40.7199Z" fill="#292929"/>
<path d="M45.63 23.4901L44.94 25.58C44.8756 25.8008 44.7453 25.9966 44.5666 26.1413C44.3879 26.2861 44.1693 26.3728 43.94 26.39C42.6678 26.5901 41.3722 26.5901 40.1001 26.39C39.6901 26.33 39.49 26.1801 39.51 25.7401C39.57 24.7401 39.6 23.7901 39.64 22.8201C39.7581 22.2275 39.7818 21.62 39.71 21.0201C39.6914 20.9098 39.6966 20.7968 39.7254 20.6887C39.7543 20.5807 39.806 20.4801 39.8772 20.3938C39.9483 20.3075 40.0371 20.2375 40.1377 20.1885C40.2382 20.1396 40.3482 20.1128 40.46 20.1101C41.6566 19.9187 42.8697 19.8516 44.08 19.9101C44.3138 19.914 44.5445 19.9639 44.759 20.057C44.9735 20.1501 45.1674 20.2845 45.3299 20.4526C45.4924 20.6207 45.6202 20.8191 45.706 21.0366C45.7918 21.2541 45.834 21.4863 45.83 21.7201C45.8265 22.3155 45.7594 22.9089 45.63 23.4901Z" fill="#292929"/>
<path d="M62.71 22.08L62.7799 21.84C62.8699 21.35 62.9599 20.84 63.0299 20.37C63.0378 20.2217 63.097 20.0807 63.1973 19.9712C63.2976 19.8618 63.4329 19.7906 63.58 19.77C65.1 19.55 66.5799 19.3999 67.9899 20.3499C68.1345 20.4306 68.2568 20.546 68.3459 20.6856C68.4349 20.8252 68.4878 20.9848 68.4999 21.15C68.5748 22.1219 68.5748 23.0981 68.4999 24.07C68.0799 25.07 67.6799 26.0699 66.2699 26.1399C65.2699 26.2099 64.2699 26.24 63.2699 26.25C62.8399 26.25 62.6399 26.05 62.5299 25.61C62.4331 24.6975 62.4567 23.7763 62.6 22.87C62.76 22.63 62.52 22.33 62.71 22.08Z" fill="#292929"/>
</g>
<defs>
<clipPath id="clip0_17_676">
<rect width="101.92" height="101.92" fill="white"/>
</clipPath>
</defs>
</svg>
